<ttFont>
    <TTGlyph name=".notdef" xMin="50" yMin="0" xMax="700" yMax="700">
      <contour>
        <pt x="50" y="700" on="1"/>
        <pt x="700" y="700" on="1"/>
        <pt x="700" y="0" on="1"/>
        <pt x="50" y="0" on="1"/>
      </contour>
      <contour>
        <pt x="570" y="650" on="1"/>
        <pt x="375" y="433" on="1"/>
        <pt x="180" y="650" on="1"/>
        <pt x="130" y="600" on="1"/>
        <pt x="327" y="380" on="1"/>
        <pt x="130" y="160" on="1"/>
        <pt x="180" y="110" on="1"/>
        <pt x="375" y="327" on="1"/>
        <pt x="570" y="110" on="1"/>
        <pt x="620" y="160" on="1"/>
        <pt x="422" y="380" on="1"/>
        <pt x="620" y="600" on="1"/>
      </contour>
      <contour>
        <pt x="162" y="68" on="1"/>
        <pt x="127" y="68" on="1"/>
        <pt x="127" y="61" on="1"/>
        <pt x="140" y="61" on="1"/>
        <pt x="140" y="26" on="1"/>
        <pt x="149" y="26" on="1"/>
        <pt x="149" y="61" on="1"/>
        <pt x="162" y="61" on="1"/>
      </contour>
      <contour>
        <pt x="271" y="58" on="1"/>
        <pt x="269" y="58" on="1"/>
        <pt x="268" y="58" on="0"/>
        <pt x="267" y="59" on="1"/>
        <pt x="263" y="59" on="0"/>
        <pt x="258" y="54" on="1"/>
        <pt x="258" y="58" on="1"/>
        <pt x="251" y="58" on="1"/>
        <pt x="251" y="26" on="1"/>
        <pt x="259" y="26" on="1"/>
        <pt x="259" y="46" on="1"/>
        <pt x="262" y="51" on="0"/>
        <pt x="266" y="51" on="1"/>
        <pt x="268" y="51" on="0"/>
        <pt x="270" y="50" on="1"/>
      </contour>
      <contour>
        <pt x="276" y="65" on="1"/>
        <pt x="276" y="60" on="0"/>
        <pt x="280" y="60" on="1"/>
        <pt x="285" y="60" on="0"/>
        <pt x="285" y="64" on="1"/>
        <pt x="285" y="69" on="0"/>
        <pt x="280" y="69" on="1"/>
        <pt x="276" y="69" on="0"/>
      </contour>
      <contour>
        <pt x="276" y="26" on="1"/>
        <pt x="285" y="26" on="1"/>
        <pt x="285" y="58" on="1"/>
        <pt x="276" y="58" on="1"/>
      </contour>
      <contour>
        <pt x="291" y="51" on="1"/>
        <pt x="296" y="51" on="1"/>
        <pt x="296" y="26" on="1"/>
        <pt x="304" y="26" on="1"/>
        <pt x="304" y="51" on="1"/>
        <pt x="312" y="51" on="1"/>
        <pt x="312" y="58" on="1"/>
        <pt x="304" y="58" on="1"/>
        <pt x="304" y="60" on="0"/>
        <pt x="305" y="61" on="1"/>
        <pt x="306" y="62" on="0"/>
        <pt x="308" y="62" on="1"/>
        <pt x="311" y="62" on="1"/>
        <pt x="314" y="62" on="1"/>
        <pt x="315" y="68" on="1"/>
        <pt x="315" y="69" on="0"/>
        <pt x="311" y="69" on="1"/>
        <pt x="306" y="69" on="1"/>
        <pt x="302" y="69" on="1"/>
        <pt x="301" y="69" on="0"/>
        <pt x="297" y="66" on="0"/>
        <pt x="297" y="65" on="1"/>
        <pt x="296" y="63" on="0"/>
        <pt x="296" y="60" on="1"/>
        <pt x="296" y="58" on="1"/>
        <pt x="291" y="58" on="1"/>
      </contour>
      <contour>
        <pt x="331" y="45" on="1"/>
        <pt x="331" y="20" on="0"/>
        <pt x="354" y="20" on="1"/>
        <pt x="365" y="20" on="0"/>
        <pt x="378" y="32" on="0"/>
        <pt x="378" y="45" on="1"/>
        <pt x="378" y="68" on="0"/>
        <pt x="354" y="68" on="1"/>
        <pt x="344" y="68" on="0"/>
        <pt x="331" y="56" on="0"/>
      </contour>
      <contour>
        <pt x="338" y="45" on="1"/>
        <pt x="338" y="62" on="0"/>
        <pt x="354" y="62" on="1"/>
        <pt x="371" y="62" on="0"/>
        <pt x="371" y="45" on="1"/>
        <pt x="371" y="27" on="0"/>
        <pt x="354" y="27" on="1"/>
        <pt x="338" y="27" on="0"/>
      </contour>
      <contour>
        <pt x="361" y="40" on="1"/>
        <pt x="359" y="39" on="0"/>
        <pt x="357" y="39" on="1"/>
        <pt x="352" y="39" on="0"/>
        <pt x="352" y="45" on="1"/>
        <pt x="352" y="49" on="0"/>
        <pt x="357" y="49" on="1"/>
        <pt x="360" y="49" on="1"/>
        <pt x="363" y="54" on="1"/>
        <pt x="359" y="56" on="0"/>
        <pt x="354" y="56" on="1"/>
        <pt x="344" y="56" on="0"/>
        <pt x="344" y="45" on="1"/>
        <pt x="344" y="32" on="0"/>
        <pt x="354" y="32" on="1"/>
        <pt x="359" y="32" on="0"/>
        <pt x="363" y="34" on="1"/>
      </contour>
      <contour>
        <pt x="402" y="27" on="1"/>
        <pt x="411" y="27" on="1"/>
        <pt x="411" y="41" on="1"/>
        <pt x="416" y="41" on="1"/>
        <pt x="423" y="41" on="0"/>
        <pt x="434" y="47" on="0"/>
        <pt x="434" y="55" on="1"/>
        <pt x="434" y="65" on="0"/>
        <pt x="422" y="69" on="0"/>
        <pt x="415" y="69" on="1"/>
        <pt x="402" y="69" on="1"/>
      </contour>
      <contour>
        <pt x="416" y="62" on="1"/>
        <pt x="425" y="62" on="0"/>
        <pt x="425" y="56" on="1"/>
        <pt x="425" y="50" on="0"/>
        <pt x="420" y="49" on="0"/>
        <pt x="415" y="49" on="1"/>
        <pt x="411" y="49" on="1"/>
        <pt x="411" y="62" on="1"/>
      </contour>
      <contour>
        <pt x="440" y="51" on="1"/>
        <pt x="443" y="52" on="0"/>
        <pt x="448" y="53" on="0"/>
        <pt x="451" y="53" on="1"/>
        <pt x="456" y="53" on="0"/>
        <pt x="456" y="48" on="1"/>
        <pt x="456" y="46" on="1"/>
        <pt x="455" y="46" on="0"/>
        <pt x="453" y="47" on="0"/>
        <pt x="451" y="47" on="1"/>
        <pt x="436" y="47" on="0"/>
        <pt x="436" y="35" on="1"/>
        <pt x="436" y="26" on="0"/>
        <pt x="446" y="26" on="1"/>
        <pt x="453" y="26" on="0"/>
        <pt x="456" y="32" on="1"/>
        <pt x="459" y="27" on="1"/>
        <pt x="466" y="27" on="1"/>
        <pt x="465" y="28" on="0"/>
        <pt x="465" y="35" on="1"/>
        <pt x="465" y="48" on="1"/>
        <pt x="465" y="60" on="0"/>
        <pt x="453" y="60" on="1"/>
        <pt x="448" y="60" on="0"/>
        <pt x="440" y="57" on="0"/>
        <pt x="438" y="56" on="1"/>
      </contour>
      <contour>
        <pt x="450" y="33" on="1"/>
        <pt x="445" y="33" on="0"/>
        <pt x="445" y="38" on="1"/>
        <pt x="445" y="42" on="0"/>
        <pt x="451" y="42" on="1"/>
        <pt x="453" y="42" on="0"/>
        <pt x="455" y="41" on="0"/>
        <pt x="456" y="41" on="1"/>
        <pt x="456" y="38" on="1"/>
        <pt x="455" y="33" on="0"/>
      </contour>
      <contour>
        <pt x="494" y="59" on="1"/>
        <pt x="492" y="60" on="0"/>
        <pt x="489" y="60" on="1"/>
        <pt x="484" y="60" on="0"/>
        <pt x="482" y="54" on="1"/>
        <pt x="481" y="54" on="1"/>
        <pt x="480" y="59" on="1"/>
        <pt x="473" y="59" on="1"/>
        <pt x="473" y="27" on="1"/>
        <pt x="482" y="27" on="1"/>
        <pt x="482" y="47" on="1"/>
        <pt x="482" y="52" on="0"/>
        <pt x="489" y="52" on="1"/>
        <pt x="490" y="52" on="0"/>
        <pt x="490" y="51" on="0"/>
        <pt x="491" y="51" on="1"/>
        <pt x="492" y="51" on="1"/>
      </contour>
      <contour>
        <pt x="499" y="51" on="1"/>
        <pt x="509" y="53" on="0"/>
        <pt x="510" y="53" on="1"/>
        <pt x="516" y="53" on="0"/>
        <pt x="516" y="48" on="1"/>
        <pt x="516" y="46" on="1"/>
        <pt x="514" y="46" on="0"/>
        <pt x="512" y="47" on="0"/>
        <pt x="510" y="47" on="1"/>
        <pt x="495" y="47" on="0"/>
        <pt x="495" y="35" on="1"/>
        <pt x="495" y="26" on="0"/>
        <pt x="505" y="26" on="1"/>
        <pt x="513" y="26" on="0"/>
        <pt x="516" y="32" on="1"/>
        <pt x="517" y="32" on="1"/>
        <pt x="518" y="27" on="1"/>
        <pt x="525" y="27" on="1"/>
        <pt x="524" y="28" on="0"/>
        <pt x="524" y="35" on="1"/>
        <pt x="524" y="48" on="1"/>
        <pt x="524" y="60" on="0"/>
        <pt x="512" y="60" on="1"/>
        <pt x="507" y="60" on="0"/>
        <pt x="501" y="57" on="0"/>
        <pt x="498" y="56" on="1"/>
      </contour>
      <contour>
        <pt x="509" y="33" on="1"/>
        <pt x="504" y="33" on="0"/>
        <pt x="504" y="38" on="1"/>
        <pt x="504" y="42" on="0"/>
        <pt x="510" y="42" on="1"/>
        <pt x="512" y="42" on="0"/>
        <pt x="514" y="41" on="0"/>
        <pt x="516" y="41" on="1"/>
        <pt x="516" y="38" on="1"/>
        <pt x="513" y="33" on="0"/>
      </contour>
      <contour>
        <pt x="557" y="69" on="1"/>
        <pt x="521" y="69" on="1"/>
        <pt x="521" y="62" on="1"/>
        <pt x="535" y="62" on="1"/>
        <pt x="535" y="27" on="1"/>
        <pt x="543" y="27" on="1"/>
        <pt x="543" y="62" on="1"/>
        <pt x="557" y="62" on="1"/>
      </contour>
      <contour>
        <pt x="567" y="59" on="1"/>
        <pt x="557" y="59" on="1"/>
        <pt x="571" y="27" on="1"/>
        <pt x="569" y="22" on="0"/>
        <pt x="566" y="22" on="1"/>
        <pt x="564" y="23" on="1"/>
        <pt x="562" y="16" on="1"/>
        <pt x="563" y="15" on="0"/>
        <pt x="568" y="15" on="1"/>
        <pt x="575" y="15" on="0"/>
        <pt x="579" y="30" on="1"/>
        <pt x="591" y="59" on="1"/>
        <pt x="582" y="59" on="1"/>
        <pt x="576" y="41" on="1"/>
        <pt x="576" y="35" on="1"/>
        <pt x="575" y="35" on="1"/>
        <pt x="574" y="41" on="1"/>
      </contour>
      <contour>
        <pt x="595" y="15" on="1"/>
        <pt x="604" y="15" on="1"/>
        <pt x="604" y="28" on="1"/>
        <pt x="606" y="26" on="0"/>
        <pt x="610" y="26" on="1"/>
        <pt x="626" y="26" on="0"/>
        <pt x="626" y="44" on="1"/>
        <pt x="626" y="60" on="0"/>
        <pt x="613" y="60" on="1"/>
        <pt x="607" y="60" on="0"/>
        <pt x="603" y="55" on="1"/>
        <pt x="601" y="55" on="1"/>
        <pt x="600" y="59" on="1"/>
        <pt x="595" y="59" on="1"/>
      </contour>
      <contour>
        <pt x="611" y="53" on="1"/>
        <pt x="617" y="53" on="0"/>
        <pt x="617" y="44" on="1"/>
        <pt x="617" y="33" on="0"/>
        <pt x="608" y="33" on="1"/>
        <pt x="606" y="33" on="0"/>
        <pt x="604" y="35" on="1"/>
        <pt x="604" y="47" on="1"/>
        <pt x="604" y="53" on="0"/>
      </contour>
      <contour>
        <pt x="656" y="35" on="1"/>
        <pt x="654" y="33" on="0"/>
        <pt x="648" y="33" on="1"/>
        <pt x="640" y="33" on="0"/>
        <pt x="640" y="40" on="1"/>
        <pt x="661" y="40" on="1"/>
        <pt x="661" y="47" on="1"/>
        <pt x="661" y="60" on="0"/>
        <pt x="647" y="60" on="1"/>
        <pt x="631" y="60" on="0"/>
        <pt x="631" y="42" on="1"/>
        <pt x="631" y="26" on="0"/>
        <pt x="647" y="26" on="1"/>
        <pt x="655" y="26" on="0"/>
        <pt x="659" y="30" on="1"/>
      </contour>
      <contour>
        <pt x="647" y="53" on="1"/>
        <pt x="654" y="53" on="0"/>
        <pt x="653" y="46" on="1"/>
        <pt x="640" y="46" on="1"/>
        <pt x="640" y="53" on="0"/>
      </contour>
      <contour>
        <pt x="92" y="27" on="1"/>
        <pt x="101" y="27" on="1"/>
        <pt x="101" y="41" on="1"/>
        <pt x="106" y="41" on="1"/>
        <pt x="113" y="41" on="0"/>
        <pt x="124" y="47" on="0"/>
        <pt x="124" y="55" on="1"/>
        <pt x="124" y="65" on="0"/>
        <pt x="112" y="69" on="0"/>
        <pt x="105" y="69" on="1"/>
        <pt x="92" y="69" on="1"/>
      </contour>
      <contour>
        <pt x="106" y="62" on="1"/>
        <pt x="115" y="62" on="0"/>
        <pt x="115" y="56" on="1"/>
        <pt x="115" y="50" on="0"/>
        <pt x="110" y="49" on="0"/>
        <pt x="105" y="49" on="1"/>
        <pt x="101" y="49" on="1"/>
        <pt x="101" y="62" on="1"/>
      </contour>
      <contour>
        <pt x="200" y="38" on="1"/>
        <pt x="200" y="33" on="0"/>
        <pt x="192" y="33" on="1"/>
        <pt x="189" y="33" on="0"/>
        <pt x="185" y="34" on="0"/>
        <pt x="181" y="36" on="1"/>
        <pt x="178" y="27" on="1"/>
        <pt x="182" y="26" on="0"/>
        <pt x="188" y="25" on="0"/>
        <pt x="193" y="25" on="1"/>
        <pt x="209" y="25" on="0"/>
        <pt x="209" y="39" on="1"/>
        <pt x="209" y="44" on="0"/>
        <pt x="202" y="49" on="0"/>
        <pt x="195" y="52" on="0"/>
        <pt x="188" y="55" on="0"/>
        <pt x="188" y="58" on="1"/>
        <pt x="188" y="61" on="0"/>
        <pt x="195" y="61" on="1"/>
        <pt x="198" y="61" on="0"/>
        <pt x="203" y="60" on="0"/>
        <pt x="206" y="59" on="1"/>
        <pt x="208" y="67" on="1"/>
        <pt x="204" y="68" on="0"/>
        <pt x="198" y="69" on="0"/>
        <pt x="195" y="69" on="1"/>
        <pt x="179" y="69" on="0"/>
        <pt x="179" y="56" on="1"/>
        <pt x="179" y="51" on="0"/>
        <pt x="186" y="46" on="0"/>
        <pt x="193" y="43" on="0"/>
        <pt x="200" y="40" on="0"/>
      </contour>
      <contour>
        <pt x="239" y="34" on="1"/>
        <pt x="237" y="32" on="0"/>
        <pt x="231" y="32" on="1"/>
        <pt x="223" y="32" on="0"/>
        <pt x="223" y="39" on="1"/>
        <pt x="244" y="39" on="1"/>
        <pt x="244" y="46" on="1"/>
        <pt x="244" y="59" on="0"/>
        <pt x="230" y="59" on="1"/>
        <pt x="214" y="59" on="0"/>
        <pt x="214" y="41" on="1"/>
        <pt x="214" y="25" on="0"/>
        <pt x="230" y="25" on="1"/>
        <pt x="238" y="25" on="0"/>
        <pt x="242" y="29" on="1"/>
      </contour>
      <contour>
        <pt x="230" y="52" on="1"/>
        <pt x="237" y="52" on="0"/>
        <pt x="236" y="45" on="1"/>
        <pt x="223" y="45" on="1"/>
        <pt x="223" y="52" on="0"/>
      </contour>
    </TTGlyph>
    <TTGlyph name="A" xMin="-50" yMin="0" xMax="710" yMax="700">
      <contour>
        <pt x="193" y="0" on="1"/>
        <pt x="-50" y="0" on="1"/>
        <pt x="-38" y="56" on="1"/>
        <pt x="38" y="56" on="1"/>
        <pt x="432" y="700" on="1"/>
        <pt x="538" y="700" on="1"/>
        <pt x="636" y="56" on="1"/>
        <pt x="710" y="56" on="1"/>
        <pt x="698" y="0" on="1"/>
        <pt x="415" y="0" on="1"/>
        <pt x="427" y="56" on="1"/>
        <pt x="516" y="56" on="1"/>
        <pt x="489" y="232" on="1"/>
        <pt x="225" y="232" on="1"/>
        <pt x="119" y="56" on="1"/>
        <pt x="205" y="56" on="1"/>
      </contour>
      <contour>
        <pt x="260" y="288" on="1"/>
        <pt x="484" y="288" on="1"/>
        <pt x="453" y="519" on="1"/>
        <pt x="452" y="522" on="0"/>
        <pt x="452" y="555" on="0"/>
        <pt x="451" y="575" on="1"/>
        <pt x="450" y="597" on="0"/>
        <pt x="450" y="625" on="1"/>
        <pt x="446" y="625" on="1"/>
        <pt x="392" y="517" on="1"/>
      </contour>
    </TTGlyph>
    <TTGlyph name="AE" xMin="-50" yMin="0" xMax="1042" yMax="700">
      <component glyphName="uni04D4" x="0" y="0" flags="0x204"/>
    </TTGlyph>
    <TTGlyph name="Aacute" xMin="-50" yMin="0" xMax="718" yMax="914">
      <component glyphName="A" x="0" y="0" flags="0x204"/>
      <component glyphName="uniF6C9" x="122" y="0" flags="0x4"/>
    </TTGlyph>
    <TTGlyph name="Abreve" xMin="-50" yMin="0" xMax="710" yMax="905">
      <component glyphName="A" x="0" y="0" flags="0x204"/>
      <component glyphName="uniF406" x="126" y="0" flags="0x4"/>
    </TTGlyph>
    <TTGlyph name="Acircumflex" xMin="-50" yMin="0" xMax="710" yMax="914">
      <component glyphName="A" x="0" y="0" flags="0x204"/>
      <component glyphName="uniF408" x="83" y="0" flags="0x4"/>
    </TTGlyph>
    <TTGlyph name="Adieresis" xMin="-50" yMin="0" xMax="710" yMax="854">
      <component glyphName="A" x="0" y="0" flags="0x204"/>
      <component glyphName="uniF6CB" x="90" y="0" flags="0x4"/>
    </TTGlyph>
    <TTGlyph name="Agrave" xMin="-50" yMin="0" xMax="710" yMax="914">
      <component glyphName="A" x="0" y="0" flags="0x204"/>
      <component glyphName="uniF6CE" x="184" y="0" flags="0x4"/>
    </TTGlyph>
    <TTGlyph name="Amacron" xMin="-50" yMin="0" xMax="710" yMax="851">
      <component glyphName="A" x="0" y="0" flags="0x204"/>
      <component glyphName="uniF6D0" x="98" y="0" flags="0x4"/>
    </TTGlyph>
    <TTGlyph name="Aogonek" xMin="-50" yMin="-211" xMax="710" yMax="700">
      <contour>
        <pt x="193" y="0" on="1"/>
        <pt x="-50" y="0" on="1"/>
        <pt x="-38" y="56" on="1"/>
        <pt x="38" y="56" on="1"/>
        <pt x="432" y="700" on="1"/>
        <pt x="538" y="700" on="1"/>
        <pt x="636" y="56" on="1"/>
        <pt x="710" y="56" on="1"/>
        <pt x="698" y="0" on="1"/>
        <pt x="640" y="0" on="1"/>
        <pt x="590" y="-19" on="0"/>
        <pt x="524" y="-69" on="0"/>
        <pt x="524" y="-110" on="1"/>
        <pt x="524" y="-137" on="0"/>
        <pt x="554" y="-158" on="0"/>
        <pt x="587" y="-158" on="1"/>
        <pt x="621" y="-158" on="0"/>
        <pt x="650" y="-152" on="1"/>
        <pt x="650" y="-183" on="1"/>
        <pt x="634" y="-194" on="0"/>
        <pt x="584" y="-211" on="0"/>
        <pt x="547" y="-211" on="1"/>
        <pt x="494" y="-211" on="0"/>
        <pt x="428" y="-172" on="0"/>
        <pt x="428" y="-128" on="1"/>
        <pt x="428" y="-105" on="0"/>
        <pt x="450" y="-66" on="0"/>
        <pt x="487" y="-35" on="0"/>
        <pt x="537" y="-9" on="0"/>
        <pt x="564" y="0" on="1"/>
        <pt x="415" y="0" on="1"/>
        <pt x="427" y="56" on="1"/>
        <pt x="516" y="56" on="1"/>
        <pt x="489" y="232" on="1"/>
        <pt x="225" y="232" on="1"/>
        <pt x="119" y="56" on="1"/>
        <pt x="205" y="56" on="1"/>
      </contour>
      <contour>
        <pt x="260" y="288" on="1"/>
        <pt x="484" y="288" on="1"/>
        <pt x="453" y="519" on="1"/>
        <pt x="450" y="625" on="1"/>
        <pt x="446" y="625" on="1"/>
        <pt x="392" y="517" on="1"/>
      </contour>
    </TTGlyph>
    <TTGlyph name="Aring" xMin="-50" yMin="0" xMax="710" yMax="874">
      <component glyphName="A" x="0" y="0" flags="0x204"/>
      <component glyphName="uniF40C" x="154" y="0" flags="0x4"/>
    </TTGlyph>
    <TTGlyph name="Atilde" xMin="-50" yMin="0" xMax="710" yMax="894">
      <component glyphName="A" x="0" y="0" flags="0x204"/>
      <component glyphName="uniF40D" x="-9" y="0" flags="0x4"/>
    </TTGlyph>
    <TTGlyph name="B" xMin="-21" yMin="-6" xMax="662" yMax="706">
      <contour>
        <pt x="-21" y="0" on="1"/>
        <pt x="-10" y="56" on="1"/>
        <pt x="81" y="56" on="1"/>
        <pt x="206" y="644" on="1"/>
        <pt x="115" y="644" on="1"/>
        <pt x="127" y="700" on="1"/>
        <pt x="256" y="700" on="1"/>
        <pt x="277" y="700" on="0"/>
        <pt x="317" y="702" on="0"/>
        <pt x="361" y="704" on="0"/>
        <pt x="411" y="706" on="0"/>
        <pt x="441" y="706" on="1"/>
        <pt x="486" y="706" on="0"/>
        <pt x="567" y="691" on="0"/>
        <pt x="627" y="657" on="0"/>
        <pt x="662" y="602" on="0"/>
        <pt x="662" y="562" on="1"/>
        <pt x="662" y="484" on="0"/>
        <pt x="560" y="387" on="0"/>
        <pt x="477" y="374" on="1"/>
        <pt x="477" y="370" on="1"/>
        <pt x="502" y="368" on="0"/>
        <pt x="554" y="351" on="0"/>
        <pt x="598" y="315" on="0"/>
        <pt x="626" y="260" on="0"/>
        <pt x="626" y="221" on="1"/>
        <pt x="626" y="165" on="0"/>
        <pt x="574" y="81" on="0"/>
        <pt x="481" y="23" on="0"/>
        <pt x="353" y="-6" on="0"/>
        <pt x="278" y="-6" on="1"/>
        <pt x="239" y="-6" on="0"/>
        <pt x="141" y="0" on="0"/>
        <pt x="96" y="0" on="1"/>
      </contour>
      <contour>
        <pt x="298" y="50" on="1"/>
        <pt x="338" y="50" on="0"/>
        <pt x="414" y="71" on="0"/>
        <pt x="474" y="114" on="0"/>
        <pt x="510" y="178" on="0"/>
        <pt x="510" y="221" on="1"/>
        <pt x="510" y="283" on="0"/>
        <pt x="416" y="330" on="0"/>
        <pt x="334" y="330" on="1"/>
        <pt x="251" y="330" on="1"/>
        <pt x="194" y="59" on="1"/>
        <pt x="208" y="55" on="0"/>
        <pt x="252" y="50" on="0"/>
      </contour>
      <contour>
        <pt x="317" y="383" on="1"/>
        <pt x="337" y="383" on="0"/>
        <pt x="388" y="386" on="0"/>
        <pt x="405" y="388" on="1"/>
        <pt x="447" y="401" on="0"/>
        <pt x="501" y="438" on="0"/>
        <pt x="533" y="482" on="0"/>
        <pt x="546" y="531" on="0"/>
        <pt x="546" y="555" on="1"/>
        <pt x="546" y="596" on="0"/>
        <pt x="489" y="650" on="0"/>
        <pt x="418" y="650" on="1"/>
        <pt x="384" y="650" on="0"/>
        <pt x="335" y="647" on="0"/>
        <pt x="318" y="645" on="1"/>
        <pt x="262" y="383" on="1"/>
      </contour>
    </TTGlyph>
    <TTGlyph name="C" xMin="76" yMin="-12" xMax="710" yMax="712">
      <contour>
        <pt x="559" y="184" on="1"/>
        <pt x="623" y="184" on="1"/>
        <pt x="590" y="27" on="1"/>
        <pt x="573" y="18" on="0"/>
        <pt x="526" y="4" on="0"/>
        <pt x="474" y="-7" on="0"/>
        <pt x="420" y="-12" on="0"/>
        <pt x="395" y="-12" on="1"/>
        <pt x="297" y="-12" on="0"/>
        <pt x="172" y="34" on="0"/>
        <pt x="102" y="109" on="0"/>
        <pt x="76" y="203" on="0"/>
        <pt x="76" y="252" on="1"/>
        <pt x="76" y="352" on="0"/>
        <pt x="136" y="521" on="0"/>
        <pt x="248" y="644" on="0"/>
        <pt x="409" y="712" on="0"/>
        <pt x="511" y="712" on="1"/>
        <pt x="584" y="712" on="0"/>
        <pt x="675" y="691" on="0"/>
        <pt x="710" y="674" on="1"/>
        <pt x="673" y="503" on="1"/>
        <pt x="609" y="503" on="1"/>
        <pt x="632" y="608" on="1"/>
        <pt x="622" y="628" on="1"/>
        <pt x="611" y="633" on="0"/>
        <pt x="559" y="648" on="0"/>
        <pt x="507" y="648" on="1"/>
        <pt x="439" y="648" on="0"/>
        <pt x="327" y="592" on="0"/>
        <pt x="246" y="489" on="0"/>
        <pt x="201" y="344" on="0"/>
        <pt x="201" y="255" on="1"/>
        <pt x="201" y="212" on="0"/>
        <pt x="224" y="138" on="0"/>
        <pt x="275" y="83" on="0"/>
        <pt x="356" y="52" on="0"/>
        <pt x="413" y="52" on="1"/>
        <pt x="449" y="52" on="0"/>
        <pt x="508" y="63" on="0"/>
        <pt x="522" y="72" on="1"/>
        <pt x="540" y="91" on="1"/>
      </contour>
    </TTGlyph>
    <TTGlyph name="Cacute" xMin="76" yMin="-12" xMax="710" yMax="914">
      <component glyphName="C" x="0" y="0" flags="0x204"/>
      <component glyphName="uniF6C9" x="94" y="0" flags="0x4"/>
    </TTGlyph>
    <TTGlyph name="Ccaron" xMin="76" yMin="-12" xMax="725" yMax="919">
      <component glyphName="C" x="0" y="0" flags="0x204"/>
      <component glyphName="uniF6CA" x="115" y="0" flags="0x4"/>
    </TTGlyph>
    <TTGlyph name="Ccedilla" xMin="76" yMin="-232" xMax="710" yMax="712">
      <contour>
        <pt x="559" y="184" on="1"/>
        <pt x="623" y="184" on="1"/>
        <pt x="590" y="27" on="1"/>
        <pt x="574" y="18" on="0"/>
        <pt x="531" y="5" on="0"/>
        <pt x="482" y="-5" on="0"/>
        <pt x="432" y="-11" on="0"/>
        <pt x="408" y="-12" on="1"/>
        <pt x="381" y="-64" on="1"/>
        <pt x="415" y="-65" on="0"/>
        <pt x="456" y="-76" on="0"/>
        <pt x="478" y="-95" on="0"/>
        <pt x="485" y="-120" on="0"/>
        <pt x="485" y="-135" on="1"/>
        <pt x="485" y="-165" on="0"/>
        <pt x="439" y="-203" on="0"/>
        <pt x="370" y="-224" on="0"/>
        <pt x="292" y="-232" on="0"/>
        <pt x="260" y="-232" on="1"/>
        <pt x="260" y="-199" on="1"/>
        <pt x="282" y="-198" on="0"/>
        <pt x="326" y="-193" on="0"/>
        <pt x="361" y="-183" on="0"/>
        <pt x="383" y="-166" on="0"/>
        <pt x="383" y="-152" on="1"/>
        <pt x="383" y="-142" on="0"/>
        <pt x="380" y="-126" on="0"/>
        <pt x="366" y="-115" on="0"/>
        <pt x="338" y="-108" on="0"/>
        <pt x="313" y="-107" on="1"/>
        <pt x="352" y="-10" on="1"/>
        <pt x="267" y="-5" on="0"/>
        <pt x="160" y="43" on="0"/>
        <pt x="99" y="116" on="0"/>
        <pt x="76" y="206" on="0"/>
        <pt x="76" y="252" on="1"/>
        <pt x="76" y="352" on="0"/>
        <pt x="136" y="521" on="0"/>
        <pt x="248" y="644" on="0"/>
        <pt x="409" y="712" on="0"/>
        <pt x="511" y="712" on="1"/>
        <pt x="584" y="712" on="0"/>
        <pt x="675" y="691" on="0"/>
        <pt x="710" y="674" on="1"/>
        <pt x="673" y="503" on="1"/>
        <pt x="609" y="503" on="1"/>
        <pt x="632" y="608" on="1"/>
        <pt x="622" y="628" on="1"/>
        <pt x="611" y="633" on="0"/>
        <pt x="559" y="648" on="0"/>
        <pt x="507" y="648" on="1"/>
        <pt x="439" y="648" on="0"/>
        <pt x="327" y="592" on="0"/>
        <pt x="246" y="489" on="0"/>
        <pt x="201" y="344" on="0"/>
        <pt x="201" y="255" on="1"/>
        <pt x="201" y="212" on="0"/>
        <pt x="224" y="138" on="0"/>
        <pt x="275" y="83" on="0"/>
        <pt x="356" y="52" on="0"/>
        <pt x="413" y="52" on="1"/>
        <pt x="449" y="52" on="0"/>
        <pt x="508" y="63" on="0"/>
        <pt x="522" y="72" on="1"/>
        <pt x="540" y="91" on="1"/>
      </contour>
    </TTGlyph>
    <TTGlyph name="Ccircumflex" xMin="76" yMin="-12" xMax="710" yMax="914">
      <component glyphName="C" x="0" y="0" flags="0x204"/>
      <component glyphName="uniF408" x="123" y="0" flags="0x4"/>
    </TTGlyph>
    <TTGlyph name="D" xMin="-21" yMin="-9" xMax="756" yMax="708">
      <contour>
        <pt x="-21" y="0" on="1"/>
        <pt x="-10" y="56" on="1"/>
        <pt x="81" y="56" on="1"/>
        <pt x="206" y="644" on="1"/>
        <pt x="115" y="644" on="1"/>
        <pt x="127" y="700" on="1"/>
        <pt x="250" y="700" on="1"/>
        <pt x="269" y="700" on="0"/>
        <pt x="321" y="702" on="0"/>
        <pt x="376" y="705" on="0"/>
        <pt x="427" y="708" on="0"/>
        <pt x="444" y="708" on="1"/>
        <pt x="542" y="708" on="0"/>
        <pt x="664" y="663" on="0"/>
        <pt x="732" y="593" on="0"/>
        <pt x="756" y="507" on="0"/>
        <pt x="756" y="465" on="1"/>
        <pt x="756" y="360" on="0"/>
        <pt x="697" y="185" on="0"/>
        <pt x="581" y="60" on="0"/>
        <pt x="409" y="-9" on="0"/>
        <pt x="296" y="-9" on="1"/>
        <pt x="280" y="-9" on="0"/>
        <pt x="233" y="-6" on="0"/>
        <pt x="181" y="-3" on="0"/>
        <pt x="129" y="0" on="0"/>
        <pt x="108" y="0" on="1"/>
      </contour>
      <contour>
        <pt x="417" y="652" on="1"/>
        <pt x="389" y="652" on="0"/>
        <pt x="335" y="650" on="0"/>
        <pt x="319" y="647" on="1"/>
        <pt x="193" y="51" on="1"/>
        <pt x="199" y="50" on="0"/>
        <pt x="227" y="49" on="0"/>
        <pt x="260" y="48" on="0"/>
        <pt x="290" y="47" on="0"/>
        <pt x="296" y="47" on="1"/>
        <pt x="392" y="47" on="0"/>
        <pt x="521" y="121" on="0"/>
        <pt x="598" y="240" on="0"/>
        <pt x="631" y="392" on="0"/>
        <pt x="631" y="470" on="1"/>
        <pt x="631" y="506" on="0"/>
        <pt x="614" y="572" on="0"/>
        <pt x="566" y="622" on="0"/>
        <pt x="483" y="652" on="0"/>
      </contour>
    </TTGlyph>
    <TTGlyph name="Dcaron" xMin="-21" yMin="-9" xMax="756" yMax="919">
      <component glyphName="D" x="0" y="0" flags="0x204"/>
      <component glyphName="uniF6CA" x="59" y="0" flags="0x4"/>
    </TTGlyph>
    <TTGlyph name="Dcroat" xMin="-21" yMin="-9" xMax="756" yMax="708">
      <component glyphName="Eth" x="0" y="0" flags="0x204"/>
    </TTGlyph>
    <TTGlyph name="E" xMin="-21" yMin="0" xMax="659" yMax="700">
      <contour>
        <pt x="659" y="700" on="1"/>
        <pt x="624" y="536" on="1"/>
        <pt x="560" y="536" on="1"/>
        <pt x="579" y="622" on="1"/>
        <pt x="563" y="644" on="1"/>
        <pt x="318" y="644" on="1"/>
        <pt x="263" y="385" on="1"/>
        <pt x="432" y="385" on="1"/>
        <pt x="450" y="400" on="1"/>
        <pt x="459" y="442" on="1"/>
        <pt x="523" y="442" on="1"/>
        <pt x="487" y="271" on="1"/>
        <pt x="423" y="271" on="1"/>
        <pt x="432" y="313" on="1"/>
        <pt x="420" y="329" on="1"/>
        <pt x="251" y="329" on="1"/>
        <pt x="193" y="56" on="1"/>
        <pt x="455" y="56" on="1"/>
        <pt x="479" y="76" on="1"/>
        <pt x="500" y="174" on="1"/>
        <pt x="564" y="174" on="1"/>
        <pt x="527" y="0" on="1"/>
        <pt x="-21" y="0" on="1"/>
        <pt x="-10" y="56" on="1"/>
        <pt x="81" y="56" on="1"/>
        <pt x="206" y="644" on="1"/>
        <pt x="115" y="644" on="1"/>
        <pt x="127" y="700" on="1"/>
      </contour>
    </TTGlyph>
    <TTGlyph name="Eacute" xMin="-21" yMin="0" xMax="659" yMax="914">
      <component glyphName="E" x="0" y="0" flags="0x204"/>
      <component glyphName="uniF6C9" x="22" y="0" flags="0x4"/>
    </TTGlyph>
    <TTGlyph name="Ecaron" xMin="-21" yMin="0" xMax="659" yMax="919">
      <component glyphName="E" x="0" y="0" flags="0x204"/>
      <component glyphName="uniF6CA" x="23" y="0" flags="0x4"/>
    </TTGlyph>
    <TTGlyph name="Ecircumflex" xMin="-21" yMin="0" xMax="659" yMax="914">
      <component glyphName="E" x="0" y="0" flags="0x204"/>
      <component glyphName="uniF408" x="30" y="0" flags="0x4"/>
    </TTGlyph>
    <TTGlyph name="Edieresis" xMin="-21" yMin="0" xMax="659" yMax="854">
      <component glyphName="E" x="0" y="0" flags="0x204"/>
      <component glyphName="uniF6CB" x="31" y="0" flags="0x4"/>
    </TTGlyph>
    <TTGlyph name="Edotaccent" xMin="-21" yMin="0" xMax="659" yMax="880">
      <component glyphName="E" x="0" y="0" flags="0x204"/>
      <component glyphName="uniF40B" x="114" y="0" flags="0x4"/>
    </TTGlyph>
    <TTGlyph name="Egrave" xMin="-21" yMin="0" xMax="659" yMax="914">
      <component glyphName="E" x="0" y="0" flags="0x204"/>
      <component glyphName="uniF6CE" x="157" y="0" flags="0x4"/>
    </TTGlyph>
    <TTGlyph name="Emacron" xMin="-21" yMin="0" xMax="659" yMax="851">
      <component glyphName="E" x="0" y="0" flags="0x204"/>
      <component glyphName="uniF6D0" x="18" y="0" flags="0x4"/>
    </TTGlyph>
    <TTGlyph name="Eogonek" xMin="-21" yMin="-211" xMax="659" yMax="700">
      <contour>
        <pt x="659" y="700" on="1"/>
        <pt x="624" y="536" on="1"/>
        <pt x="560" y="536" on="1"/>
        <pt x="579" y="622" on="1"/>
        <pt x="563" y="644" on="1"/>
        <pt x="318" y="644" on="1"/>
        <pt x="263" y="385" on="1"/>
        <pt x="432" y="385" on="1"/>
        <pt x="450" y="400" on="1"/>
        <pt x="459" y="442" on="1"/>
        <pt x="523" y="442" on="1"/>
        <pt x="487" y="271" on="1"/>
        <pt x="423" y="271" on="1"/>
        <pt x="432" y="313" on="1"/>
        <pt x="420" y="329" on="1"/>
        <pt x="251" y="329" on="1"/>
        <pt x="193" y="56" on="1"/>
        <pt x="455" y="56" on="1"/>
        <pt x="479" y="76" on="1"/>
        <pt x="500" y="174" on="1"/>
        <pt x="564" y="174" on="1"/>
        <pt x="527" y="0" on="1"/>
        <pt x="471" y="0" on="1"/>
        <pt x="421" y="-19" on="0"/>
        <pt x="355" y="-69" on="0"/>
        <pt x="355" y="-110" on="1"/>
        <pt x="355" y="-137" on="0"/>
        <pt x="385" y="-158" on="0"/>
        <pt x="418" y="-158" on="1"/>
        <pt x="452" y="-158" on="0"/>
        <pt x="481" y="-152" on="1"/>
        <pt x="481" y="-183" on="1"/>
        <pt x="465" y="-194" on="0"/>
        <pt x="415" y="-211" on="0"/>
        <pt x="378" y="-211" on="1"/>
        <pt x="325" y="-211" on="0"/>
        <pt x="259" y="-172" on="0"/>
        <pt x="259" y="-128" on="1"/>
        <pt x="259" y="-105" on="0"/>
        <pt x="281" y="-66" on="0"/>
        <pt x="318" y="-35" on="0"/>
        <pt x="368" y="-9" on="0"/>
        <pt x="395" y="0" on="1"/>
        <pt x="-21" y="0" on="1"/>
        <pt x="-10" y="56" on="1"/>
        <pt x="81" y="56" on="1"/>
        <pt x="206" y="644" on="1"/>
        <pt x="115" y="644" on="1"/>
        <pt x="127" y="700" on="1"/>
      </contour>
    </TTGlyph>
    <TTGlyph name="Eth" xMin="-21" yMin="-9" xMax="756" yMax="708">
      <contour>
        <pt x="-21" y="0" on="1"/>
        <pt x="-10" y="56" on="1"/>
        <pt x="81" y="56" on="1"/>
        <pt x="139" y="330" on="1"/>
        <pt x="38" y="330" on="1"/>
        <pt x="49" y="384" on="1"/>
        <pt x="150" y="384" on="1"/>
        <pt x="206" y="644" on="1"/>
        <pt x="115" y="644" on="1"/>
        <pt x="127" y="700" on="1"/>
        <pt x="250" y="700" on="1"/>
        <pt x="269" y="700" on="0"/>
        <pt x="321" y="702" on="0"/>
        <pt x="376" y="705" on="0"/>
        <pt x="427" y="708" on="0"/>
        <pt x="444" y="708" on="1"/>
        <pt x="542" y="708" on="0"/>
        <pt x="664" y="663" on="0"/>
        <pt x="732" y="593" on="0"/>
        <pt x="756" y="507" on="0"/>
        <pt x="756" y="465" on="1"/>
        <pt x="756" y="360" on="0"/>
        <pt x="697" y="185" on="0"/>
        <pt x="581" y="60" on="0"/>
        <pt x="409" y="-9" on="0"/>
        <pt x="296" y="-9" on="1"/>
        <pt x="280" y="-9" on="0"/>
        <pt x="233" y="-6" on="0"/>
        <pt x="181" y="-3" on="0"/>
        <pt x="129" y="0" on="0"/>
        <pt x="108" y="0" on="1"/>
      </contour>
      <contour>
        <pt x="417" y="652" on="1"/>
        <pt x="389" y="652" on="0"/>
        <pt x="335" y="650" on="0"/>
        <pt x="319" y="647" on="1"/>
        <pt x="263" y="384" on="1"/>
        <pt x="440" y="384" on="1"/>
        <pt x="429" y="330" on="1"/>
        <pt x="251" y="330" on="1"/>
        <pt x="192" y="51" on="1"/>
        <pt x="198" y="50" on="0"/>
        <pt x="227" y="49" on="0"/>
        <pt x="260" y="48" on="0"/>
        <pt x="290" y="47" on="0"/>
        <pt x="296" y="47" on="1"/>
        <pt x="392" y="47" on="0"/>
        <pt x="521" y="121" on="0"/>
        <pt x="598" y="240" on="0"/>
        <pt x="631" y="392" on="0"/>
        <pt x="631" y="470" on="1"/>
        <pt x="631" y="506" on="0"/>
        <pt x="614" y="572" on="0"/>
        <pt x="566" y="622" on="0"/>
        <pt x="483" y="652" on="0"/>
      </contour>
    </TTGlyph>
    <TTGlyph name="Euro" xMin="-42" yMin="-12" xMax="671" yMax="712">
      <contour>
        <pt x="173" y="383" on="1"/>
        <pt x="169" y="366" on="0"/>
        <pt x="165" y="332" on="0"/>
        <pt x="163" y="314" on="1"/>
        <pt x="473" y="314" on="1"/>
        <pt x="444" y="257" on="1"/>
        <pt x="161" y="257" on="1"/>
        <pt x="161" y="215" on="0"/>
        <pt x="184" y="140" on="0"/>
        <pt x="235" y="84" on="0"/>
        <pt x="315" y="52" on="0"/>
        <pt x="372" y="52" on="1"/>
        <pt x="408" y="52" on="0"/>
        <pt x="467" y="63" on="0"/>
        <pt x="481" y="72" on="1"/>
        <pt x="499" y="91" on="1"/>
        <pt x="518" y="184" on="1"/>
        <pt x="582" y="184" on="1"/>
        <pt x="549" y="27" on="1"/>
        <pt x="532" y="18" on="0"/>
        <pt x="485" y="4" on="0"/>
        <pt x="433" y="-7" on="0"/>
        <pt x="379" y="-12" on="0"/>
        <pt x="354" y="-12" on="1"/>
        <pt x="256" y="-12" on="0"/>
        <pt x="139" y="38" on="0"/>
        <pt x="77" y="117" on="0"/>
        <pt x="57" y="212" on="0"/>
        <pt x="57" y="257" on="1"/>
        <pt x="-42" y="257" on="1"/>
        <pt x="-14" y="314" on="1"/>
        <pt x="59" y="314" on="1"/>
        <pt x="61" y="331" on="0"/>
        <pt x="66" y="366" on="0"/>
        <pt x="69" y="383" on="1"/>
        <pt x="-16" y="383" on="1"/>
        <pt x="13" y="440" on="1"/>
        <pt x="85" y="440" on="1"/>
        <pt x="106" y="501" on="0"/>
        <pt x="176" y="602" on="0"/>
        <pt x="274" y="673" on="0"/>
        <pt x="397" y="712" on="0"/>
        <pt x="470" y="712" on="1"/>
        <pt x="543" y="712" on="0"/>
        <pt x="636" y="691" on="0"/>
        <pt x="671" y="674" on="1"/>
        <pt x="634" y="503" on="1"/>
        <pt x="570" y="503" on="1"/>
        <pt x="593" y="608" on="1"/>
        <pt x="583" y="628" on="1"/>
        <pt x="572" y="633" on="0"/>
        <pt x="518" y="648" on="0"/>
        <pt x="466" y="648" on="1"/>
        <pt x="363" y="648" on="0"/>
        <pt x="221" y="538" on="0"/>
        <pt x="188" y="440" on="1"/>
        <pt x="538" y="440" on="1"/>
        <pt x="509" y="383" on="1"/>
      </contour>
    </TTGlyph>
    <TTGlyph name="F" xMin="-21" yMin="0" xMax="658" yMax="700">
      <contour>
        <pt x="183" y="56" on="1"/>
        <pt x="290" y="56" on="1"/>
        <pt x="278" y="0" on="1"/>
        <pt x="-21" y="0" on="1"/>
        <pt x="-10" y="56" on="1"/>
        <pt x="71" y="56" on="1"/>
        <pt x="196" y="644" on="1"/>
        <pt x="115" y="644" on="1"/>
        <pt x="127" y="700" on="1"/>
        <pt x="658" y="700" on="1"/>
        <pt x="623" y="536" on="1"/>
        <pt x="559" y="536" on="1"/>
        <pt x="578" y="622" on="1"/>
        <pt x="562" y="644" on="1"/>
        <pt x="308" y="644" on="1"/>
        <pt x="250" y="370" on="1"/>
        <pt x="431" y="370" on="1"/>
        <pt x="449" y="385" on="1"/>
        <pt x="459" y="433" on="1"/>
        <pt x="523" y="433" on="1"/>
        <pt x="523" y="433" on="0"/>
        <pt x="517" y="406" on="0"/>
        <pt x="509" y="365" on="0"/>
        <pt x="499" y="318" on="0"/>
        <pt x="490" y="277" on="0"/>
        <pt x="484" y="250" on="0"/>
        <pt x="484" y="250" on="1"/>
        <pt x="420" y="250" on="1"/>
        <pt x="431" y="298" on="1"/>
        <pt x="419" y="314" on="1"/>
        <pt x="238" y="314" on="1"/>
      </contour>
    </TTGlyph>
    <TTGlyph name="G" xMin="76" yMin="-12" xMax="747" yMax="712">
      <contour>
        <pt x="617" y="48" on="1"/>
        <pt x="568" y="19" on="0"/>
        <pt x="442" y="-12" on="0"/>
        <pt x="385" y="-12" on="1"/>
        <pt x="292" y="-12" on="0"/>
        <pt x="172" y="35" on="0"/>
        <pt x="103" y="110" on="0"/>
        <pt x="76" y="205" on="0"/>
        <pt x="76" y="254" on="1"/>
        <pt x="76" y="354" on="0"/>
        <pt x="135" y="522" on="0"/>
        <pt x="246" y="644" on="0"/>
        <pt x="406" y="712" on="0"/>
        <pt x="508" y="712" on="1"/>
        <pt x="582" y="712" on="0"/>
        <pt x="684" y="691" on="0"/>
        <pt x="719" y="674" on="1"/>
        <pt x="719" y="674" on="0"/>
        <pt x="716" y="659" on="0"/>
        <pt x="710" y="635" on="0"/>
        <pt x="703" y="604" on="0"/>
        <pt x="700" y="588" on="1"/>
        <pt x="692" y="550" on="0"/>
        <pt x="682" y="503" on="1"/>
        <pt x="618" y="503" on="1"/>
        <pt x="641" y="608" on="1"/>
        <pt x="631" y="628" on="1"/>
        <pt x="623" y="633" on="0"/>
        <pt x="593" y="641" on="0"/>
        <pt x="559" y="646" on="0"/>
        <pt x="523" y="648" on="0"/>
        <pt x="509" y="648" on="1"/>
        <pt x="435" y="648" on="0"/>
        <pt x="320" y="585" on="0"/>
        <pt x="242" y="478" on="0"/>
        <pt x="201" y="336" on="0"/>
        <pt x="201" y="257" on="1"/>
        <pt x="201" y="219" on="0"/>
        <pt x="219" y="145" on="0"/>
        <pt x="266" y="87" on="0"/>
        <pt x="347" y="52" on="0"/>
        <pt x="410" y="52" on="1"/>
        <pt x="443" y="52" on="0"/>
        <pt x="485" y="61" on="0"/>
        <pt x="505" y="68" on="1"/>
        <pt x="524" y="86" on="1"/>
        <pt x="564" y="275" on="1"/>
        <pt x="458" y="275" on="1"/>
        <pt x="470" y="331" on="1"/>
        <pt x="747" y="331" on="1"/>
        <pt x="735" y="275" on="1"/>
        <pt x="665" y="275" on="1"/>
      </contour>
    </TTGlyph>
    <TTGlyph name="Gbreve" xMin="76" yMin="-12" xMax="747" yMax="905">
      <component glyphName="G" x="0" y="0" flags="0x204"/>
      <component glyphName="uniF406" x="158" y="0" flags="0x4"/>
    </TTGlyph>
    <TTGlyph name="Gcircumflex" xMin="76" yMin="-12" xMax="747" yMax="914">
      <component glyphName="G" x="0" y="0" flags="0x204"/>
      <component glyphName="uniF408" x="120" y="0" flags="0x4"/>
    </TTGlyph>
    <TTGlyph name="Gcommaaccent" xMin="76" yMin="-280" xMax="747" yMax="712">
      <component glyphName="G" x="0" y="0" flags="0x204"/>
      <component glyphName="uniF409" x="226" y="0" flags="0x4"/>
    </TTGlyph>
    <TTGlyph name="H" xMin="-21" yMin="0" xMax="883" yMax="700">
      <contour>
        <pt x="276" y="56" on="1"/>
        <pt x="264" y="0" on="1"/>
        <pt x="-21" y="0" on="1"/>
        <pt x="-10" y="56" on="1"/>
        <pt x="81" y="56" on="1"/>
        <pt x="206" y="644" on="1"/>
        <pt x="115" y="644" on="1"/>
        <pt x="127" y="700" on="1"/>
        <pt x="413" y="700" on="1"/>
        <pt x="401" y="644" on="1"/>
        <pt x="318" y="644" on="1"/>
        <pt x="264" y="387" on="1"/>
        <pt x="614" y="387" on="1"/>
        <pt x="668" y="644" on="1"/>
        <pt x="585" y="644" on="1"/>
        <pt x="597" y="700" on="1"/>
        <pt x="883" y="700" on="1"/>
        <pt x="871" y="644" on="1"/>
        <pt x="780" y="644" on="1"/>
        <pt x="655" y="56" on="1"/>
        <pt x="746" y="56" on="1"/>
        <pt x="734" y="0" on="1"/>
        <pt x="449" y="0" on="1"/>
        <pt x="460" y="56" on="1"/>
        <pt x="543" y="56" on="1"/>
        <pt x="602" y="331" on="1"/>
        <pt x="252" y="331" on="1"/>
        <pt x="193" y="56" on="1"/>
      </contour>
    </TTGlyph>
    <TTGlyph name="Hbar" xMin="-21" yMin="0" xMax="883" yMax="700">
      <contour>
        <pt x="101" y="560" on="1"/>
        <pt x="188" y="560" on="1"/>
        <pt x="206" y="644" on="1"/>
        <pt x="115" y="644" on="1"/>
        <pt x="127" y="700" on="1"/>
        <pt x="413" y="700" on="1"/>
        <pt x="401" y="644" on="1"/>
        <pt x="318" y="644" on="1"/>
        <pt x="300" y="560" on="1"/>
        <pt x="650" y="560" on="1"/>
        <pt x="668" y="644" on="1"/>
        <pt x="585" y="644" on="1"/>
        <pt x="597" y="700" on="1"/>
        <pt x="883" y="700" on="1"/>
        <pt x="871" y="644" on="1"/>
        <pt x="780" y="644" on="1"/>
        <pt x="762" y="560" on="1"/>
        <pt x="853" y="560" on="1"/>
        <pt x="841" y="506" on="1"/>
        <pt x="750" y="506" on="1"/>
        <pt x="655" y="56" on="1"/>
        <pt x="746" y="56" on="1"/>
        <pt x="734" y="0" on="1"/>
        <pt x="448" y="0" on="1"/>
        <pt x="460" y="56" on="1"/>
        <pt x="543" y="56" on="1"/>
        <pt x="602" y="331" on="1"/>
        <pt x="252" y="331" on="1"/>
        <pt x="193" y="56" on="1"/>
        <pt x="276" y="56" on="1"/>
        <pt x="264" y="0" on="1"/>
        <pt x="-21" y="0" on="1"/>
        <pt x="-10" y="56" on="1"/>
        <pt x="81" y="56" on="1"/>
        <pt x="176" y="506" on="1"/>
        <pt x="89" y="506" on="1"/>
      </contour>
      <contour>
        <pt x="614" y="387" on="1"/>
        <pt x="639" y="506" on="1"/>
        <pt x="289" y="506" on="1"/>
        <pt x="264" y="387" on="1"/>
      </contour>
    </TTGlyph>
    <TTGlyph name="Hcircumflex" xMin="-21" yMin="0" xMax="883" yMax="914">
      <component glyphName="H" x="0" y="0" flags="0x204"/>
      <component glyphName="uniF408" x="115" y="0" flags="0x4"/>
    </TTGlyph>
    <TTGlyph name="I" xMin="-1" yMin="0" xMax="442" yMax="700">
      <contour>
        <pt x="293" y="0" on="1"/>
        <pt x="-1" y="0" on="1"/>
        <pt x="11" y="56" on="1"/>
        <pt x="102" y="56" on="1"/>
        <pt x="227" y="644" on="1"/>
        <pt x="136" y="644" on="1"/>
        <pt x="148" y="700" on="1"/>
        <pt x="442" y="700" on="1"/>
        <pt x="430" y="644" on="1"/>
        <pt x="339" y="644" on="1"/>
        <pt x="214" y="56" on="1"/>
        <pt x="305" y="56" on="1"/>
      </contour>
    </TTGlyph>
    <TTGlyph name="Iacute" xMin="-1" yMin="0" xMax="524" yMax="914">
      <component glyphName="I" x="0" y="0" flags="0x204"/>
      <component glyphName="uniF6C9" x="-72" y="0" flags="0x4"/>
    </TTGlyph>
    <TTGlyph name="Icircumflex" xMin="-1" yMin="0" xMax="477" yMax="914">
      <component glyphName="I" x="0" y="0" flags="0x204"/>
      <component glyphName="uniF408" x="-102" y="0" flags="0x4"/>
    </TTGlyph>
    <TTGlyph name="Idieresis" xMin="-1" yMin="0" xMax="482" yMax="854">
      <component glyphName="I" x="0" y="0" flags="0x204"/>
      <component glyphName="uniF6CB" x="-104" y="0" flags="0x4"/>
    </TTGlyph>
    <TTGlyph name="Idotaccent" xMin="-1" yMin="0" xMax="442" yMax="880">
      <component glyphName="I" x="0" y="0" flags="0x204"/>
      <component glyphName="uniF40B" x="-8" y="0" flags="0x4"/>
    </TTGlyph>
    <TTGlyph name="Igrave" xMin="-1" yMin="0" xMax="442" yMax="914">
      <component glyphName="I" x="0" y="0" flags="0x204"/>
      <component glyphName="uniF6CE" x="65" y="0" flags="0x4"/>
    </TTGlyph>
    <TTGlyph name="Imacron" xMin="-1" yMin="0" xMax="484" yMax="851">
      <component glyphName="I" x="0" y="0" flags="0x204"/>
      <component glyphName="uniF6D0" x="-88" y="0" flags="0x4"/>
    </TTGlyph>
    <TTGlyph name="Iogonek" xMin="-1" yMin="-211" xMax="442" yMax="700">
      <contour>
        <pt x="293" y="0" on="1"/>
        <pt x="237" y="0" on="1"/>
        <pt x="187" y="-19" on="0"/>
        <pt x="121" y="-69" on="0"/>
        <pt x="121" y="-110" on="1"/>
        <pt x="121" y="-137" on="0"/>
        <pt x="151" y="-158" on="0"/>
        <pt x="184" y="-158" on="1"/>
        <pt x="218" y="-158" on="0"/>
        <pt x="247" y="-152" on="1"/>
        <pt x="247" y="-183" on="1"/>
        <pt x="231" y="-194" on="0"/>
        <pt x="181" y="-211" on="0"/>
        <pt x="144" y="-211" on="1"/>
        <pt x="91" y="-211" on="0"/>
        <pt x="25" y="-172" on="0"/>
        <pt x="25" y="-128" on="1"/>
        <pt x="25" y="-105" on="0"/>
        <pt x="47" y="-66" on="0"/>
        <pt x="84" y="-35" on="0"/>
        <pt x="134" y="-9" on="0"/>
        <pt x="161" y="0" on="1"/>
        <pt x="-1" y="0" on="1"/>
        <pt x="11" y="56" on="1"/>
        <pt x="102" y="56" on="1"/>
        <pt x="227" y="644" on="1"/>
        <pt x="136" y="644" on="1"/>
        <pt x="148" y="700" on="1"/>
        <pt x="442" y="700" on="1"/>
        <pt x="430" y="644" on="1"/>
        <pt x="339" y="644" on="1"/>
        <pt x="214" y="56" on="1"/>
        <pt x="305" y="56" on="1"/>
      </contour>
    </TTGlyph>
    <TTGlyph name="J" xMin="-41" yMin="-160" xMax="423" yMax="700">
      <contour>
        <pt x="-41" y="-113" on="1"/>
        <pt x="-23" y="-105" on="0"/>
        <pt x="14" y="-80" on="0"/>
        <pt x="47" y="-37" on="0"/>
        <pt x="76" y="29" on="0"/>
        <pt x="87" y="78" on="1"/>
        <pt x="208" y="644" on="1"/>
        <pt x="125" y="644" on="1"/>
        <pt x="137" y="700" on="1"/>
        <pt x="423" y="700" on="1"/>
        <pt x="411" y="644" on="1"/>
        <pt x="320" y="644" on="1"/>
        <pt x="202" y="88" on="1"/>
        <pt x="187" y="17" on="0"/>
        <pt x="130" y="-75" on="0"/>
        <pt x="64" y="-129" on="0"/>
        <pt x="-3" y="-155" on="0"/>
        <pt x="-28" y="-160" on="1"/>
      </contour>
    </TTGlyph>
    <TTGlyph name="Jcircumflex" xMin="-41" yMin="-160" xMax="468" yMax="914">
      <component glyphName="J" x="0" y="0" flags="0x204"/>
      <component glyphName="uniF408" x="-111" y="0" flags="0x4"/>
    </TTGlyph>
    <TTGlyph name="K" xMin="-21" yMin="0" xMax="776" yMax="700">
      <contour>
        <pt x="323" y="382" on="1"/>
        <pt x="592" y="644" on="1"/>
        <pt x="511" y="644" on="1"/>
        <pt x="523" y="700" on="1"/>
        <pt x="776" y="700" on="1"/>
        <pt x="764" y="644" on="1"/>
        <pt x="685" y="644" on="1"/>
        <pt x="395" y="380" on="1"/>
        <pt x="600" y="56" on="1"/>
        <pt x="663" y="56" on="1"/>
        <pt x="651" y="0" on="1"/>
        <pt x="501" y="0" on="1"/>
        <pt x="312" y="332" on="1"/>
        <pt x="252" y="332" on="1"/>
        <pt x="193" y="56" on="1"/>
        <pt x="276" y="56" on="1"/>
        <pt x="264" y="0" on="1"/>
        <pt x="-21" y="0" on="1"/>
        <pt x="-10" y="56" on="1"/>
        <pt x="81" y="56" on="1"/>
        <pt x="206" y="644" on="1"/>
        <pt x="115" y="644" on="1"/>
        <pt x="127" y="700" on="1"/>
        <pt x="413" y="700" on="1"/>
        <pt x="401" y="644" on="1"/>
        <pt x="318" y="644" on="1"/>
        <pt x="262" y="382" on="1"/>
      </contour>
    </TTGlyph>
    <TTGlyph name="Kcommaaccent" xMin="-21" yMin="-280" xMax="776" yMax="700">
      <component glyphName="K" x="0" y="0" flags="0x204"/>
      <component glyphName="uniF409" x="171" y="0" flags="0x4"/>
    </TTGlyph>
    <TTGlyph name="L" xMin="-21" yMin="0" xMax="585" yMax="700">
      <contour>
        <pt x="115" y="644" on="1"/>
        <pt x="127" y="700" on="1"/>
        <pt x="438" y="700" on="1"/>
        <pt x="426" y="644" on="1"/>
        <pt x="318" y="644" on="1"/>
        <pt x="193" y="56" on="1"/>
        <pt x="459" y="56" on="1"/>
        <pt x="484" y="78" on="1"/>
        <pt x="513" y="216" on="1"/>
        <pt x="585" y="216" on="1"/>
        <pt x="539" y="0" on="1"/>
        <pt x="-21" y="0" on="1"/>
        <pt x="-10" y="56" on="1"/>
        <pt x="81" y="56" on="1"/>
        <pt x="206" y="644" on="1"/>
      </contour>
    </TTGlyph>
    <TTGlyph name="Lacute" xMin="-21" yMin="0" xMax="585" yMax="914">
      <component glyphName="L" x="0" y="0" flags="0x204"/>
      <component glyphName="uniF6C9" x="-52" y="0" flags="0x4"/>
    </TTGlyph>
    <TTGlyph name="Lcaron" xMin="-21" yMin="0" xMax="636" yMax="700">
      <component glyphName="L" x="0" y="0" flags="0x204"/>
      <component glyphName="caron.L" x="89" y="0" flags="0x4"/>
    </TTGlyph>
    <TTGlyph name="Lcommaaccent" xMin="-21" yMin="-280" xMax="585" yMax="700">
      <component glyphName="L" x="0" y="0" flags="0x204"/>
      <component glyphName="uniF409" x="125" y="0" flags="0x4"/>
    </TTGlyph>
    <TTGlyph name="Lslash" xMin="-21" yMin="0" xMax="585" yMax="700">
      <contour>
        <pt x="115" y="644" on="1"/>
        <pt x="127" y="700" on="1"/>
        <pt x="438" y="700" on="1"/>
        <pt x="426" y="644" on="1"/>
        <pt x="318" y="644" on="1"/>
        <pt x="266" y="398" on="1"/>
        <pt x="445" y="487" on="1"/>
        <pt x="429" y="410" on="1"/>
        <pt x="249" y="322" on="1"/>
        <pt x="193" y="56" on="1"/>
        <pt x="459" y="56" on="1"/>
        <pt x="484" y="78" on="1"/>
        <pt x="513" y="216" on="1"/>
        <pt x="585" y="216" on="1"/>
        <pt x="539" y="0" on="1"/>
        <pt x="-21" y="0" on="1"/>
        <pt x="-10" y="56" on="1"/>
        <pt x="81" y="56" on="1"/>
        <pt x="124" y="260" on="1"/>
        <pt x="20" y="209" on="1"/>
        <pt x="36" y="285" on="1"/>
        <pt x="140" y="336" on="1"/>
        <pt x="206" y="644" on="1"/>
      </contour>
    </TTGlyph>
    <TTGlyph name="M" xMin="-21" yMin="0" xMax="1047" yMax="700">
      <contour>
        <pt x="115" y="644" on="1"/>
        <pt x="127" y="700" on="1"/>
        <pt x="354" y="700" on="1"/>
        <pt x="493" y="259" on="1"/>
        <pt x="829" y="700" on="1"/>
        <pt x="1047" y="700" on="1"/>
        <pt x="1035" y="644" on="1"/>
        <pt x="944" y="644" on="1"/>
        <pt x="819" y="56" on="1"/>
        <pt x="910" y="56" on="1"/>
        <pt x="898" y="0" on="1"/>
        <pt x="608" y="0" on="1"/>
        <pt x="620" y="56" on="1"/>
        <pt x="711" y="56" on="1"/>
        <pt x="806" y="502" on="1"/>
        <pt x="807" y="505" on="0"/>
        <pt x="817" y="542" on="0"/>
        <pt x="822" y="563" on="1"/>
        <pt x="836" y="619" on="1"/>
        <pt x="827" y="619" on="1"/>
        <pt x="761" y="512" on="1"/>
        <pt x="479" y="150" on="1"/>
        <pt x="418" y="150" on="1"/>
        <pt x="295" y="512" on="1"/>
        <pt x="276" y="629" on="1"/>
        <pt x="266" y="629" on="1"/>
        <pt x="254" y="569" on="1"/>
        <pt x="249" y="546" on="0"/>
        <pt x="241" y="506" on="0"/>
        <pt x="240" y="502" on="1"/>
        <pt x="145" y="56" on="1"/>
        <pt x="230" y="56" on="1"/>
        <pt x="218" y="0" on="1"/>
        <pt x="-21" y="0" on="1"/>
        <pt x="-10" y="56" on="1"/>
        <pt x="81" y="56" on="1"/>
        <pt x="206" y="644" on="1"/>
      </contour>
    </TTGlyph>
    <TTGlyph name="N" xMin="-21" yMin="-12" xMax="883" yMax="700">
      <contour>
        <pt x="640" y="700" on="1"/>
        <pt x="883" y="700" on="1"/>
        <pt x="871" y="644" on="1"/>
        <pt x="780" y="644" on="1"/>
        <pt x="640" y="-12" on="1"/>
        <pt x="583" y="-12" on="1"/>
        <pt x="281" y="537" on="1"/>
        <pt x="257" y="614" on="1"/>
        <pt x="253" y="614" on="1"/>
        <pt x="248" y="536" on="1"/>
        <pt x="146" y="56" on="1"/>
        <pt x="233" y="56" on="1"/>
        <pt x="221" y="0" on="1"/>
        <pt x="-21" y="0" on="1"/>
        <pt x="-10" y="56" on="1"/>
        <pt x="81" y="56" on="1"/>
        <pt x="206" y="644" on="1"/>
        <pt x="115" y="644" on="1"/>
        <pt x="127" y="700" on="1"/>
        <pt x="318" y="700" on="1"/>
        <pt x="576" y="226" on="1"/>
        <pt x="610" y="143" on="1"/>
        <pt x="615" y="143" on="1"/>
        <pt x="627" y="229" on="1"/>
        <pt x="715" y="644" on="1"/>
        <pt x="628" y="644" on="1"/>
      </contour>
    </TTGlyph>
    <TTGlyph name="Nacute" xMin="-21" yMin="-12" xMax="883" yMax="914">
      <component glyphName="N" x="0" y="0" flags="0x204"/>
      <component glyphName="uniF6C9" x="122" y="0" flags="0x4"/>
    </TTGlyph>
    <TTGlyph name="Ncaron" xMin="-21" yMin="-12" xMax="883" yMax="919">
      <component glyphName="N" x="0" y="0" flags="0x204"/>
      <component glyphName="uniF6CA" x="125" y="0" flags="0x4"/>
    </TTGlyph>
    <TTGlyph name="Ncommaaccent" xMin="-21" yMin="-280" xMax="883" yMax="700">
      <component glyphName="N" x="0" y="0" flags="0x204"/>
      <component glyphName="uniF409" x="213" y="0" flags="0x4"/>
    </TTGlyph>
    <TTGlyph name="Ntilde" xMin="-21" yMin="-12" xMax="883" yMax="894">
      <component glyphName="N" x="0" y="0" flags="0x204"/>
      <component glyphName="uniF40D" x="15" y="0" flags="0x4"/>
    </TTGlyph>
    <TTGlyph name="O" xMin="76" yMin="-12" xMax="802" yMax="712">
      <contour>
        <pt x="76" y="283" on="1"/>
        <pt x="76" y="364" on="0"/>
        <pt x="127" y="519" on="0"/>
        <pt x="232" y="639" on="0"/>
        <pt x="392" y="712" on="0"/>
        <pt x="500" y="712" on="1"/>
        <pt x="567" y="712" on="0"/>
        <pt x="679" y="673" on="0"/>
        <pt x="758" y="599" on="0"/>
        <pt x="802" y="495" on="0"/>
        <pt x="802" y="431" on="1"/>
        <pt x="802" y="351" on="0"/>
        <pt x="758" y="192" on="0"/>
        <pt x="660" y="66" on="0"/>
        <pt x="506" y="-12" on="0"/>
        <pt x="397" y="-12" on="1"/>
        <pt x="338" y="-12" on="0"/>
        <pt x="224" y="22" on="0"/>
        <pt x="132" y="94" on="0"/>
        <pt x="76" y="205" on="0"/>
      </contour>
      <contour>
        <pt x="201" y="282" on="1"/>
        <pt x="201" y="218" on="0"/>
        <pt x="236" y="128" on="0"/>
        <pt x="293" y="71" on="0"/>
        <pt x="367" y="44" on="0"/>
        <pt x="405" y="44" on="1"/>
        <pt x="483" y="44" on="0"/>
        <pt x="587" y="115" on="0"/>
        <pt x="650" y="227" on="0"/>
        <pt x="677" y="364" on="0"/>
        <pt x="677" y="430" on="1"/>
        <pt x="677" y="541" on="0"/>
        <pt x="571" y="656" on="0"/>
        <pt x="475" y="656" on="1"/>
        <pt x="404" y="656" on="0"/>
        <pt x="300" y="590" on="0"/>
        <pt x="233" y="484" on="0"/>
        <pt x="201" y="350" on="0"/>
      </contour>
    </TTGlyph>
    <TTGlyph name="OE" xMin="76" yMin="-12" xMax="1076" yMax="712">
      <contour>
        <pt x="507" y="712" on="1"/>
        <pt x="533" y="712" on="0"/>
        <pt x="608" y="706" on="0"/>
        <pt x="638" y="700" on="1"/>
        <pt x="1076" y="700" on="1"/>
        <pt x="1041" y="536" on="1"/>
        <pt x="977" y="536" on="1"/>
        <pt x="996" y="622" on="1"/>
        <pt x="980" y="644" on="1"/>
        <pt x="738" y="644" on="1"/>
        <pt x="683" y="385" on="1"/>
        <pt x="852" y="385" on="1"/>
        <pt x="870" y="400" on="1"/>
        <pt x="879" y="442" on="1"/>
        <pt x="943" y="442" on="1"/>
        <pt x="907" y="271" on="1"/>
        <pt x="843" y="271" on="1"/>
        <pt x="852" y="313" on="1"/>
        <pt x="840" y="329" on="1"/>
        <pt x="671" y="329" on="1"/>
        <pt x="613" y="56" on="1"/>
        <pt x="875" y="56" on="1"/>
        <pt x="899" y="76" on="1"/>
        <pt x="920" y="174" on="1"/>
        <pt x="984" y="174" on="1"/>
        <pt x="947" y="0" on="1"/>
        <pt x="490" y="0" on="1"/>
        <pt x="461" y="-6" on="0"/>
        <pt x="391" y="-12" on="0"/>
        <pt x="360" y="-12" on="1"/>
        <pt x="308" y="-12" on="0"/>
        <pt x="206" y="17" on="0"/>
        <pt x="126" y="84" on="0"/>
        <pt x="76" y="194" on="0"/>
        <pt x="76" y="274" on="1"/>
        <pt x="76" y="379" on="0"/>
        <pt x="145" y="542" on="0"/>
        <pt x="263" y="654" on="0"/>
        <pt x="420" y="712" on="0"/>
      </contour>
      <contour>
        <pt x="385" y="42" on="1"/>
        <pt x="446" y="42" on="0"/>
        <pt x="502" y="62" on="1"/>
        <pt x="624" y="633" on="1"/>
        <pt x="598" y="644" on="0"/>
        <pt x="530" y="658" on="0"/>
        <pt x="492" y="658" on="1"/>
        <pt x="424" y="658" on="0"/>
        <pt x="316" y="593" on="0"/>
        <pt x="241" y="484" on="0"/>
        <pt x="201" y="342" on="0"/>
        <pt x="201" y="265" on="1"/>
        <pt x="201" y="201" on="0"/>
        <pt x="232" y="116" on="0"/>
        <pt x="283" y="64" on="0"/>
        <pt x="350" y="42" on="0"/>
      </contour>
    </TTGlyph>
    <TTGlyph name="Oacute" xMin="76" yMin="-12" xMax="802" yMax="914">
      <component glyphName="O" x="0" y="0" flags="0x204"/>
      <component glyphName="uniF6C9" x="39" y="0" flags="0x4"/>
    </TTGlyph>
    <TTGlyph name="Ocircumflex" xMin="76" yMin="-12" xMax="802" yMax="914">
      <component glyphName="O" x="0" y="0" flags="0x204"/>
      <component glyphName="uniF408" x="106" y="0" flags="0x4"/>
    </TTGlyph>
    <TTGlyph name="Odieresis" xMin="76" yMin="-12" xMax="802" yMax="854">
      <component glyphName="O" x="0" y="0" flags="0x204"/>
      <component glyphName="uniF6CB" x="97" y="0" flags="0x4"/>
    </TTGlyph>
    <TTGlyph name="Ograve" xMin="76" yMin="-12" xMax="802" yMax="914">
      <component glyphName="O" x="0" y="0" flags="0x204"/>
      <component glyphName="uniF6CE" x="254" y="0" flags="0x4"/>
    </TTGlyph>
    <TTGlyph name="Ohungarumlaut" xMin="76" yMin="-12" xMax="802" yMax="908">
      <component glyphName="O" x="0" y="0" flags="0x204"/>
      <component glyphName="uniF6CF" x="140" y="0" flags="0x4"/>
    </TTGlyph>
    <TTGlyph name="Omacron" xMin="76" yMin="-12" xMax="802" yMax="851">
      <component glyphName="O" x="0" y="0" flags="0x204"/>
      <component glyphName="uniF6D0" x="102" y="0" flags="0x4"/>
    </TTGlyph>
    <TTGlyph name="Oslash" xMin="76" yMin="-57" xMax="822" yMax="743">
      <contour>
        <pt x="76" y="283" on="1"/>
        <pt x="76" y="364" on="0"/>
        <pt x="127" y="519" on="0"/>
        <pt x="232" y="639" on="0"/>
        <pt x="392" y="712" on="0"/>
        <pt x="500" y="712" on="1"/>
        <pt x="559" y="712" on="0"/>
        <pt x="659" y="682" on="0"/>
        <pt x="697" y="653" on="1"/>
        <pt x="779" y="743" on="1"/>
        <pt x="822" y="706" on="1"/>
        <pt x="738" y="615" on="1"/>
        <pt x="769" y="580" on="0"/>
        <pt x="802" y="487" on="0"/>
        <pt x="802" y="431" on="1"/>
        <pt x="802" y="351" on="0"/>
        <pt x="758" y="192" on="0"/>
        <pt x="660" y="66" on="0"/>
        <pt x="506" y="-12" on="0"/>
        <pt x="397" y="-12" on="1"/>
        <pt x="347" y="-12" on="0"/>
        <pt x="250" y="11" on="0"/>
        <pt x="208" y="37" on="1"/>
        <pt x="122" y="-57" on="1"/>
        <pt x="82" y="-18" on="1"/>
        <pt x="163" y="70" on="1"/>
        <pt x="123" y="106" on="0"/>
        <pt x="76" y="211" on="0"/>
      </contour>
      <contour>
        <pt x="201" y="282" on="1"/>
        <pt x="201" y="199" on="0"/>
        <pt x="230" y="144" on="1"/>
        <pt x="634" y="585" on="1"/>
        <pt x="580" y="656" on="0"/>
        <pt x="475" y="656" on="1"/>
        <pt x="404" y="656" on="0"/>
        <pt x="300" y="590" on="0"/>
        <pt x="233" y="484" on="0"/>
        <pt x="201" y="350" on="0"/>
      </contour>
      <contour>
        <pt x="677" y="430" on="1"/>
        <pt x="677" y="487" on="0"/>
        <pt x="662" y="531" on="1"/>
        <pt x="264" y="99" on="1"/>
        <pt x="293" y="70" on="0"/>
        <pt x="367" y="44" on="0"/>
        <pt x="405" y="44" on="1"/>
        <pt x="483" y="44" on="0"/>
        <pt x="587" y="115" on="0"/>
        <pt x="650" y="227" on="0"/>
        <pt x="677" y="364" on="0"/>
      </contour>
    </TTGlyph>
    <TTGlyph name="Otilde" xMin="76" yMin="-12" xMax="802" yMax="894">
      <component glyphName="O" x="0" y="0" flags="0x204"/>
      <component glyphName="uniF40D" x="17" y="0" flags="0x4"/>
    </TTGlyph>
    <TTGlyph name="P" xMin="-21" yMin="0" xMax="680" yMax="708">
      <contour>
        <pt x="115" y="644" on="1"/>
        <pt x="127" y="700" on="1"/>
        <pt x="239" y="700" on="1"/>
        <pt x="284" y="700" on="0"/>
        <pt x="385" y="708" on="0"/>
        <pt x="434" y="708" on="1"/>
        <pt x="489" y="708" on="0"/>
        <pt x="580" y="688" on="0"/>
        <pt x="644" y="646" on="0"/>
        <pt x="680" y="581" on="0"/>
        <pt x="680" y="536" on="1"/>
        <pt x="680" y="470" on="0"/>
        <pt x="628" y="370" on="0"/>
        <pt x="535" y="302" on="0"/>
        <pt x="407" y="268" on="0"/>
        <pt x="332" y="268" on="1"/>
        <pt x="326" y="268" on="0"/>
        <pt x="301" y="268" on="0"/>
        <pt x="273" y="269" on="0"/>
        <pt x="246" y="271" on="0"/>
        <pt x="239" y="272" on="1"/>
        <pt x="193" y="56" on="1"/>
        <pt x="293" y="56" on="1"/>
        <pt x="281" y="0" on="1"/>
        <pt x="-21" y="0" on="1"/>
        <pt x="-10" y="56" on="1"/>
        <pt x="81" y="56" on="1"/>
        <pt x="206" y="644" on="1"/>
      </contour>
      <contour>
        <pt x="251" y="329" on="1"/>
        <pt x="256" y="327" on="0"/>
        <pt x="275" y="326" on="0"/>
        <pt x="297" y="324" on="0"/>
        <pt x="318" y="324" on="0"/>
        <pt x="324" y="324" on="1"/>
        <pt x="370" y="324" on="0"/>
        <pt x="454" y="348" on="0"/>
        <pt x="518" y="398" on="0"/>
        <pt x="555" y="475" on="0"/>
        <pt x="555" y="529" on="1"/>
        <pt x="555" y="585" on="0"/>
        <pt x="479" y="652" on="0"/>
        <pt x="391" y="652" on="1"/>
        <pt x="364" y="652" on="0"/>
        <pt x="332" y="648" on="0"/>
        <pt x="318" y="646" on="1"/>
      </contour>
    </TTGlyph>
    <TTGlyph name="Q" xMin="76" yMin="-202" xMax="830" yMax="712">
      <contour>
        <pt x="830" y="-131" on="1"/>
        <pt x="779" y="-168" on="0"/>
        <pt x="670" y="-202" on="0"/>
        <pt x="616" y="-202" on="1"/>
        <pt x="570" y="-202" on="0"/>
        <pt x="470" y="-168" on="0"/>
        <pt x="362" y="-125" on="0"/>
        <pt x="244" y="-84" on="0"/>
        <pt x="180" y="-77" on="1"/>
        <pt x="196" y="-37" on="1"/>
        <pt x="220" y="-34" on="0"/>
        <pt x="243" y="-34" on="1"/>
        <pt x="300" y="-34" on="0"/>
        <pt x="407" y="-59" on="0"/>
        <pt x="514" y="-89" on="0"/>
        <pt x="625" y="-114" on="0"/>
        <pt x="685" y="-114" on="1"/>
        <pt x="717" y="-114" on="0"/>
        <pt x="786" y="-104" on="0"/>
        <pt x="822" y="-93" on="1"/>
      </contour>
      <contour>
        <pt x="76" y="283" on="1"/>
        <pt x="76" y="364" on="0"/>
        <pt x="127" y="519" on="0"/>
        <pt x="232" y="639" on="0"/>
        <pt x="392" y="712" on="0"/>
        <pt x="500" y="712" on="1"/>
        <pt x="567" y="712" on="0"/>
        <pt x="679" y="673" on="0"/>
        <pt x="758" y="599" on="0"/>
        <pt x="802" y="495" on="0"/>
        <pt x="802" y="431" on="1"/>
        <pt x="802" y="351" on="0"/>
        <pt x="758" y="192" on="0"/>
        <pt x="660" y="66" on="0"/>
        <pt x="506" y="-12" on="0"/>
        <pt x="397" y="-12" on="1"/>
        <pt x="338" y="-12" on="0"/>
        <pt x="224" y="22" on="0"/>
        <pt x="132" y="94" on="0"/>
        <pt x="76" y="205" on="0"/>
      </contour>
      <contour>
        <pt x="201" y="282" on="1"/>
        <pt x="201" y="218" on="0"/>
        <pt x="236" y="128" on="0"/>
        <pt x="293" y="71" on="0"/>
        <pt x="367" y="44" on="0"/>
        <pt x="405" y="44" on="1"/>
        <pt x="483" y="44" on="0"/>
        <pt x="587" y="115" on="0"/>
        <pt x="650" y="227" on="0"/>
        <pt x="677" y="364" on="0"/>
        <pt x="677" y="430" on="1"/>
        <pt x="677" y="541" on="0"/>
        <pt x="571" y="656" on="0"/>
        <pt x="475" y="656" on="1"/>
        <pt x="404" y="656" on="0"/>
        <pt x="300" y="590" on="0"/>
        <pt x="233" y="484" on="0"/>
        <pt x="201" y="350" on="0"/>
      </contour>
    </TTGlyph>
    <TTGlyph name="R" xMin="-21" yMin="0" xMax="660" yMax="708">
      <contour>
        <pt x="193" y="56" on="1"/>
        <pt x="279" y="56" on="1"/>
        <pt x="267" y="0" on="1"/>
        <pt x="-21" y="0" on="1"/>
        <pt x="-10" y="56" on="1"/>
        <pt x="81" y="56" on="1"/>
        <pt x="206" y="644" on="1"/>
        <pt x="115" y="644" on="1"/>
        <pt x="127" y="700" on="1"/>
        <pt x="228" y="700" on="1"/>
        <pt x="273" y="700" on="0"/>
        <pt x="381" y="708" on="0"/>
        <pt x="432" y="708" on="1"/>
        <pt x="544" y="708" on="0"/>
        <pt x="660" y="623" on="0"/>
        <pt x="660" y="541" on="1"/>
        <pt x="660" y="491" on="0"/>
        <pt x="622" y="412" on="0"/>
        <pt x="562" y="355" on="0"/>
        <pt x="486" y="320" on="0"/>
        <pt x="448" y="314" on="1"/>
        <pt x="593" y="56" on="1"/>
        <pt x="660" y="56" on="1"/>
        <pt x="648" y="0" on="1"/>
        <pt x="493" y="0" on="1"/>
        <pt x="347" y="303" on="1"/>
        <pt x="245" y="303" on="1"/>
      </contour>
      <contour>
        <pt x="335" y="354" on="1"/>
        <pt x="376" y="354" on="0"/>
        <pt x="449" y="376" on="0"/>
        <pt x="503" y="422" on="0"/>
        <pt x="535" y="492" on="0"/>
        <pt x="535" y="540" on="1"/>
        <pt x="535" y="594" on="0"/>
        <pt x="471" y="652" on="0"/>
        <pt x="395" y="652" on="1"/>
        <pt x="369" y="652" on="0"/>
        <pt x="333" y="648" on="0"/>
        <pt x="318" y="646" on="1"/>
        <pt x="256" y="354" on="1"/>
      </contour>
    </TTGlyph>
    <TTGlyph name="Racute" xMin="-21" yMin="0" xMax="660" yMax="914">
      <component glyphName="R" x="0" y="0" flags="0x204"/>
      <component glyphName="uniF6C9" x="44" y="0" flags="0x4"/>
    </TTGlyph>
    <TTGlyph name="Rcaron" xMin="-21" yMin="0" xMax="660" yMax="919">
      <component glyphName="R" x="0" y="0" flags="0x204"/>
      <component glyphName="uniF6CA" x="7" y="0" flags="0x4"/>
    </TTGlyph>
    <TTGlyph name="Rcommaaccent" xMin="-21" yMin="-280" xMax="660" yMax="708">
      <component glyphName="R" x="0" y="0" flags="0x204"/>
      <component glyphName="uniF409" x="159" y="0" flags="0x4"/>
    </TTGlyph>
    <TTGlyph name="S" xMin="25" yMin="-12" xMax="597" yMax="712">
      <contour>
        <pt x="102" y="104" on="1"/>
        <pt x="115" y="80" on="1"/>
        <pt x="122" y="74" on="0"/>
        <pt x="150" y="61" on="0"/>
        <pt x="185" y="50" on="0"/>
        <pt x="224" y="44" on="0"/>
        <pt x="243" y="44" on="1"/>
        <pt x="330" y="44" on="0"/>
        <pt x="425" y="112" on="0"/>
        <pt x="425" y="177" on="1"/>
        <pt x="425" y="216" on="0"/>
        <pt x="382" y="272" on="0"/>
        <pt x="318" y="318" on="0"/>
        <pt x="242" y="360" on="0"/>
        <pt x="178" y="411" on="0"/>
        <pt x="135" y="477" on="0"/>
        <pt x="135" y="523" on="1"/>
        <pt x="135" y="614" on="0"/>
        <pt x="273" y="712" on="0"/>
        <pt x="406" y="712" on="1"/>
        <pt x="475" y="712" on="0"/>
        <pt x="565" y="693" on="0"/>
        <pt x="597" y="678" on="1"/>
        <pt x="597" y="678" on="0"/>
        <pt x="593" y="663" on="0"/>
        <pt x="589" y="639" on="0"/>
        <pt x="582" y="608" on="0"/>
        <pt x="579" y="592" on="1"/>
        <pt x="571" y="554" on="0"/>
        <pt x="561" y="507" on="1"/>
        <pt x="497" y="507" on="1"/>
        <pt x="519" y="614" on="1"/>
        <pt x="508" y="639" on="1"/>
        <pt x="491" y="647" on="0"/>
        <pt x="427" y="656" on="0"/>
        <pt x="392" y="656" on="1"/>
        <pt x="317" y="656" on="0"/>
        <pt x="247" y="596" on="0"/>
        <pt x="247" y="554" on="1"/>
        <pt x="247" y="519" on="0"/>
        <pt x="290" y="468" on="0"/>
        <pt x="354" y="423" on="0"/>
        <pt x="430" y="380" on="0"/>
        <pt x="494" y="327" on="0"/>
        <pt x="537" y="257" on="0"/>
        <pt x="537" y="209" on="1"/>
        <pt x="537" y="159" on="0"/>
        <pt x="497" y="78" on="0"/>
        <pt x="420" y="20" on="0"/>
        <pt x="306" y="-12" on="0"/>
        <pt x="232" y="-12" on="1"/>
        <pt x="197" y="-12" on="0"/>
        <pt x="132" y="-2" on="0"/>
        <pt x="78" y="14" on="0"/>
        <pt x="37" y="32" on="0"/>
        <pt x="25" y="41" on="1"/>
        <pt x="63" y="223" on="1"/>
        <pt x="127" y="223" on="1"/>
      </contour>
    </TTGlyph>
    <TTGlyph name="Sacute" xMin="25" yMin="-12" xMax="628" yMax="914">
      <component glyphName="S" x="0" y="0" flags="0x204"/>
      <component glyphName="uniF6C9" x="32" y="0" flags="0x4"/>
    </TTGlyph>
    <TTGlyph name="Scaron" xMin="25" yMin="-12" xMax="623" yMax="919">
      <component glyphName="S" x="0" y="0" flags="0x204"/>
      <component glyphName="uniF6CA" x="13" y="0" flags="0x4"/>
    </TTGlyph>
    <TTGlyph name="Scedilla" xMin="25" yMin="-232" xMax="597" yMax="712">
      <contour>
        <pt x="102" y="104" on="1"/>
        <pt x="115" y="80" on="1"/>
        <pt x="122" y="74" on="0"/>
        <pt x="150" y="61" on="0"/>
        <pt x="185" y="50" on="0"/>
        <pt x="224" y="44" on="0"/>
        <pt x="243" y="44" on="1"/>
        <pt x="330" y="44" on="0"/>
        <pt x="425" y="112" on="0"/>
        <pt x="425" y="177" on="1"/>
        <pt x="425" y="216" on="0"/>
        <pt x="382" y="272" on="0"/>
        <pt x="318" y="318" on="0"/>
        <pt x="242" y="360" on="0"/>
        <pt x="178" y="411" on="0"/>
        <pt x="135" y="477" on="0"/>
        <pt x="135" y="523" on="1"/>
        <pt x="135" y="614" on="0"/>
        <pt x="273" y="712" on="0"/>
        <pt x="406" y="712" on="1"/>
        <pt x="475" y="712" on="0"/>
        <pt x="565" y="693" on="0"/>
        <pt x="597" y="678" on="1"/>
        <pt x="597" y="678" on="0"/>
        <pt x="593" y="663" on="0"/>
        <pt x="589" y="639" on="0"/>
        <pt x="582" y="608" on="0"/>
        <pt x="579" y="592" on="1"/>
        <pt x="571" y="554" on="0"/>
        <pt x="561" y="507" on="1"/>
        <pt x="497" y="507" on="1"/>
        <pt x="519" y="614" on="1"/>
        <pt x="508" y="639" on="1"/>
        <pt x="491" y="647" on="0"/>
        <pt x="427" y="656" on="0"/>
        <pt x="392" y="656" on="1"/>
        <pt x="317" y="656" on="0"/>
        <pt x="247" y="596" on="0"/>
        <pt x="247" y="554" on="1"/>
        <pt x="247" y="519" on="0"/>
        <pt x="290" y="468" on="0"/>
        <pt x="354" y="423" on="0"/>
        <pt x="430" y="380" on="0"/>
        <pt x="494" y="327" on="0"/>
        <pt x="537" y="257" on="0"/>
        <pt x="537" y="209" on="1"/>
        <pt x="537" y="117" on="0"/>
        <pt x="405" y="-1" on="0"/>
        <pt x="277" y="-10" on="1"/>
        <pt x="250" y="-64" on="1"/>
        <pt x="284" y="-65" on="0"/>
        <pt x="325" y="-76" on="0"/>
        <pt x="347" y="-95" on="0"/>
        <pt x="354" y="-120" on="0"/>
        <pt x="354" y="-135" on="1"/>
        <pt x="354" y="-165" on="0"/>
        <pt x="308" y="-203" on="0"/>
        <pt x="239" y="-224" on="0"/>
        <pt x="161" y="-232" on="0"/>
        <pt x="129" y="-232" on="1"/>
        <pt x="129" y="-199" on="1"/>
        <pt x="151" y="-198" on="0"/>
        <pt x="195" y="-193" on="0"/>
        <pt x="230" y="-183" on="0"/>
        <pt x="252" y="-166" on="0"/>
        <pt x="252" y="-152" on="1"/>
        <pt x="252" y="-142" on="0"/>
        <pt x="249" y="-126" on="0"/>
        <pt x="235" y="-115" on="0"/>
        <pt x="207" y="-108" on="0"/>
        <pt x="182" y="-107" on="1"/>
        <pt x="221" y="-12" on="1"/>
        <pt x="153" y="-10" on="0"/>
        <pt x="48" y="24" on="0"/>
        <pt x="25" y="41" on="1"/>
        <pt x="63" y="223" on="1"/>
        <pt x="127" y="223" on="1"/>
      </contour>
    </TTGlyph>
    <TTGlyph name="Scircumflex" xMin="25" yMin="-12" xMax="603" yMax="914">
      <component glyphName="S" x="0" y="0" flags="0x204"/>
      <component glyphName="uniF408" x="24" y="0" flags="0x4"/>
    </TTGlyph>
    <TTGlyph name="Scommaaccent" xMin="25" yMin="-280" xMax="597" yMax="712">
      <component glyphName="S" x="0" y="0" flags="0x204"/>
      <component glyphName="uniF409" x="118" y="0" flags="0x4"/>
    </TTGlyph>
    <TTGlyph name="T" xMin="73" yMin="0" xMax="771" yMax="700">
      <contour>
        <pt x="454" y="0" on="1"/>
        <pt x="136" y="0" on="1"/>
        <pt x="148" y="56" on="1"/>
        <pt x="251" y="56" on="1"/>
        <pt x="376" y="644" on="1"/>
        <pt x="196" y="644" on="1"/>
        <pt x="173" y="622" on="1"/>
        <pt x="145" y="493" on="1"/>
        <pt x="73" y="493" on="1"/>
        <pt x="117" y="700" on="1"/>
        <pt x="771" y="700" on="1"/>
        <pt x="727" y="493" on="1"/>
        <pt x="655" y="493" on="1"/>
        <pt x="683" y="622" on="1"/>
        <pt x="666" y="644" on="1"/>
        <pt x="488" y="644" on="1"/>
        <pt x="363" y="56" on="1"/>
        <pt x="466" y="56" on="1"/>
      </contour>
    </TTGlyph>
    <TTGlyph name="Tcaron" xMin="73" yMin="0" xMax="771" yMax="919">
      <component glyphName="T" x="0" y="0" flags="0x204"/>
      <component glyphName="uniF6CA" x="47" y="0" flags="0x4"/>
    </TTGlyph>
    <TTGlyph name="Tcedilla" xMin="73" yMin="-232" xMax="771" yMax="700">
      <contour>
        <pt x="454" y="0" on="1"/>
        <pt x="322" y="0" on="1"/>
        <pt x="289" y="-64" on="1"/>
        <pt x="323" y="-65" on="0"/>
        <pt x="364" y="-76" on="0"/>
        <pt x="386" y="-95" on="0"/>
        <pt x="393" y="-120" on="0"/>
        <pt x="393" y="-135" on="1"/>
        <pt x="393" y="-165" on="0"/>
        <pt x="347" y="-203" on="0"/>
        <pt x="278" y="-224" on="0"/>
        <pt x="200" y="-232" on="0"/>
        <pt x="168" y="-232" on="1"/>
        <pt x="168" y="-199" on="1"/>
        <pt x="190" y="-198" on="0"/>
        <pt x="234" y="-193" on="0"/>
        <pt x="269" y="-183" on="0"/>
        <pt x="291" y="-166" on="0"/>
        <pt x="291" y="-152" on="1"/>
        <pt x="291" y="-142" on="0"/>
        <pt x="288" y="-126" on="0"/>
        <pt x="274" y="-115" on="0"/>
        <pt x="246" y="-108" on="0"/>
        <pt x="221" y="-107" on="1"/>
        <pt x="265" y="0" on="1"/>
        <pt x="136" y="0" on="1"/>
        <pt x="148" y="56" on="1"/>
        <pt x="251" y="56" on="1"/>
        <pt x="376" y="644" on="1"/>
        <pt x="196" y="644" on="1"/>
        <pt x="173" y="622" on="1"/>
        <pt x="145" y="493" on="1"/>
        <pt x="73" y="493" on="1"/>
        <pt x="117" y="700" on="1"/>
        <pt x="771" y="700" on="1"/>
        <pt x="727" y="493" on="1"/>
        <pt x="655" y="493" on="1"/>
        <pt x="683" y="622" on="1"/>
        <pt x="666" y="644" on="1"/>
        <pt x="488" y="644" on="1"/>
        <pt x="363" y="56" on="1"/>
        <pt x="466" y="56" on="1"/>
      </contour>
    </TTGlyph>
    <TTGlyph name="Tcommaaccent" xMin="73" yMin="-280" xMax="771" yMax="700">
      <component glyphName="T" x="0" y="0" flags="0x204"/>
      <component glyphName="uniF409" x="156" y="0" flags="0x4"/>
    </TTGlyph>
    <TTGlyph name="Thorn" xMin="-21" yMin="0" xMax="666" yMax="700">
      <contour>
        <pt x="115" y="644" on="1"/>
        <pt x="127" y="700" on="1"/>
        <pt x="419" y="700" on="1"/>
        <pt x="407" y="644" on="1"/>
        <pt x="318" y="644" on="1"/>
        <pt x="308" y="597" on="1"/>
        <pt x="334" y="599" on="0"/>
        <pt x="391" y="601" on="0"/>
        <pt x="416" y="601" on="1"/>
        <pt x="548" y="601" on="0"/>
        <pt x="666" y="514" on="0"/>
        <pt x="666" y="433" on="1"/>
        <pt x="666" y="368" on="0"/>
        <pt x="615" y="272" on="0"/>
        <pt x="522" y="207" on="0"/>
        <pt x="391" y="175" on="0"/>
        <pt x="311" y="175" on="1"/>
        <pt x="305" y="175" on="0"/>
        <pt x="279" y="175" on="0"/>
        <pt x="251" y="176" on="0"/>
        <pt x="225" y="177" on="0"/>
        <pt x="219" y="178" on="1"/>
        <pt x="193" y="56" on="1"/>
        <pt x="302" y="56" on="1"/>
        <pt x="290" y="0" on="1"/>
        <pt x="-21" y="0" on="1"/>
        <pt x="-10" y="56" on="1"/>
        <pt x="81" y="56" on="1"/>
        <pt x="206" y="644" on="1"/>
      </contour>
      <contour>
        <pt x="379" y="545" on="1"/>
        <pt x="326" y="545" on="0"/>
        <pt x="296" y="539" on="1"/>
        <pt x="231" y="236" on="1"/>
        <pt x="236" y="234" on="0"/>
        <pt x="259" y="233" on="0"/>
        <pt x="284" y="231" on="0"/>
        <pt x="308" y="231" on="0"/>
        <pt x="314" y="231" on="1"/>
        <pt x="371" y="231" on="0"/>
        <pt x="457" y="261" on="0"/>
        <pt x="513" y="314" on="0"/>
        <pt x="541" y="387" on="0"/>
        <pt x="541" y="431" on="1"/>
        <pt x="541" y="487" on="0"/>
        <pt x="468" y="545" on="0"/>
      </contour>
    </TTGlyph>
    <TTGlyph name="U" xMin="95" yMin="-9" xMax="845" yMax="700">
      <contour>
        <pt x="657" y="244" on="1"/>
        <pt x="629" y="112" on="0"/>
        <pt x="474" y="-9" on="0"/>
        <pt x="347" y="-9" on="1"/>
        <pt x="280" y="-9" on="0"/>
        <pt x="186" y="22" on="0"/>
        <pt x="126" y="76" on="0"/>
        <pt x="99" y="151" on="0"/>
        <pt x="99" y="196" on="1"/>
        <pt x="99" y="233" on="0"/>
        <pt x="108" y="275" on="1"/>
        <pt x="186" y="644" on="1"/>
        <pt x="95" y="644" on="1"/>
        <pt x="107" y="700" on="1"/>
        <pt x="391" y="700" on="1"/>
        <pt x="379" y="644" on="1"/>
        <pt x="298" y="644" on="1"/>
        <pt x="220" y="277" on="1"/>
        <pt x="216" y="257" on="0"/>
        <pt x="211" y="223" on="0"/>
        <pt x="211" y="206" on="1"/>
        <pt x="211" y="134" on="0"/>
        <pt x="291" y="58" on="0"/>
        <pt x="375" y="58" on="1"/>
        <pt x="551" y="58" on="0"/>
        <pt x="592" y="246" on="1"/>
        <pt x="678" y="644" on="1"/>
        <pt x="596" y="644" on="1"/>
        <pt x="608" y="700" on="1"/>
        <pt x="845" y="700" on="1"/>
        <pt x="833" y="644" on="1"/>
        <pt x="742" y="644" on="1"/>
      </contour>
    </TTGlyph>
    <TTGlyph name="Uacute" xMin="95" yMin="-9" xMax="845" yMax="914">
      <component glyphName="U" x="0" y="0" flags="0x204"/>
      <component glyphName="uniF6C9" x="152" y="0" flags="0x4"/>
    </TTGlyph>
    <TTGlyph name="Ubreve" xMin="95" yMin="-9" xMax="845" yMax="905">
      <component glyphName="U" x="0" y="0" flags="0x204"/>
      <component glyphName="uniF406" x="138" y="0" flags="0x4"/>
    </TTGlyph>
    <TTGlyph name="Ucircumflex" xMin="95" yMin="-9" xMax="845" yMax="914">
      <component glyphName="U" x="0" y="0" flags="0x204"/>
      <component glyphName="uniF408" x="113" y="0" flags="0x4"/>
    </TTGlyph>
    <TTGlyph name="Udieresis" xMin="95" yMin="-9" xMax="845" yMax="854">
      <component glyphName="U" x="0" y="0" flags="0x204"/>
      <component glyphName="uniF6CB" x="101" y="0" flags="0x4"/>
    </TTGlyph>
    <TTGlyph name="Ugrave" xMin="95" yMin="-9" xMax="845" yMax="914">
      <component glyphName="U" x="0" y="0" flags="0x204"/>
      <component glyphName="uniF6CE" x="174" y="0" flags="0x4"/>
    </TTGlyph>
    <TTGlyph name="Uhungarumlaut" xMin="95" yMin="-9" xMax="845" yMax="908">
      <component glyphName="U" x="0" y="0" flags="0x204"/>
      <component glyphName="uniF6CF" x="161" y="0" flags="0x4"/>
    </TTGlyph>
    <TTGlyph name="Umacron" xMin="95" yMin="-9" xMax="845" yMax="851">
      <component glyphName="U" x="0" y="0" flags="0x204"/>
      <component glyphName="uniF6D0" x="113" y="0" flags="0x4"/>
    </TTGlyph>
    <TTGlyph name="Uogonek" xMin="95" yMin="-211" xMax="845" yMax="700">
      <contour>
        <pt x="657" y="244" on="1"/>
        <pt x="635" y="139" on="0"/>
        <pt x="528" y="21" on="0"/>
        <pt x="443" y="1" on="1"/>
        <pt x="392" y="-18" on="0"/>
        <pt x="324" y="-68" on="0"/>
        <pt x="324" y="-110" on="1"/>
        <pt x="324" y="-137" on="0"/>
        <pt x="354" y="-158" on="0"/>
        <pt x="387" y="-158" on="1"/>
        <pt x="421" y="-158" on="0"/>
        <pt x="450" y="-152" on="1"/>
        <pt x="450" y="-183" on="1"/>
        <pt x="434" y="-194" on="0"/>
        <pt x="384" y="-211" on="0"/>
        <pt x="347" y="-211" on="1"/>
        <pt x="294" y="-211" on="0"/>
        <pt x="228" y="-172" on="0"/>
        <pt x="228" y="-128" on="1"/>
        <pt x="228" y="-87" on="0"/>
        <pt x="293" y="-29" on="0"/>
        <pt x="341" y="-9" on="1"/>
        <pt x="276" y="-8" on="0"/>
        <pt x="184" y="23" on="0"/>
        <pt x="126" y="77" on="0"/>
        <pt x="99" y="152" on="0"/>
        <pt x="99" y="196" on="1"/>
        <pt x="99" y="233" on="0"/>
        <pt x="108" y="275" on="1"/>
        <pt x="186" y="644" on="1"/>
        <pt x="95" y="644" on="1"/>
        <pt x="107" y="700" on="1"/>
        <pt x="391" y="700" on="1"/>
        <pt x="379" y="644" on="1"/>
        <pt x="298" y="644" on="1"/>
        <pt x="219" y="277" on="1"/>
        <pt x="215" y="257" on="0"/>
        <pt x="211" y="223" on="0"/>
        <pt x="211" y="206" on="1"/>
        <pt x="211" y="134" on="0"/>
        <pt x="291" y="58" on="0"/>
        <pt x="375" y="58" on="1"/>
        <pt x="551" y="58" on="0"/>
        <pt x="592" y="246" on="1"/>
        <pt x="677" y="644" on="1"/>
        <pt x="596" y="644" on="1"/>
        <pt x="608" y="700" on="1"/>
        <pt x="845" y="700" on="1"/>
        <pt x="833" y="644" on="1"/>
        <pt x="742" y="644" on="1"/>
      </contour>
    </TTGlyph>
    <TTGlyph name="Uring" xMin="95" yMin="-9" xMax="845" yMax="874">
      <component glyphName="U" x="0" y="0" flags="0x204"/>
      <component glyphName="uniF40C" x="172" y="0" flags="0x4"/>
    </TTGlyph>
    <TTGlyph name="V" xMin="90" yMin="0" xMax="873" yMax="700">
      <contour>
        <pt x="699" y="644" on="1"/>
        <pt x="608" y="644" on="1"/>
        <pt x="620" y="700" on="1"/>
        <pt x="873" y="700" on="1"/>
        <pt x="861" y="644" on="1"/>
        <pt x="779" y="644" on="1"/>
        <pt x="410" y="0" on="1"/>
        <pt x="299" y="0" on="1"/>
        <pt x="176" y="644" on="1"/>
        <pt x="90" y="644" on="1"/>
        <pt x="102" y="700" on="1"/>
        <pt x="404" y="700" on="1"/>
        <pt x="392" y="644" on="1"/>
        <pt x="296" y="644" on="1"/>
        <pt x="377" y="177" on="1"/>
        <pt x="386" y="82" on="1"/>
        <pt x="390" y="82" on="1"/>
        <pt x="440" y="179" on="1"/>
      </contour>
    </TTGlyph>
    <TTGlyph name="W" xMin="90" yMin="0" xMax="1160" yMax="700">
      <contour>
        <pt x="985" y="644" on="1"/>
        <pt x="898" y="644" on="1"/>
        <pt x="910" y="700" on="1"/>
        <pt x="1160" y="700" on="1"/>
        <pt x="1148" y="644" on="1"/>
        <pt x="1065" y="644" on="1"/>
        <pt x="761" y="0" on="1"/>
        <pt x="644" y="0" on="1"/>
        <pt x="605" y="553" on="1"/>
        <pt x="331" y="0" on="1"/>
        <pt x="214" y="0" on="1"/>
        <pt x="176" y="644" on="1"/>
        <pt x="90" y="644" on="1"/>
        <pt x="102" y="700" on="1"/>
        <pt x="398" y="700" on="1"/>
        <pt x="386" y="644" on="1"/>
        <pt x="291" y="644" on="1"/>
        <pt x="307" y="216" on="1"/>
        <pt x="307" y="213" on="0"/>
        <pt x="306" y="171" on="0"/>
        <pt x="306" y="147" on="1"/>
        <pt x="305" y="119" on="0"/>
        <pt x="305" y="83" on="1"/>
        <pt x="309" y="83" on="1"/>
        <pt x="377" y="218" on="1"/>
        <pt x="378" y="220" on="0"/>
        <pt x="399" y="263" on="0"/>
        <pt x="433" y="332" on="0"/>
        <pt x="476" y="418" on="0"/>
        <pt x="498" y="463" on="1"/>
        <pt x="550" y="568" on="0"/>
        <pt x="616" y="700" on="1"/>
        <pt x="691" y="700" on="1"/>
        <pt x="731" y="218" on="1"/>
        <pt x="731" y="214" on="0"/>
        <pt x="731" y="172" on="0"/>
        <pt x="732" y="148" on="1"/>
        <pt x="732" y="120" on="0"/>
        <pt x="733" y="85" on="1"/>
        <pt x="738" y="85" on="1"/>
        <pt x="797" y="220" on="1"/>
      </contour>
    </TTGlyph>
    <TTGlyph name="X" xMin="-43" yMin="0" xMax="798" yMax="700">
      <contour>
        <pt x="542" y="700" on="1"/>
        <pt x="798" y="700" on="1"/>
        <pt x="786" y="644" on="1"/>
        <pt x="704" y="644" on="1"/>
        <pt x="450" y="375" on="1"/>
        <pt x="612" y="56" on="1"/>
        <pt x="703" y="56" on="1"/>
        <pt x="691" y="0" on="1"/>
        <pt x="402" y="0" on="1"/>
        <pt x="414" y="56" on="1"/>
        <pt x="487" y="56" on="1"/>
        <pt x="364" y="303" on="1"/>
        <pt x="146" y="56" on="1"/>
        <pt x="223" y="56" on="1"/>
        <pt x="211" y="0" on="1"/>
        <pt x="-43" y="0" on="1"/>
        <pt x="-31" y="56" on="1"/>
        <pt x="52" y="56" on="1"/>
        <pt x="335" y="352" on="1"/>
        <pt x="187" y="644" on="1"/>
        <pt x="98" y="644" on="1"/>
        <pt x="110" y="700" on="1"/>
        <pt x="406" y="700" on="1"/>
        <pt x="394" y="644" on="1"/>
        <pt x="314" y="644" on="1"/>
        <pt x="422" y="421" on="1"/>
        <pt x="618" y="644" on="1"/>
        <pt x="530" y="644" on="1"/>
      </contour>
    </TTGlyph>
    <TTGlyph name="Y" xMin="90" yMin="0" xMax="829" yMax="700">
      <contour>
        <pt x="575" y="700" on="1"/>
        <pt x="829" y="700" on="1"/>
        <pt x="817" y="644" on="1"/>
        <pt x="732" y="644" on="1"/>
        <pt x="445" y="297" on="1"/>
        <pt x="394" y="56" on="1"/>
        <pt x="477" y="56" on="1"/>
        <pt x="465" y="0" on="1"/>
        <pt x="179" y="0" on="1"/>
        <pt x="191" y="56" on="1"/>
        <pt x="282" y="56" on="1"/>
        <pt x="333" y="296" on="1"/>
        <pt x="181" y="644" on="1"/>
        <pt x="90" y="644" on="1"/>
        <pt x="102" y="700" on="1"/>
        <pt x="401" y="700" on="1"/>
        <pt x="389" y="644" on="1"/>
        <pt x="305" y="644" on="1"/>
        <pt x="419" y="348" on="1"/>
        <pt x="655" y="644" on="1"/>
        <pt x="563" y="644" on="1"/>
      </contour>
    </TTGlyph>
    <TTGlyph name="Yacute" xMin="90" yMin="0" xMax="829" yMax="914">
      <component glyphName="Y" x="0" y="0" flags="0x204"/>
      <component glyphName="uniF6C9" x="141" y="0" flags="0x4"/>
    </TTGlyph>
    <TTGlyph name="Ydieresis" xMin="90" yMin="0" xMax="829" yMax="854">
      <component glyphName="Y" x="0" y="0" flags="0x204"/>
      <component glyphName="uniF6CB" x="102" y="0" flags="0x4"/>
    </TTGlyph>
    <TTGlyph name="Z" xMin="-16" yMin="0" xMax="713" yMax="700">
      <contour>
        <pt x="-4" y="56" on="1"/>
        <pt x="566" y="644" on="1"/>
        <pt x="238" y="644" on="1"/>
        <pt x="214" y="622" on="1"/>
        <pt x="187" y="497" on="1"/>
        <pt x="115" y="497" on="1"/>
        <pt x="158" y="700" on="1"/>
        <pt x="713" y="700" on="1"/>
        <pt x="701" y="644" on="1"/>
        <pt x="131" y="56" on="1"/>
        <pt x="496" y="56" on="1"/>
        <pt x="521" y="78" on="1"/>
        <pt x="547" y="203" on="1"/>
        <pt x="619" y="203" on="1"/>
        <pt x="576" y="0" on="1"/>
        <pt x="-16" y="0" on="1"/>
      </contour>
    </TTGlyph>
    <TTGlyph name="Zacute" xMin="-16" yMin="0" xMax="713" yMax="914">
      <component glyphName="Z" x="0" y="0" flags="0x204"/>
      <component glyphName="uniF6C9" x="62" y="0" flags="0x4"/>
    </TTGlyph>
    <TTGlyph name="Zcaron" xMin="-16" yMin="0" xMax="713" yMax="919">
      <component glyphName="Z" x="0" y="0" flags="0x204"/>
      <component glyphName="uniF6CA" x="27" y="0" flags="0x4"/>
    </TTGlyph>
    <TTGlyph name="Zdotaccent" xMin="-16" yMin="0" xMax="713" yMax="880">
      <component glyphName="Z" x="0" y="0" flags="0x204"/>
      <component glyphName="uniF40B" x="121" y="0" flags="0x4"/>
    </TTGlyph>
    <TTGlyph name="a" xMin="46" yMin="-10" xMax="544" yMax="535">
      <contour>
        <pt x="220" y="54" on="1"/>
        <pt x="239" y="54" on="0"/>
        <pt x="285" y="77" on="0"/>
        <pt x="330" y="113" on="0"/>
        <pt x="369" y="158" on="0"/>
        <pt x="382" y="180" on="1"/>
        <pt x="435" y="452" on="1"/>
        <pt x="425" y="465" on="0"/>
        <pt x="386" y="481" on="0"/>
        <pt x="361" y="481" on="1"/>
        <pt x="310" y="481" on="0"/>
        <pt x="232" y="424" on="0"/>
        <pt x="178" y="332" on="0"/>
        <pt x="150" y="219" on="0"/>
        <pt x="150" y="164" on="1"/>
        <pt x="150" y="54" on="0"/>
      </contour>
      <contour>
        <pt x="370" y="117" on="1"/>
        <pt x="360" y="100" on="0"/>
        <pt x="324" y="56" on="0"/>
        <pt x="273" y="17" on="0"/>
        <pt x="209" y="-10" on="0"/>
        <pt x="172" y="-10" on="1"/>
        <pt x="115" y="-10" on="0"/>
        <pt x="46" y="68" on="0"/>
        <pt x="46" y="146" on="1"/>
        <pt x="46" y="220" on="0"/>
        <pt x="88" y="360" on="0"/>
        <pt x="168" y="469" on="0"/>
        <pt x="285" y="535" on="0"/>
        <pt x="361" y="535" on="1"/>
        <pt x="389" y="535" on="0"/>
        <pt x="440" y="514" on="0"/>
        <pt x="451" y="501" on="1"/>
        <pt x="467" y="525" on="1"/>
        <pt x="544" y="525" on="1"/>
        <pt x="450" y="54" on="1"/>
        <pt x="532" y="54" on="1"/>
        <pt x="532" y="0" on="1"/>
        <pt x="355" y="0" on="1"/>
        <pt x="376" y="117" on="1"/>
      </contour>
    </TTGlyph>
    <TTGlyph name="aacute" xMin="46" yMin="-10" xMax="553" yMax="750">
      <component glyphName="a" x="0" y="0" flags="0x204"/>
      <component glyphName="acute" x="66" y="0" flags="0x4"/>
    </TTGlyph>
    <TTGlyph name="abreve" xMin="46" yMin="-10" xMax="556" yMax="772">
      <component glyphName="a" x="0" y="0" flags="0x204"/>
      <component glyphName="breve" x="66" y="0" flags="0x4"/>
    </TTGlyph>
    <TTGlyph name="acircumflex" xMin="46" yMin="-10" xMax="544" yMax="832">
      <component glyphName="a" x="0" y="0" flags="0x204"/>
      <component glyphName="circumflex" x="88" y="0" flags="0x4"/>
    </TTGlyph>
    <TTGlyph name="acute" xMin="263" yMin="592" xMax="487" yMax="750">
      <contour>
        <pt x="361" y="750" on="1"/>
        <pt x="487" y="750" on="1"/>
        <pt x="487" y="709" on="1"/>
        <pt x="291" y="592" on="1"/>
        <pt x="263" y="615" on="1"/>
      </contour>
    </TTGlyph>
    <TTGlyph name="acutecomb" xMin="-325" yMin="592" xMax="-101" yMax="750">
      <component glyphName="acute" x="-588" y="0" flags="0x4"/>
    </TTGlyph>
    <TTGlyph name="adieresis" xMin="46" yMin="-10" xMax="566" yMax="752">
      <component glyphName="a" x="0" y="0" flags="0x204"/>
      <component glyphName="dieresis" x="25" y="0" flags="0x4"/>
    </TTGlyph>
    <TTGlyph name="ae" xMin="31" yMin="-10" xMax="795" yMax="535">
      <component glyphName="uni04D5" x="0" y="0" flags="0x204"/>
    </TTGlyph>
    <TTGlyph name="afii10017" xMin="-50" yMin="0" xMax="710" yMax="700">
      <component glyphName="A" x="0" y="0" flags="0x204"/>
    </TTGlyph>
    <TTGlyph name="afii10018" xMin="-21" yMin="-3" xMax="663" yMax="700">
      <contour>
        <pt x="264" y="398" on="1"/>
        <pt x="285" y="401" on="0"/>
        <pt x="357" y="405" on="0"/>
        <pt x="387" y="405" on="1"/>
        <pt x="494" y="405" on="0"/>
        <pt x="616" y="321" on="0"/>
        <pt x="616" y="234" on="1"/>
        <pt x="616" y="177" on="0"/>
        <pt x="562" y="88" on="0"/>
        <pt x="467" y="28" on="0"/>
        <pt x="339" y="-3" on="0"/>
        <pt x="265" y="-3" on="1"/>
        <pt x="259" y="-3" on="0"/>
        <pt x="226" y="-2" on="0"/>
        <pt x="183" y="-1" on="0"/>
        <pt x="137" y="0" on="0"/>
        <pt x="120" y="0" on="1"/>
        <pt x="-21" y="0" on="1"/>
        <pt x="-11" y="56" on="1"/>
        <pt x="80" y="56" on="1"/>
        <pt x="205" y="644" on="1"/>
        <pt x="114" y="644" on="1"/>
        <pt x="126" y="700" on="1"/>
        <pt x="663" y="700" on="1"/>
        <pt x="624" y="517" on="1"/>
        <pt x="552" y="517" on="1"/>
        <pt x="575" y="622" on="1"/>
        <pt x="559" y="644" on="1"/>
        <pt x="317" y="644" on="1"/>
      </contour>
      <contour>
        <pt x="340" y="349" on="1"/>
        <pt x="314" y="349" on="0"/>
        <pt x="267" y="346" on="0"/>
        <pt x="252" y="343" on="1"/>
        <pt x="193" y="58" on="1"/>
        <pt x="198" y="56" on="0"/>
        <pt x="219" y="55" on="0"/>
        <pt x="243" y="53" on="0"/>
        <pt x="265" y="53" on="0"/>
        <pt x="271" y="53" on="1"/>
        <pt x="319" y="53" on="0"/>
        <pt x="403" y="75" on="0"/>
        <pt x="464" y="119" on="0"/>
        <pt x="500" y="186" on="0"/>
        <pt x="500" y="231" on="1"/>
        <pt x="500" y="257" on="0"/>
        <pt x="483" y="300" on="0"/>
        <pt x="445" y="332" on="0"/>
        <pt x="384" y="349" on="0"/>
      </contour>
    </TTGlyph>
    <TTGlyph name="afii10019" xMin="-21" yMin="-6" xMax="662" yMax="706">
      <component glyphName="B" x="0" y="0" flags="0x204"/>
    </TTGlyph>
    <TTGlyph name="afii10020" xMin="-21" yMin="0" xMax="640" yMax="700">
      <contour>
        <pt x="115" y="644" on="1"/>
        <pt x="127" y="700" on="1"/>
        <pt x="640" y="700" on="1"/>
        <pt x="596" y="493" on="1"/>
        <pt x="524" y="493" on="1"/>
        <pt x="552" y="622" on="1"/>
        <pt x="536" y="644" on="1"/>
        <pt x="318" y="644" on="1"/>
        <pt x="193" y="56" on="1"/>
        <pt x="301" y="56" on="1"/>
        <pt x="289" y="0" on="1"/>
        <pt x="-21" y="0" on="1"/>
        <pt x="-10" y="56" on="1"/>
        <pt x="81" y="56" on="1"/>
        <pt x="206" y="644" on="1"/>
      </contour>
    </TTGlyph>
    <TTGlyph name="afii10021" xMin="-84" yMin="-162" xMax="818" yMax="700">
      <contour>
        <pt x="806" y="644" on="1"/>
        <pt x="715" y="644" on="1"/>
        <pt x="590" y="56" on="1"/>
        <pt x="694" y="56" on="1"/>
        <pt x="647" y="-162" on="1"/>
        <pt x="572" y="-162" on="1"/>
        <pt x="602" y="-22" on="1"/>
        <pt x="587" y="0" on="1"/>
        <pt x="45" y="0" on="1"/>
        <pt x="20" y="-22" on="1"/>
        <pt x="-10" y="-162" on="1"/>
        <pt x="-84" y="-162" on="1"/>
        <pt x="-37" y="56" on="1"/>
        <pt x="60" y="56" on="1"/>
        <pt x="99" y="98" on="0"/>
        <pt x="177" y="230" on="0"/>
        <pt x="248" y="387" on="0"/>
        <pt x="305" y="560" on="0"/>
        <pt x="322" y="644" on="1"/>
        <pt x="214" y="644" on="1"/>
        <pt x="226" y="700" on="1"/>
        <pt x="818" y="700" on="1"/>
      </contour>
      <contour>
        <pt x="478" y="56" on="1"/>
        <pt x="603" y="644" on="1"/>
        <pt x="392" y="644" on="1"/>
        <pt x="360" y="520" on="0"/>
        <pt x="292" y="328" on="0"/>
        <pt x="224" y="185" on="0"/>
        <pt x="162" y="87" on="0"/>
        <pt x="137" y="56" on="1"/>
      </contour>
    </TTGlyph>
    <TTGlyph name="afii10022" xMin="-21" yMin="0" xMax="659" yMax="700">
      <component glyphName="E" x="0" y="0" flags="0x204"/>
    </TTGlyph>
    <TTGlyph name="afii10023" xMin="-21" yMin="0" xMax="659" yMax="854">
      <component glyphName="E" x="0" y="0" flags="0x204"/>
      <component glyphName="uniF6CB" x="31" y="0" flags="0x4"/>
    </TTGlyph>
    <TTGlyph name="afii10024" xMin="-46" yMin="0" xMax="1111" yMax="700">
      <contour>
        <pt x="412" y="332" on="1"/>
        <pt x="113" y="0" on="1"/>
        <pt x="-46" y="0" on="1"/>
        <pt x="-34" y="56" on="1"/>
        <pt x="25" y="56" on="1"/>
        <pt x="115" y="146" on="0"/>
        <pt x="185" y="217" on="1"/>
        <pt x="215" y="247" on="0"/>
        <pt x="273" y="305" on="0"/>
        <pt x="318" y="351" on="0"/>
        <pt x="346" y="379" on="0"/>
        <pt x="346" y="379" on="1"/>
        <pt x="182" y="644" on="1"/>
        <pt x="104" y="644" on="1"/>
        <pt x="116" y="700" on="1"/>
        <pt x="358" y="700" on="1"/>
        <pt x="346" y="644" on="1"/>
        <pt x="271" y="644" on="1"/>
        <pt x="414" y="382" on="1"/>
        <pt x="492" y="382" on="1"/>
        <pt x="548" y="644" on="1"/>
        <pt x="471" y="644" on="1"/>
        <pt x="483" y="700" on="1"/>
        <pt x="745" y="700" on="1"/>
        <pt x="733" y="644" on="1"/>
        <pt x="656" y="644" on="1"/>
        <pt x="600" y="382" on="1"/>
        <pt x="675" y="382" on="1"/>
        <pt x="920" y="644" on="1"/>
        <pt x="840" y="644" on="1"/>
        <pt x="852" y="700" on="1"/>
        <pt x="1111" y="700" on="1"/>
        <pt x="1099" y="644" on="1"/>
        <pt x="1014" y="644" on="1"/>
        <pt x="740" y="376" on="1"/>
        <pt x="942" y="56" on="1"/>
        <pt x="1002" y="56" on="1"/>
        <pt x="990" y="0" on="1"/>
        <pt x="846" y="0" on="1"/>
        <pt x="662" y="332" on="1"/>
        <pt x="590" y="332" on="1"/>
        <pt x="531" y="56" on="1"/>
        <pt x="608" y="56" on="1"/>
        <pt x="596" y="0" on="1"/>
        <pt x="334" y="0" on="1"/>
        <pt x="346" y="56" on="1"/>
        <pt x="423" y="56" on="1"/>
        <pt x="482" y="332" on="1"/>
      </contour>
    </TTGlyph>
    <TTGlyph name="afii10025" xMin="19" yMin="-12" xMax="602" yMax="712">
      <contour>
        <pt x="235" y="-12" on="1"/>
        <pt x="193" y="-12" on="0"/>
        <pt x="121" y="0" on="0"/>
        <pt x="65" y="19" on="0"/>
        <pt x="27" y="41" on="0"/>
        <pt x="19" y="50" on="1"/>
        <pt x="19" y="51" on="0"/>
        <pt x="30" y="104" on="0"/>
        <pt x="37" y="135" on="1"/>
        <pt x="55" y="217" on="1"/>
        <pt x="119" y="217" on="1"/>
        <pt x="94" y="96" on="1"/>
        <pt x="105" y="77" on="1"/>
        <pt x="127" y="63" on="0"/>
        <pt x="193" y="44" on="0"/>
        <pt x="225" y="44" on="1"/>
        <pt x="325" y="44" on="0"/>
        <pt x="437" y="145" on="0"/>
        <pt x="437" y="227" on="1"/>
        <pt x="437" y="280" on="0"/>
        <pt x="365" y="328" on="0"/>
        <pt x="299" y="328" on="1"/>
        <pt x="210" y="328" on="1"/>
        <pt x="224" y="392" on="1"/>
        <pt x="354" y="392" on="1"/>
        <pt x="417" y="411" on="0"/>
        <pt x="486" y="501" on="0"/>
        <pt x="486" y="555" on="1"/>
        <pt x="486" y="574" on="0"/>
        <pt x="474" y="611" on="0"/>
        <pt x="445" y="639" on="0"/>
        <pt x="396" y="656" on="0"/>
        <pt x="359" y="656" on="1"/>
        <pt x="342" y="656" on="0"/>
        <pt x="306" y="653" on="0"/>
        <pt x="273" y="647" on="0"/>
        <pt x="246" y="640" on="0"/>
        <pt x="239" y="636" on="1"/>
        <pt x="222" y="617" on="1"/>
        <pt x="201" y="518" on="1"/>
        <pt x="137" y="518" on="1"/>
        <pt x="170" y="671" on="1"/>
        <pt x="191" y="682" on="0"/>
        <pt x="243" y="697" on="0"/>
        <pt x="297" y="707" on="0"/>
        <pt x="352" y="712" on="0"/>
        <pt x="376" y="712" on="1"/>
        <pt x="422" y="712" on="0"/>
        <pt x="504" y="696" on="0"/>
        <pt x="566" y="660" on="0"/>
        <pt x="602" y="602" on="0"/>
        <pt x="602" y="561" on="1"/>
        <pt x="602" y="534" on="0"/>
        <pt x="582" y="477" on="0"/>
        <pt x="540" y="426" on="0"/>
        <pt x="474" y="384" on="0"/>
        <pt x="427" y="374" on="1"/>
        <pt x="427" y="370" on="1"/>
        <pt x="450" y="365" on="0"/>
        <pt x="495" y="345" on="0"/>
        <pt x="531" y="311" on="0"/>
        <pt x="553" y="262" on="0"/>
        <pt x="553" y="229" on="1"/>
        <pt x="553" y="166" on="0"/>
        <pt x="498" y="75" on="0"/>
        <pt x="409" y="16" on="0"/>
        <pt x="295" y="-12" on="0"/>
      </contour>
    </TTGlyph>
    <TTGlyph name="afii10026" xMin="-21" yMin="0" xMax="896" yMax="700">
      <contour>
        <pt x="265" y="0" on="1"/>
        <pt x="-21" y="0" on="1"/>
        <pt x="-10" y="56" on="1"/>
        <pt x="81" y="56" on="1"/>
        <pt x="206" y="644" on="1"/>
        <pt x="115" y="644" on="1"/>
        <pt x="127" y="700" on="1"/>
        <pt x="414" y="700" on="1"/>
        <pt x="402" y="644" on="1"/>
        <pt x="318" y="644" on="1"/>
        <pt x="227" y="215" on="1"/>
        <pt x="199" y="140" on="1"/>
        <pt x="266" y="221" on="1"/>
        <pt x="683" y="622" on="1"/>
        <pt x="687" y="644" on="1"/>
        <pt x="596" y="644" on="1"/>
        <pt x="608" y="700" on="1"/>
        <pt x="896" y="700" on="1"/>
        <pt x="884" y="644" on="1"/>
        <pt x="793" y="644" on="1"/>
        <pt x="668" y="56" on="1"/>
        <pt x="759" y="56" on="1"/>
        <pt x="747" y="0" on="1"/>
        <pt x="459" y="0" on="1"/>
        <pt x="471" y="56" on="1"/>
        <pt x="556" y="56" on="1"/>
        <pt x="647" y="484" on="1"/>
        <pt x="674" y="559" on="1"/>
        <pt x="612" y="482" on="1"/>
        <pt x="190" y="76" on="1"/>
        <pt x="186" y="56" on="1"/>
        <pt x="277" y="56" on="1"/>
      </contour>
    </TTGlyph>
    <TTGlyph name="afii10027" xMin="-21" yMin="0" xMax="896" yMax="880">
      <component glyphName="afii10026" x="0" y="0" flags="0x204"/>
      <component glyphName="uniF6D1" x="139" y="0" flags="0x4"/>
    </TTGlyph>
    <TTGlyph name="afii10028" xMin="-21" yMin="0" xMax="776" yMax="700">
      <component glyphName="K" x="0" y="0" flags="0x204"/>
    </TTGlyph>
    <TTGlyph name="afii10029" xMin="-28" yMin="0" xMax="802" yMax="700">
      <contour>
        <pt x="378" y="644" on="1"/>
        <pt x="354" y="550" on="0"/>
        <pt x="312" y="404" on="0"/>
        <pt x="273" y="292" on="0"/>
        <pt x="237" y="207" on="0"/>
        <pt x="203" y="142" on="0"/>
        <pt x="169" y="91" on="0"/>
        <pt x="152" y="68" on="1"/>
        <pt x="139" y="51" on="0"/>
        <pt x="105" y="17" on="0"/>
        <pt x="87" y="0" on="1"/>
        <pt x="-28" y="0" on="1"/>
        <pt x="-2" y="126" on="1"/>
        <pt x="114" y="126" on="1"/>
        <pt x="135" y="151" on="0"/>
        <pt x="183" y="234" on="0"/>
        <pt x="234" y="359" on="0"/>
        <pt x="285" y="531" on="0"/>
        <pt x="309" y="644" on="1"/>
        <pt x="205" y="644" on="1"/>
        <pt x="217" y="700" on="1"/>
        <pt x="802" y="700" on="1"/>
        <pt x="790" y="644" on="1"/>
        <pt x="699" y="644" on="1"/>
        <pt x="574" y="56" on="1"/>
        <pt x="665" y="56" on="1"/>
        <pt x="653" y="0" on="1"/>
        <pt x="364" y="0" on="1"/>
        <pt x="376" y="56" on="1"/>
        <pt x="462" y="56" on="1"/>
        <pt x="587" y="644" on="1"/>
      </contour>
    </TTGlyph>
    <TTGlyph name="afii10030" xMin="-21" yMin="0" xMax="1047" yMax="700">
      <component glyphName="M" x="0" y="0" flags="0x204"/>
    </TTGlyph>
    <TTGlyph name="afii10031" xMin="-21" yMin="0" xMax="883" yMax="700">
      <component glyphName="H" x="0" y="0" flags="0x204"/>
    </TTGlyph>
    <TTGlyph name="afii10032" xMin="76" yMin="-12" xMax="802" yMax="712">
      <component glyphName="O" x="0" y="0" flags="0x204"/>
    </TTGlyph>
    <TTGlyph name="afii10033" xMin="-21" yMin="0" xMax="871" yMax="700">
      <contour>
        <pt x="318" y="644" on="1"/>
        <pt x="193" y="56" on="1"/>
        <pt x="276" y="56" on="1"/>
        <pt x="264" y="0" on="1"/>
        <pt x="-21" y="0" on="1"/>
        <pt x="-10" y="56" on="1"/>
        <pt x="81" y="56" on="1"/>
        <pt x="206" y="644" on="1"/>
        <pt x="115" y="644" on="1"/>
        <pt x="127" y="700" on="1"/>
        <pt x="871" y="700" on="1"/>
        <pt x="859" y="644" on="1"/>
        <pt x="768" y="644" on="1"/>
        <pt x="643" y="56" on="1"/>
        <pt x="734" y="56" on="1"/>
        <pt x="722" y="0" on="1"/>
        <pt x="436" y="0" on="1"/>
        <pt x="448" y="56" on="1"/>
        <pt x="531" y="56" on="1"/>
        <pt x="656" y="644" on="1"/>
      </contour>
    </TTGlyph>
    <TTGlyph name="afii10034" xMin="-21" yMin="0" xMax="680" yMax="708">
      <component glyphName="P" x="0" y="0" flags="0x204"/>
    </TTGlyph>
    <TTGlyph name="afii10035" xMin="76" yMin="-12" xMax="710" yMax="712">
      <component glyphName="C" x="0" y="0" flags="0x204"/>
    </TTGlyph>
    <TTGlyph name="afii10036" xMin="73" yMin="0" xMax="771" yMax="700">
      <component glyphName="T" x="0" y="0" flags="0x204"/>
    </TTGlyph>
    <TTGlyph name="afii10037" xMin="90" yMin="0" xMax="834" yMax="700">
      <contour>
        <pt x="660" y="644" on="1"/>
        <pt x="567" y="644" on="1"/>
        <pt x="579" y="700" on="1"/>
        <pt x="834" y="700" on="1"/>
        <pt x="822" y="644" on="1"/>
        <pt x="741" y="644" on="1"/>
        <pt x="470" y="219" on="1"/>
        <pt x="449" y="187" on="0"/>
        <pt x="393" y="115" on="0"/>
        <pt x="336" y="53" on="0"/>
        <pt x="286" y="7" on="0"/>
        <pt x="271" y="0" on="1"/>
        <pt x="174" y="0" on="1"/>
        <pt x="200" y="123" on="1"/>
        <pt x="317" y="123" on="1"/>
        <pt x="324" y="129" on="0"/>
        <pt x="341" y="146" on="0"/>
        <pt x="357" y="164" on="0"/>
        <pt x="370" y="181" on="0"/>
        <pt x="373" y="187" on="1"/>
        <pt x="175" y="644" on="1"/>
        <pt x="90" y="644" on="1"/>
        <pt x="102" y="700" on="1"/>
        <pt x="399" y="700" on="1"/>
        <pt x="387" y="644" on="1"/>
        <pt x="297" y="644" on="1"/>
        <pt x="418" y="335" on="1"/>
        <pt x="437" y="266" on="1"/>
        <pt x="441" y="266" on="1"/>
        <pt x="476" y="332" on="1"/>
      </contour>
    </TTGlyph>
    <TTGlyph name="afii10038" xMin="56" yMin="0" xMax="867" yMax="700">
      <contour>
        <pt x="386" y="603" on="1"/>
        <pt x="401" y="603" on="0"/>
        <pt x="448" y="601" on="0"/>
        <pt x="462" y="599" on="1"/>
        <pt x="471" y="644" on="1"/>
        <pt x="393" y="644" on="1"/>
        <pt x="405" y="700" on="1"/>
        <pt x="664" y="700" on="1"/>
        <pt x="652" y="644" on="1"/>
        <pt x="574" y="644" on="1"/>
        <pt x="564" y="596" on="1"/>
        <pt x="585" y="601" on="0"/>
        <pt x="640" y="603" on="0"/>
        <pt x="659" y="603" on="1"/>
        <pt x="711" y="603" on="0"/>
        <pt x="790" y="576" on="0"/>
        <pt x="841" y="530" on="0"/>
        <pt x="867" y="465" on="0"/>
        <pt x="867" y="428" on="1"/>
        <pt x="867" y="363" on="0"/>
        <pt x="826" y="246" on="0"/>
        <pt x="743" y="159" on="0"/>
        <pt x="618" y="108" on="0"/>
        <pt x="534" y="108" on="1"/>
        <pt x="528" y="108" on="0"/>
        <pt x="509" y="109" on="0"/>
        <pt x="488" y="110" on="0"/>
        <pt x="468" y="113" on="0"/>
        <pt x="462" y="115" on="1"/>
        <pt x="449" y="56" on="1"/>
        <pt x="527" y="56" on="1"/>
        <pt x="515" y="0" on="1"/>
        <pt x="256" y="0" on="1"/>
        <pt x="268" y="56" on="1"/>
        <pt x="346" y="56" on="1"/>
        <pt x="358" y="113" on="1"/>
        <pt x="335" y="110" on="0"/>
        <pt x="279" y="108" on="0"/>
        <pt x="257" y="108" on="1"/>
        <pt x="206" y="108" on="0"/>
        <pt x="131" y="137" on="0"/>
        <pt x="81" y="186" on="0"/>
        <pt x="56" y="252" on="0"/>
        <pt x="56" y="290" on="1"/>
        <pt x="56" y="355" on="0"/>
        <pt x="98" y="469" on="0"/>
        <pt x="181" y="554" on="0"/>
        <pt x="305" y="603" on="0"/>
      </contour>
      <contour>
        <pt x="611" y="549" on="1"/>
        <pt x="594" y="549" on="0"/>
        <pt x="568" y="547" on="0"/>
        <pt x="552" y="543" on="1"/>
        <pt x="471" y="165" on="1"/>
        <pt x="482" y="163" on="0"/>
        <pt x="512" y="162" on="0"/>
        <pt x="522" y="162" on="1"/>
        <pt x="579" y="162" on="0"/>
        <pt x="664" y="205" on="0"/>
        <pt x="720" y="278" on="0"/>
        <pt x="747" y="376" on="0"/>
        <pt x="747" y="431" on="1"/>
        <pt x="747" y="457" on="0"/>
        <pt x="735" y="500" on="0"/>
        <pt x="704" y="532" on="0"/>
        <pt x="651" y="549" on="0"/>
      </contour>
      <contour>
        <pt x="314" y="162" on="1"/>
        <pt x="328" y="162" on="0"/>
        <pt x="354" y="164" on="0"/>
        <pt x="371" y="167" on="1"/>
        <pt x="451" y="546" on="1"/>
        <pt x="424" y="549" on="0"/>
        <pt x="396" y="549" on="1"/>
        <pt x="339" y="549" on="0"/>
        <pt x="256" y="509" on="0"/>
        <pt x="202" y="439" on="0"/>
        <pt x="176" y="344" on="0"/>
        <pt x="176" y="289" on="1"/>
        <pt x="176" y="264" on="0"/>
        <pt x="190" y="218" on="0"/>
        <pt x="222" y="183" on="0"/>
        <pt x="275" y="162" on="0"/>
      </contour>
    </TTGlyph>
    <TTGlyph name="afii10039" xMin="-43" yMin="0" xMax="798" yMax="700">
      <component glyphName="X" x="0" y="0" flags="0x204"/>
    </TTGlyph>
    <TTGlyph name="afii10040" xMin="-21" yMin="-162" xMax="868" yMax="700">
      <contour>
        <pt x="528" y="56" on="1"/>
        <pt x="653" y="644" on="1"/>
        <pt x="570" y="644" on="1"/>
        <pt x="582" y="700" on="1"/>
        <pt x="868" y="700" on="1"/>
        <pt x="856" y="644" on="1"/>
        <pt x="765" y="644" on="1"/>
        <pt x="640" y="56" on="1"/>
        <pt x="751" y="56" on="1"/>
        <pt x="704" y="-162" on="1"/>
        <pt x="635" y="-162" on="1"/>
        <pt x="665" y="-22" on="1"/>
        <pt x="650" y="0" on="1"/>
        <pt x="-21" y="0" on="1"/>
        <pt x="-9" y="56" on="1"/>
        <pt x="82" y="56" on="1"/>
        <pt x="207" y="644" on="1"/>
        <pt x="116" y="644" on="1"/>
        <pt x="128" y="700" on="1"/>
        <pt x="414" y="700" on="1"/>
        <pt x="402" y="644" on="1"/>
        <pt x="319" y="644" on="1"/>
        <pt x="194" y="56" on="1"/>
      </contour>
    </TTGlyph>
    <TTGlyph name="afii10041" xMin="95" yMin="0" xMax="791" yMax="700">
      <contour>
        <pt x="573" y="56" on="1"/>
        <pt x="654" y="56" on="1"/>
        <pt x="642" y="0" on="1"/>
        <pt x="345" y="0" on="1"/>
        <pt x="357" y="56" on="1"/>
        <pt x="461" y="56" on="1"/>
        <pt x="515" y="310" on="1"/>
        <pt x="481" y="293" on="0"/>
        <pt x="377" y="265" on="0"/>
        <pt x="312" y="265" on="1"/>
        <pt x="231" y="265" on="0"/>
        <pt x="134" y="338" on="0"/>
        <pt x="134" y="416" on="1"/>
        <pt x="134" y="430" on="0"/>
        <pt x="137" y="463" on="0"/>
        <pt x="141" y="480" on="1"/>
        <pt x="176" y="644" on="1"/>
        <pt x="95" y="644" on="1"/>
        <pt x="107" y="700" on="1"/>
        <pt x="373" y="700" on="1"/>
        <pt x="361" y="644" on="1"/>
        <pt x="288" y="644" on="1"/>
        <pt x="253" y="482" on="1"/>
        <pt x="250" y="467" on="0"/>
        <pt x="246" y="438" on="0"/>
        <pt x="246" y="425" on="1"/>
        <pt x="246" y="377" on="0"/>
        <pt x="297" y="321" on="0"/>
        <pt x="357" y="321" on="1"/>
        <pt x="404" y="321" on="0"/>
        <pt x="491" y="345" on="0"/>
        <pt x="526" y="362" on="1"/>
        <pt x="586" y="644" on="1"/>
        <pt x="506" y="644" on="1"/>
        <pt x="518" y="700" on="1"/>
        <pt x="791" y="700" on="1"/>
        <pt x="779" y="644" on="1"/>
        <pt x="698" y="644" on="1"/>
      </contour>
    </TTGlyph>
    <TTGlyph name="afii10042" xMin="-21" yMin="0" xMax="1137" yMax="700">
      <contour>
        <pt x="115" y="644" on="1"/>
        <pt x="127" y="700" on="1"/>
        <pt x="402" y="700" on="1"/>
        <pt x="390" y="644" on="1"/>
        <pt x="318" y="644" on="1"/>
        <pt x="193" y="56" on="1"/>
        <pt x="439" y="56" on="1"/>
        <pt x="564" y="644" on="1"/>
        <pt x="492" y="644" on="1"/>
        <pt x="504" y="700" on="1"/>
        <pt x="760" y="700" on="1"/>
        <pt x="748" y="644" on="1"/>
        <pt x="676" y="644" on="1"/>
        <pt x="551" y="56" on="1"/>
        <pt x="797" y="56" on="1"/>
        <pt x="922" y="644" on="1"/>
        <pt x="850" y="644" on="1"/>
        <pt x="862" y="700" on="1"/>
        <pt x="1137" y="700" on="1"/>
        <pt x="1125" y="644" on="1"/>
        <pt x="1034" y="644" on="1"/>
        <pt x="909" y="56" on="1"/>
        <pt x="1000" y="56" on="1"/>
        <pt x="988" y="0" on="1"/>
        <pt x="-21" y="0" on="1"/>
        <pt x="-10" y="56" on="1"/>
        <pt x="81" y="56" on="1"/>
        <pt x="206" y="644" on="1"/>
      </contour>
    </TTGlyph>
    <TTGlyph name="afii10043" xMin="-21" yMin="-162" xMax="1138" yMax="700">
      <contour>
        <pt x="116" y="644" on="1"/>
        <pt x="128" y="700" on="1"/>
        <pt x="403" y="700" on="1"/>
        <pt x="391" y="644" on="1"/>
        <pt x="319" y="644" on="1"/>
        <pt x="194" y="56" on="1"/>
        <pt x="440" y="56" on="1"/>
        <pt x="565" y="644" on="1"/>
        <pt x="493" y="644" on="1"/>
        <pt x="505" y="700" on="1"/>
        <pt x="761" y="700" on="1"/>
        <pt x="749" y="644" on="1"/>
        <pt x="677" y="644" on="1"/>
        <pt x="552" y="56" on="1"/>
        <pt x="798" y="56" on="1"/>
        <pt x="923" y="644" on="1"/>
        <pt x="851" y="644" on="1"/>
        <pt x="863" y="700" on="1"/>
        <pt x="1138" y="700" on="1"/>
        <pt x="1126" y="644" on="1"/>
        <pt x="1035" y="644" on="1"/>
        <pt x="910" y="56" on="1"/>
        <pt x="1022" y="56" on="1"/>
        <pt x="975" y="-162" on="1"/>
        <pt x="906" y="-162" on="1"/>
        <pt x="936" y="-22" on="1"/>
        <pt x="921" y="0" on="1"/>
        <pt x="-21" y="0" on="1"/>
        <pt x="-9" y="56" on="1"/>
        <pt x="82" y="56" on="1"/>
        <pt x="207" y="644" on="1"/>
      </contour>
    </TTGlyph>
    <TTGlyph name="afii10044" xMin="72" yMin="-3" xMax="760" yMax="700">
      <contour>
        <pt x="407" y="417" on="1"/>
        <pt x="428" y="421" on="0"/>
        <pt x="487" y="424" on="0"/>
        <pt x="510" y="424" on="1"/>
        <pt x="566" y="424" on="0"/>
        <pt x="658" y="405" on="0"/>
        <pt x="724" y="363" on="0"/>
        <pt x="760" y="299" on="0"/>
        <pt x="760" y="254" on="1"/>
        <pt x="760" y="190" on="0"/>
        <pt x="707" y="94" on="0"/>
        <pt x="613" y="29" on="0"/>
        <pt x="480" y="-3" on="0"/>
        <pt x="401" y="-3" on="1"/>
        <pt x="396" y="-3" on="0"/>
        <pt x="363" y="-2" on="0"/>
        <pt x="322" y="-1" on="0"/>
        <pt x="277" y="0" on="0"/>
        <pt x="260" y="0" on="1"/>
        <pt x="117" y="0" on="1"/>
        <pt x="127" y="56" on="1"/>
        <pt x="218" y="56" on="1"/>
        <pt x="343" y="644" on="1"/>
        <pt x="188" y="644" on="1"/>
        <pt x="164" y="622" on="1"/>
        <pt x="136" y="493" on="1"/>
        <pt x="72" y="493" on="1"/>
        <pt x="116" y="700" on="1"/>
        <pt x="567" y="700" on="1"/>
        <pt x="555" y="644" on="1"/>
        <pt x="455" y="644" on="1"/>
      </contour>
      <contour>
        <pt x="473" y="368" on="1"/>
        <pt x="446" y="368" on="0"/>
        <pt x="410" y="364" on="0"/>
        <pt x="395" y="362" on="1"/>
        <pt x="331" y="58" on="1"/>
        <pt x="337" y="57" on="0"/>
        <pt x="358" y="55" on="0"/>
        <pt x="381" y="54" on="0"/>
        <pt x="403" y="53" on="0"/>
        <pt x="409" y="53" on="1"/>
        <pt x="449" y="53" on="0"/>
        <pt x="529" y="73" on="0"/>
        <pt x="594" y="118" on="0"/>
        <pt x="635" y="193" on="0"/>
        <pt x="635" y="247" on="1"/>
        <pt x="635" y="272" on="0"/>
        <pt x="620" y="317" on="0"/>
        <pt x="583" y="349" on="0"/>
        <pt x="521" y="368" on="0"/>
      </contour>
    </TTGlyph>
    <TTGlyph name="afii10045" xMin="-21" yMin="-3" xMax="1015" yMax="700">
      <contour>
        <pt x="713" y="644" on="1"/>
        <pt x="725" y="700" on="1"/>
        <pt x="1015" y="700" on="1"/>
        <pt x="1003" y="644" on="1"/>
        <pt x="912" y="644" on="1"/>
        <pt x="787" y="56" on="1"/>
        <pt x="878" y="56" on="1"/>
        <pt x="867" y="0" on="1"/>
        <pt x="577" y="0" on="1"/>
        <pt x="588" y="56" on="1"/>
        <pt x="675" y="56" on="1"/>
        <pt x="800" y="644" on="1"/>
      </contour>
      <contour>
        <pt x="269" y="417" on="1"/>
        <pt x="290" y="421" on="0"/>
        <pt x="347" y="424" on="0"/>
        <pt x="370" y="424" on="1"/>
        <pt x="483" y="424" on="0"/>
        <pt x="607" y="340" on="0"/>
        <pt x="607" y="254" on="1"/>
        <pt x="607" y="194" on="0"/>
        <pt x="558" y="99" on="0"/>
        <pt x="468" y="33" on="0"/>
        <pt x="340" y="-3" on="0"/>
        <pt x="261" y="-3" on="1"/>
        <pt x="256" y="-3" on="0"/>
        <pt x="224" y="-2" on="0"/>
        <pt x="183" y="-1" on="0"/>
        <pt x="139" y="0" on="0"/>
        <pt x="122" y="0" on="1"/>
        <pt x="-21" y="0" on="1"/>
        <pt x="-11" y="56" on="1"/>
        <pt x="80" y="56" on="1"/>
        <pt x="205" y="644" on="1"/>
        <pt x="114" y="644" on="1"/>
        <pt x="126" y="700" on="1"/>
        <pt x="429" y="700" on="1"/>
        <pt x="417" y="644" on="1"/>
        <pt x="317" y="644" on="1"/>
      </contour>
      <contour>
        <pt x="333" y="368" on="1"/>
        <pt x="306" y="368" on="0"/>
        <pt x="272" y="364" on="0"/>
        <pt x="257" y="362" on="1"/>
        <pt x="193" y="58" on="1"/>
        <pt x="199" y="57" on="0"/>
        <pt x="219" y="55" on="0"/>
        <pt x="242" y="54" on="0"/>
        <pt x="263" y="53" on="0"/>
        <pt x="269" y="53" on="1"/>
        <pt x="307" y="53" on="0"/>
        <pt x="383" y="73" on="0"/>
        <pt x="444" y="119" on="0"/>
        <pt x="482" y="193" on="0"/>
        <pt x="482" y="247" on="1"/>
        <pt x="482" y="272" on="0"/>
        <pt x="469" y="317" on="0"/>
        <pt x="436" y="349" on="0"/>
        <pt x="378" y="368" on="0"/>
      </contour>
    </TTGlyph>
    <TTGlyph name="afii10046" xMin="-21" yMin="-3" xMax="622" yMax="700">
      <contour>
        <pt x="269" y="417" on="1"/>
        <pt x="290" y="421" on="0"/>
        <pt x="349" y="424" on="0"/>
        <pt x="372" y="424" on="1"/>
        <pt x="428" y="424" on="0"/>
        <pt x="520" y="405" on="0"/>
        <pt x="586" y="364" on="0"/>
        <pt x="622" y="300" on="0"/>
        <pt x="622" y="255" on="1"/>
        <pt x="622" y="191" on="0"/>
        <pt x="569" y="94" on="0"/>
        <pt x="475" y="30" on="0"/>
        <pt x="342" y="-3" on="0"/>
        <pt x="263" y="-3" on="1"/>
        <pt x="258" y="-3" on="0"/>
        <pt x="225" y="-2" on="0"/>
        <pt x="184" y="-1" on="0"/>
        <pt x="139" y="0" on="0"/>
        <pt x="122" y="0" on="1"/>
        <pt x="-21" y="0" on="1"/>
        <pt x="-11" y="56" on="1"/>
        <pt x="80" y="56" on="1"/>
        <pt x="205" y="644" on="1"/>
        <pt x="114" y="644" on="1"/>
        <pt x="126" y="700" on="1"/>
        <pt x="429" y="700" on="1"/>
        <pt x="417" y="644" on="1"/>
        <pt x="317" y="644" on="1"/>
      </contour>
      <contour>
        <pt x="335" y="368" on="1"/>
        <pt x="308" y="368" on="0"/>
        <pt x="272" y="364" on="0"/>
        <pt x="257" y="362" on="1"/>
        <pt x="193" y="58" on="1"/>
        <pt x="199" y="57" on="0"/>
        <pt x="220" y="55" on="0"/>
        <pt x="243" y="54" on="0"/>
        <pt x="265" y="53" on="0"/>
        <pt x="271" y="53" on="1"/>
        <pt x="311" y="53" on="0"/>
        <pt x="391" y="73" on="0"/>
        <pt x="456" y="120" on="0"/>
        <pt x="497" y="195" on="0"/>
        <pt x="497" y="249" on="1"/>
        <pt x="497" y="274" on="0"/>
        <pt x="482" y="318" on="0"/>
        <pt x="445" y="350" on="0"/>
        <pt x="383" y="368" on="0"/>
      </contour>
    </TTGlyph>
    <TTGlyph name="afii10047" xMin="31" yMin="-12" xMax="662" yMax="712">
      <contour>
        <pt x="227" y="328" on="1"/>
        <pt x="241" y="392" on="1"/>
        <pt x="544" y="392" on="1"/>
        <pt x="545" y="403" on="0"/>
        <pt x="546" y="425" on="0"/>
        <pt x="546" y="436" on="1"/>
        <pt x="546" y="540" on="0"/>
        <pt x="448" y="648" on="0"/>
        <pt x="334" y="648" on="1"/>
        <pt x="301" y="648" on="0"/>
        <pt x="248" y="636" on="0"/>
        <pt x="235" y="629" on="1"/>
        <pt x="217" y="609" on="1"/>
        <pt x="197" y="517" on="1"/>
        <pt x="133" y="517" on="1"/>
        <pt x="166" y="671" on="1"/>
        <pt x="207" y="694" on="0"/>
        <pt x="313" y="712" on="0"/>
        <pt x="361" y="712" on="1"/>
        <pt x="443" y="712" on="0"/>
        <pt x="557" y="671" on="0"/>
        <pt x="629" y="600" on="0"/>
        <pt x="662" y="504" on="0"/>
        <pt x="662" y="450" on="1"/>
        <pt x="662" y="349" on="0"/>
        <pt x="604" y="180" on="0"/>
        <pt x="495" y="57" on="0"/>
        <pt x="340" y="-12" on="0"/>
        <pt x="243" y="-12" on="1"/>
        <pt x="157" y="-12" on="0"/>
        <pt x="51" y="24" on="0"/>
        <pt x="31" y="44" on="1"/>
        <pt x="68" y="217" on="1"/>
        <pt x="132" y="217" on="1"/>
        <pt x="107" y="104" on="1"/>
        <pt x="117" y="83" on="1"/>
        <pt x="131" y="72" on="0"/>
        <pt x="190" y="52" on="0"/>
        <pt x="232" y="52" on="1"/>
        <pt x="281" y="52" on="0"/>
        <pt x="378" y="77" on="0"/>
        <pt x="461" y="140" on="0"/>
        <pt x="523" y="247" on="0"/>
        <pt x="535" y="328" on="1"/>
      </contour>
    </TTGlyph>
    <TTGlyph name="afii10048" xMin="-21" yMin="-12" xMax="1052" yMax="712">
      <contour>
        <pt x="375" y="279" on="1"/>
        <pt x="375" y="292" on="0"/>
        <pt x="375" y="317" on="0"/>
        <pt x="377" y="331" on="1"/>
        <pt x="252" y="331" on="1"/>
        <pt x="193" y="56" on="1"/>
        <pt x="278" y="56" on="1"/>
        <pt x="266" y="0" on="1"/>
        <pt x="-21" y="0" on="1"/>
        <pt x="-10" y="56" on="1"/>
        <pt x="81" y="56" on="1"/>
        <pt x="206" y="644" on="1"/>
        <pt x="115" y="644" on="1"/>
        <pt x="127" y="700" on="1"/>
        <pt x="415" y="700" on="1"/>
        <pt x="403" y="644" on="1"/>
        <pt x="318" y="644" on="1"/>
        <pt x="264" y="387" on="1"/>
        <pt x="387" y="387" on="1"/>
        <pt x="401" y="451" on="0"/>
        <pt x="464" y="568" on="0"/>
        <pt x="561" y="658" on="0"/>
        <pt x="693" y="712" on="0"/>
        <pt x="777" y="712" on="1"/>
        <pt x="844" y="712" on="0"/>
        <pt x="946" y="671" on="0"/>
        <pt x="1016" y="598" on="0"/>
        <pt x="1052" y="494" on="0"/>
        <pt x="1052" y="431" on="1"/>
        <pt x="1052" y="351" on="0"/>
        <pt x="1003" y="192" on="0"/>
        <pt x="905" y="66" on="0"/>
        <pt x="758" y="-12" on="0"/>
        <pt x="660" y="-12" on="1"/>
        <pt x="603" y="-12" on="0"/>
        <pt x="499" y="20" on="0"/>
        <pt x="421" y="90" on="0"/>
        <pt x="375" y="200" on="0"/>
      </contour>
      <contour>
        <pt x="500" y="282" on="1"/>
        <pt x="500" y="218" on="0"/>
        <pt x="525" y="128" on="0"/>
        <pt x="570" y="71" on="0"/>
        <pt x="633" y="44" on="0"/>
        <pt x="671" y="44" on="1"/>
        <pt x="743" y="44" on="0"/>
        <pt x="841" y="118" on="0"/>
        <pt x="901" y="232" on="0"/>
        <pt x="927" y="368" on="0"/>
        <pt x="927" y="430" on="1"/>
        <pt x="927" y="537" on="0"/>
        <pt x="846" y="656" on="0"/>
        <pt x="757" y="656" on="1"/>
        <pt x="692" y="656" on="0"/>
        <pt x="596" y="587" on="0"/>
        <pt x="532" y="479" on="0"/>
        <pt x="500" y="346" on="0"/>
      </contour>
    </TTGlyph>
    <TTGlyph name="afii10049" xMin="-44" yMin="0" xMax="776" yMax="703">
      <contour>
        <pt x="776" y="700" on="1"/>
        <pt x="764" y="644" on="1"/>
        <pt x="673" y="644" on="1"/>
        <pt x="548" y="56" on="1"/>
        <pt x="639" y="56" on="1"/>
        <pt x="627" y="0" on="1"/>
        <pt x="327" y="0" on="1"/>
        <pt x="339" y="56" on="1"/>
        <pt x="436" y="56" on="1"/>
        <pt x="486" y="292" on="1"/>
        <pt x="374" y="292" on="1"/>
        <pt x="374" y="291" on="0"/>
        <pt x="351" y="266" on="0"/>
        <pt x="315" y="225" on="0"/>
        <pt x="269" y="172" on="0"/>
        <pt x="245" y="145" on="1"/>
        <pt x="189" y="81" on="0"/>
        <pt x="118" y="0" on="1"/>
        <pt x="-44" y="0" on="1"/>
        <pt x="-32" y="56" on="1"/>
        <pt x="29" y="56" on="1"/>
        <pt x="270" y="306" on="1"/>
        <pt x="257" y="309" on="0"/>
        <pt x="217" y="328" on="0"/>
        <pt x="179" y="365" on="0"/>
        <pt x="151" y="422" on="0"/>
        <pt x="151" y="462" on="1"/>
        <pt x="151" y="577" on="0"/>
        <pt x="330" y="703" on="0"/>
        <pt x="504" y="703" on="1"/>
        <pt x="527" y="703" on="0"/>
        <pt x="596" y="700" on="0"/>
        <pt x="631" y="700" on="1"/>
      </contour>
      <contour>
        <pt x="418" y="343" on="1"/>
        <pt x="438" y="343" on="0"/>
        <pt x="484" y="345" on="0"/>
        <pt x="498" y="348" on="1"/>
        <pt x="561" y="642" on="1"/>
        <pt x="550" y="644" on="0"/>
        <pt x="509" y="647" on="0"/>
        <pt x="492" y="647" on="1"/>
        <pt x="443" y="647" on="0"/>
        <pt x="364" y="626" on="0"/>
        <pt x="307" y="582" on="0"/>
        <pt x="276" y="512" on="0"/>
        <pt x="276" y="463" on="1"/>
        <pt x="276" y="430" on="0"/>
        <pt x="299" y="384" on="0"/>
        <pt x="338" y="355" on="0"/>
        <pt x="389" y="343" on="0"/>
      </contour>
    </TTGlyph>
    <TTGlyph name="afii10050" xMin="-21" yMin="0" xMax="634" yMax="837">
      <contour>
        <pt x="115" y="644" on="1"/>
        <pt x="127" y="700" on="1"/>
        <pt x="521" y="700" on="1"/>
        <pt x="546" y="722" on="1"/>
        <pt x="570" y="837" on="1"/>
        <pt x="634" y="837" on="1"/>
        <pt x="593" y="644" on="1"/>
        <pt x="318" y="644" on="1"/>
        <pt x="193" y="56" on="1"/>
        <pt x="301" y="56" on="1"/>
        <pt x="289" y="0" on="1"/>
        <pt x="-21" y="0" on="1"/>
        <pt x="-9" y="56" on="1"/>
        <pt x="81" y="56" on="1"/>
        <pt x="206" y="644" on="1"/>
      </contour>
    </TTGlyph>
    <TTGlyph name="afii10051" xMin="73" yMin="-3" xMax="811" yMax="700">
      <contour>
        <pt x="430" y="0" on="1"/>
        <pt x="135" y="0" on="1"/>
        <pt x="146" y="56" on="1"/>
        <pt x="251" y="56" on="1"/>
        <pt x="376" y="644" on="1"/>
        <pt x="197" y="644" on="1"/>
        <pt x="173" y="622" on="1"/>
        <pt x="145" y="493" on="1"/>
        <pt x="73" y="493" on="1"/>
        <pt x="117" y="700" on="1"/>
        <pt x="771" y="700" on="1"/>
        <pt x="727" y="493" on="1"/>
        <pt x="655" y="493" on="1"/>
        <pt x="683" y="622" on="1"/>
        <pt x="667" y="644" on="1"/>
        <pt x="488" y="644" on="1"/>
        <pt x="434" y="389" on="1"/>
        <pt x="472" y="405" on="0"/>
        <pt x="567" y="434" on="0"/>
        <pt x="632" y="434" on="1"/>
        <pt x="728" y="434" on="0"/>
        <pt x="811" y="359" on="0"/>
        <pt x="811" y="277" on="1"/>
        <pt x="811" y="206" on="0"/>
        <pt x="762" y="100" on="0"/>
        <pt x="682" y="31" on="0"/>
        <pt x="579" y="-3" on="0"/>
        <pt x="525" y="-3" on="1"/>
        <pt x="529" y="34" on="1"/>
        <pt x="561" y="39" on="0"/>
        <pt x="621" y="75" on="0"/>
        <pt x="668" y="135" on="0"/>
        <pt x="697" y="220" on="0"/>
        <pt x="697" y="274" on="1"/>
        <pt x="697" y="327" on="0"/>
        <pt x="653" y="380" on="0"/>
        <pt x="596" y="380" on="1"/>
        <pt x="549" y="380" on="0"/>
        <pt x="458" y="357" on="0"/>
        <pt x="424" y="340" on="1"/>
        <pt x="363" y="56" on="1"/>
        <pt x="441" y="56" on="1"/>
      </contour>
    </TTGlyph>
    <TTGlyph name="afii10052" xMin="-21" yMin="0" xMax="640" yMax="914">
      <component glyphName="afii10020" x="0" y="0" flags="0x204"/>
      <component glyphName="uniF6C9" x="21" y="0" flags="0x4"/>
    </TTGlyph>
    <TTGlyph name="afii10053" xMin="76" yMin="-12" xMax="710" yMax="712">
      <contour>
        <pt x="559" y="184" on="1"/>
        <pt x="623" y="184" on="1"/>
        <pt x="590" y="27" on="1"/>
        <pt x="573" y="18" on="0"/>
        <pt x="526" y="4" on="0"/>
        <pt x="474" y="-7" on="0"/>
        <pt x="420" y="-12" on="0"/>
        <pt x="395" y="-12" on="1"/>
        <pt x="297" y="-12" on="0"/>
        <pt x="172" y="34" on="0"/>
        <pt x="102" y="109" on="0"/>
        <pt x="76" y="203" on="0"/>
        <pt x="76" y="252" on="1"/>
        <pt x="76" y="352" on="0"/>
        <pt x="136" y="521" on="0"/>
        <pt x="248" y="644" on="0"/>
        <pt x="409" y="712" on="0"/>
        <pt x="511" y="712" on="1"/>
        <pt x="584" y="712" on="0"/>
        <pt x="675" y="691" on="0"/>
        <pt x="710" y="674" on="1"/>
        <pt x="673" y="503" on="1"/>
        <pt x="609" y="503" on="1"/>
        <pt x="632" y="608" on="1"/>
        <pt x="622" y="628" on="1"/>
        <pt x="611" y="633" on="0"/>
        <pt x="559" y="648" on="0"/>
        <pt x="507" y="648" on="1"/>
        <pt x="453" y="648" on="0"/>
        <pt x="360" y="612" on="0"/>
        <pt x="286" y="546" on="0"/>
        <pt x="232" y="451" on="0"/>
        <pt x="217" y="392" on="1"/>
        <pt x="554" y="392" on="1"/>
        <pt x="541" y="328" on="1"/>
        <pt x="205" y="328" on="1"/>
        <pt x="203" y="310" on="0"/>
        <pt x="201" y="274" on="0"/>
        <pt x="201" y="255" on="1"/>
        <pt x="201" y="212" on="0"/>
        <pt x="224" y="138" on="0"/>
        <pt x="275" y="83" on="0"/>
        <pt x="356" y="52" on="0"/>
        <pt x="413" y="52" on="1"/>
        <pt x="449" y="52" on="0"/>
        <pt x="508" y="63" on="0"/>
        <pt x="522" y="72" on="1"/>
        <pt x="540" y="91" on="1"/>
      </contour>
    </TTGlyph>
    <TTGlyph name="afii10054" xMin="25" yMin="-12" xMax="597" yMax="712">
      <component glyphName="S" x="0" y="0" flags="0x204"/>
    </TTGlyph>
    <TTGlyph name="afii10055" xMin="-1" yMin="0" xMax="442" yMax="700">
      <component glyphName="I" x="0" y="0" flags="0x204"/>
    </TTGlyph>
    <TTGlyph name="afii10055.alt" xMin="-1" yMin="0" xMax="442" yMax="880">
      <component glyphName="I" x="0" y="0" flags="0x204"/>
      <component glyphName="uniF40B" x="-10" y="0" flags="0x4"/>
    </TTGlyph>
    <TTGlyph name="afii10056" xMin="-1" yMin="0" xMax="470" yMax="854">
      <contour>
        <pt x="137" y="796" on="1"/>
        <pt x="137" y="825" on="0"/>
        <pt x="174" y="854" on="0"/>
        <pt x="202" y="854" on="1"/>
        <pt x="231" y="854" on="0"/>
        <pt x="269" y="825" on="0"/>
        <pt x="269" y="796" on="1"/>
        <pt x="269" y="770" on="0"/>
        <pt x="231" y="742" on="0"/>
        <pt x="202" y="742" on="1"/>
        <pt x="174" y="742" on="0"/>
        <pt x="137" y="770" on="0"/>
      </contour>
      <contour>
        <pt x="338" y="796" on="1"/>
        <pt x="338" y="825" on="0"/>
        <pt x="376" y="854" on="0"/>
        <pt x="403" y="854" on="1"/>
        <pt x="432" y="854" on="0"/>
        <pt x="470" y="825" on="0"/>
        <pt x="470" y="796" on="1"/>
        <pt x="470" y="770" on="0"/>
        <pt x="432" y="742" on="0"/>
        <pt x="403" y="742" on="1"/>
        <pt x="376" y="742" on="0"/>
        <pt x="338" y="770" on="0"/>
      </contour>
      <contour>
        <pt x="293" y="0" on="1"/>
        <pt x="-1" y="0" on="1"/>
        <pt x="11" y="56" on="1"/>
        <pt x="102" y="56" on="1"/>
        <pt x="227" y="644" on="1"/>
        <pt x="136" y="644" on="1"/>
        <pt x="148" y="700" on="1"/>
        <pt x="442" y="700" on="1"/>
        <pt x="430" y="644" on="1"/>
        <pt x="339" y="644" on="1"/>
        <pt x="214" y="56" on="1"/>
        <pt x="305" y="56" on="1"/>
      </contour>
    </TTGlyph>
    <TTGlyph name="afii10057" xMin="-41" yMin="-160" xMax="423" yMax="700">
      <component glyphName="J" x="0" y="0" flags="0x204"/>
    </TTGlyph>
    <TTGlyph name="afii10058" xMin="-28" yMin="-3" xMax="1004" yMax="700">
      <contour>
        <pt x="651" y="417" on="1"/>
        <pt x="672" y="421" on="0"/>
        <pt x="731" y="424" on="0"/>
        <pt x="754" y="424" on="1"/>
        <pt x="810" y="424" on="0"/>
        <pt x="902" y="405" on="0"/>
        <pt x="968" y="364" on="0"/>
        <pt x="1004" y="300" on="0"/>
        <pt x="1004" y="255" on="1"/>
        <pt x="1004" y="191" on="0"/>
        <pt x="951" y="94" on="0"/>
        <pt x="857" y="30" on="0"/>
        <pt x="724" y="-3" on="0"/>
        <pt x="645" y="-3" on="1"/>
        <pt x="640" y="-3" on="0"/>
        <pt x="607" y="-2" on="0"/>
        <pt x="566" y="-1" on="0"/>
        <pt x="521" y="0" on="0"/>
        <pt x="504" y="0" on="1"/>
        <pt x="361" y="0" on="1"/>
        <pt x="371" y="56" on="1"/>
        <pt x="462" y="56" on="1"/>
        <pt x="587" y="644" on="1"/>
        <pt x="378" y="644" on="1"/>
        <pt x="354" y="550" on="0"/>
        <pt x="312" y="404" on="0"/>
        <pt x="273" y="292" on="0"/>
        <pt x="237" y="207" on="0"/>
        <pt x="203" y="142" on="0"/>
        <pt x="169" y="91" on="0"/>
        <pt x="152" y="68" on="1"/>
        <pt x="139" y="51" on="0"/>
        <pt x="105" y="17" on="0"/>
        <pt x="87" y="0" on="1"/>
        <pt x="-28" y="0" on="1"/>
        <pt x="-2" y="126" on="1"/>
        <pt x="114" y="126" on="1"/>
        <pt x="135" y="151" on="0"/>
        <pt x="183" y="234" on="0"/>
        <pt x="234" y="359" on="0"/>
        <pt x="285" y="531" on="0"/>
        <pt x="309" y="644" on="1"/>
        <pt x="205" y="644" on="1"/>
        <pt x="217" y="700" on="1"/>
        <pt x="811" y="700" on="1"/>
        <pt x="799" y="644" on="1"/>
        <pt x="699" y="644" on="1"/>
      </contour>
      <contour>
        <pt x="717" y="368" on="1"/>
        <pt x="690" y="368" on="0"/>
        <pt x="654" y="364" on="0"/>
        <pt x="639" y="362" on="1"/>
        <pt x="575" y="58" on="1"/>
        <pt x="581" y="57" on="0"/>
        <pt x="602" y="55" on="0"/>
        <pt x="625" y="54" on="0"/>
        <pt x="647" y="53" on="0"/>
        <pt x="653" y="53" on="1"/>
        <pt x="693" y="53" on="0"/>
        <pt x="773" y="73" on="0"/>
        <pt x="838" y="120" on="0"/>
        <pt x="879" y="195" on="0"/>
        <pt x="879" y="249" on="1"/>
        <pt x="879" y="274" on="0"/>
        <pt x="864" y="318" on="0"/>
        <pt x="827" y="350" on="0"/>
        <pt x="765" y="368" on="0"/>
      </contour>
    </TTGlyph>
    <TTGlyph name="afii10059" xMin="-21" yMin="-3" xMax="1070" yMax="700">
      <contour>
        <pt x="727" y="397" on="1"/>
        <pt x="748" y="400" on="0"/>
        <pt x="806" y="404" on="0"/>
        <pt x="829" y="404" on="1"/>
        <pt x="884" y="404" on="0"/>
        <pt x="973" y="382" on="0"/>
        <pt x="1036" y="338" on="0"/>
        <pt x="1070" y="275" on="0"/>
        <pt x="1070" y="233" on="1"/>
        <pt x="1070" y="116" on="0"/>
        <pt x="889" y="-3" on="0"/>
        <pt x="726" y="-3" on="1"/>
        <pt x="720" y="-3" on="0"/>
        <pt x="688" y="-2" on="0"/>
        <pt x="647" y="-1" on="0"/>
        <pt x="603" y="0" on="0"/>
        <pt x="586" y="0" on="1"/>
        <pt x="448" y="0" on="1"/>
        <pt x="459" y="56" on="1"/>
        <pt x="542" y="56" on="1"/>
        <pt x="601" y="331" on="1"/>
        <pt x="251" y="331" on="1"/>
        <pt x="192" y="56" on="1"/>
        <pt x="275" y="56" on="1"/>
        <pt x="264" y="0" on="1"/>
        <pt x="-21" y="0" on="1"/>
        <pt x="-11" y="56" on="1"/>
        <pt x="80" y="56" on="1"/>
        <pt x="205" y="644" on="1"/>
        <pt x="114" y="644" on="1"/>
        <pt x="126" y="700" on="1"/>
        <pt x="412" y="700" on="1"/>
        <pt x="400" y="644" on="1"/>
        <pt x="317" y="644" on="1"/>
        <pt x="263" y="387" on="1"/>
        <pt x="613" y="387" on="1"/>
        <pt x="667" y="644" on="1"/>
        <pt x="584" y="644" on="1"/>
        <pt x="596" y="700" on="1"/>
        <pt x="892" y="700" on="1"/>
        <pt x="880" y="644" on="1"/>
        <pt x="779" y="644" on="1"/>
      </contour>
      <contour>
        <pt x="791" y="348" on="1"/>
        <pt x="765" y="348" on="0"/>
        <pt x="730" y="344" on="0"/>
        <pt x="715" y="342" on="1"/>
        <pt x="655" y="58" on="1"/>
        <pt x="659" y="56" on="0"/>
        <pt x="680" y="55" on="0"/>
        <pt x="704" y="53" on="0"/>
        <pt x="726" y="53" on="0"/>
        <pt x="732" y="53" on="1"/>
        <pt x="770" y="53" on="0"/>
        <pt x="846" y="71" on="0"/>
        <pt x="907" y="114" on="0"/>
        <pt x="945" y="185" on="0"/>
        <pt x="945" y="239" on="1"/>
        <pt x="945" y="261" on="0"/>
        <pt x="931" y="301" on="0"/>
        <pt x="895" y="331" on="0"/>
        <pt x="836" y="348" on="0"/>
      </contour>
    </TTGlyph>
    <TTGlyph name="afii10060" xMin="63" yMin="0" xMax="832" yMax="700">
      <contour>
        <pt x="419" y="0" on="1"/>
        <pt x="124" y="0" on="1"/>
        <pt x="136" y="56" on="1"/>
        <pt x="241" y="56" on="1"/>
        <pt x="366" y="644" on="1"/>
        <pt x="187" y="644" on="1"/>
        <pt x="163" y="622" on="1"/>
        <pt x="135" y="493" on="1"/>
        <pt x="63" y="493" on="1"/>
        <pt x="107" y="700" on="1"/>
        <pt x="761" y="700" on="1"/>
        <pt x="717" y="493" on="1"/>
        <pt x="645" y="493" on="1"/>
        <pt x="673" y="622" on="1"/>
        <pt x="657" y="644" on="1"/>
        <pt x="478" y="644" on="1"/>
        <pt x="424" y="388" on="1"/>
        <pt x="458" y="404" on="0"/>
        <pt x="554" y="433" on="0"/>
        <pt x="617" y="433" on="1"/>
        <pt x="698" y="433" on="0"/>
        <pt x="785" y="358" on="0"/>
        <pt x="785" y="287" on="1"/>
        <pt x="785" y="273" on="0"/>
        <pt x="782" y="244" on="0"/>
        <pt x="778" y="228" on="1"/>
        <pt x="741" y="56" on="1"/>
        <pt x="832" y="56" on="1"/>
        <pt x="820" y="0" on="1"/>
        <pt x="617" y="0" on="1"/>
        <pt x="660" y="205" on="1"/>
        <pt x="669" y="247" on="0"/>
        <pt x="669" y="278" on="1"/>
        <pt x="669" y="328" on="0"/>
        <pt x="621" y="377" on="0"/>
        <pt x="565" y="377" on="1"/>
        <pt x="517" y="377" on="0"/>
        <pt x="448" y="353" on="0"/>
        <pt x="413" y="336" on="1"/>
        <pt x="353" y="56" on="1"/>
        <pt x="431" y="56" on="1"/>
      </contour>
    </TTGlyph>
    <TTGlyph name="afii10061" xMin="-21" yMin="0" xMax="776" yMax="914">
      <component glyphName="K" x="0" y="0" flags="0x204"/>
      <component glyphName="uniF6C9" x="66" y="0" flags="0x4"/>
    </TTGlyph>
    <TTGlyph name="afii10062" xMin="90" yMin="0" xMax="834" yMax="880">
      <component glyphName="afii10037" x="0" y="0" flags="0x204"/>
      <component glyphName="uniF6D1" x="122" y="0" flags="0x4"/>
    </TTGlyph>
    <TTGlyph name="afii10065" xMin="46" yMin="-10" xMax="544" yMax="535">
      <component glyphName="a" x="0" y="0" flags="0x204"/>
    </TTGlyph>
    <TTGlyph name="afii10066" xMin="44" yMin="-10" xMax="597" yMax="780">
      <contour>
        <pt x="44" y="201" on="1"/>
        <pt x="44" y="274" on="0"/>
        <pt x="70" y="420" on="0"/>
        <pt x="124" y="548" on="0"/>
        <pt x="206" y="649" on="0"/>
        <pt x="262" y="677" on="1"/>
        <pt x="318" y="705" on="0"/>
        <pt x="442" y="721" on="0"/>
        <pt x="508" y="725" on="1"/>
        <pt x="543" y="780" on="1"/>
        <pt x="597" y="780" on="1"/>
        <pt x="551" y="634" on="1"/>
        <pt x="463" y="634" on="0"/>
        <pt x="328" y="624" on="0"/>
        <pt x="226" y="576" on="0"/>
        <pt x="152" y="476" on="0"/>
        <pt x="125" y="386" on="1"/>
        <pt x="130" y="386" on="1"/>
        <pt x="180" y="456" on="0"/>
        <pt x="304" y="515" on="0"/>
        <pt x="373" y="515" on="1"/>
        <pt x="443" y="515" on="0"/>
        <pt x="530" y="420" on="0"/>
        <pt x="530" y="337" on="1"/>
        <pt x="530" y="274" on="0"/>
        <pt x="489" y="150" on="0"/>
        <pt x="413" y="51" on="0"/>
        <pt x="305" y="-10" on="0"/>
        <pt x="238" y="-10" on="1"/>
        <pt x="149" y="-10" on="0"/>
        <pt x="44" y="93" on="0"/>
      </contour>
      <contour>
        <pt x="323" y="448" on="1"/>
        <pt x="277" y="448" on="0"/>
        <pt x="198" y="396" on="0"/>
        <pt x="170" y="362" on="1"/>
        <pt x="157" y="322" on="0"/>
        <pt x="142" y="239" on="0"/>
        <pt x="142" y="201" on="1"/>
        <pt x="142" y="167" on="0"/>
        <pt x="155" y="107" on="0"/>
        <pt x="181" y="63" on="0"/>
        <pt x="222" y="37" on="0"/>
        <pt x="251" y="37" on="1"/>
        <pt x="282" y="37" on="0"/>
        <pt x="343" y="83" on="0"/>
        <pt x="391" y="161" on="0"/>
        <pt x="421" y="265" on="0"/>
        <pt x="421" y="324" on="1"/>
        <pt x="421" y="385" on="0"/>
        <pt x="368" y="448" on="0"/>
      </contour>
    </TTGlyph>
    <TTGlyph name="afii10067" xMin="44" yMin="-10" xMax="508" yMax="535">
      <contour>
        <pt x="508" y="436" on="1"/>
        <pt x="508" y="387" on="0"/>
        <pt x="429" y="316" on="0"/>
        <pt x="356" y="291" on="1"/>
        <pt x="393" y="289" on="0"/>
        <pt x="443" y="269" on="0"/>
        <pt x="474" y="239" on="0"/>
        <pt x="487" y="203" on="0"/>
        <pt x="487" y="187" on="1"/>
        <pt x="487" y="153" on="0"/>
        <pt x="452" y="83" on="0"/>
        <pt x="388" y="26" on="0"/>
        <pt x="300" y="-10" on="0"/>
        <pt x="246" y="-10" on="1"/>
        <pt x="196" y="-10" on="0"/>
        <pt x="121" y="16" on="0"/>
        <pt x="70" y="63" on="0"/>
        <pt x="44" y="126" on="0"/>
        <pt x="44" y="163" on="1"/>
        <pt x="44" y="218" on="0"/>
        <pt x="66" y="314" on="0"/>
        <pt x="105" y="394" on="0"/>
        <pt x="158" y="457" on="0"/>
        <pt x="189" y="480" on="1"/>
        <pt x="222" y="504" on="0"/>
        <pt x="314" y="535" on="0"/>
        <pt x="377" y="535" on="1"/>
        <pt x="404" y="535" on="0"/>
        <pt x="452" y="523" on="0"/>
        <pt x="487" y="498" on="0"/>
        <pt x="508" y="461" on="0"/>
      </contour>
      <contour>
        <pt x="383" y="169" on="1"/>
        <pt x="383" y="212" on="0"/>
        <pt x="337" y="253" on="0"/>
        <pt x="284" y="261" on="1"/>
        <pt x="272" y="259" on="0"/>
        <pt x="240" y="256" on="0"/>
        <pt x="206" y="253" on="0"/>
        <pt x="171" y="250" on="0"/>
        <pt x="156" y="249" on="1"/>
        <pt x="148" y="219" on="0"/>
        <pt x="148" y="172" on="1"/>
        <pt x="148" y="112" on="0"/>
        <pt x="201" y="37" on="0"/>
        <pt x="258" y="37" on="1"/>
        <pt x="280" y="37" on="0"/>
        <pt x="325" y="55" on="0"/>
        <pt x="361" y="89" on="0"/>
        <pt x="383" y="138" on="0"/>
      </contour>
      <contour>
        <pt x="356" y="488" on="1"/>
        <pt x="327" y="488" on="0"/>
        <pt x="271" y="467" on="0"/>
        <pt x="220" y="421" on="0"/>
        <pt x="177" y="345" on="0"/>
        <pt x="161" y="290" on="1"/>
        <pt x="212" y="290" on="0"/>
        <pt x="301" y="313" on="0"/>
        <pt x="368" y="352" on="0"/>
        <pt x="406" y="404" on="0"/>
        <pt x="406" y="432" on="1"/>
        <pt x="406" y="454" on="0"/>
        <pt x="384" y="488" on="0"/>
      </contour>
    </TTGlyph>
    <TTGlyph name="afii10068" xMin="17" yMin="-10" xMax="405" yMax="535">
      <contour>
        <pt x="17" y="100" on="1"/>
        <pt x="17" y="136" on="0"/>
        <pt x="58" y="195" on="0"/>
        <pt x="121" y="246" on="0"/>
        <pt x="193" y="292" on="0"/>
        <pt x="256" y="339" on="0"/>
        <pt x="297" y="388" on="0"/>
        <pt x="297" y="416" on="1"/>
        <pt x="297" y="437" on="0"/>
        <pt x="276" y="471" on="0"/>
        <pt x="250" y="471" on="1"/>
        <pt x="228" y="471" on="0"/>
        <pt x="186" y="454" on="0"/>
        <pt x="148" y="430" on="0"/>
        <pt x="117" y="404" on="0"/>
        <pt x="107" y="394" on="1"/>
        <pt x="79" y="428" on="1"/>
        <pt x="88" y="444" on="0"/>
        <pt x="128" y="482" on="0"/>
        <pt x="182" y="514" on="0"/>
        <pt x="245" y="535" on="0"/>
        <pt x="278" y="535" on="1"/>
        <pt x="310" y="535" on="0"/>
        <pt x="358" y="519" on="0"/>
        <pt x="389" y="492" on="0"/>
        <pt x="405" y="457" on="0"/>
        <pt x="405" y="438" on="1"/>
        <pt x="405" y="399" on="0"/>
        <pt x="364" y="337" on="0"/>
        <pt x="301" y="286" on="0"/>
        <pt x="229" y="241" on="0"/>
        <pt x="166" y="196" on="0"/>
        <pt x="125" y="148" on="0"/>
        <pt x="125" y="120" on="1"/>
        <pt x="125" y="93" on="0"/>
        <pt x="157" y="54" on="0"/>
        <pt x="189" y="54" on="1"/>
        <pt x="216" y="54" on="0"/>
        <pt x="266" y="72" on="0"/>
        <pt x="307" y="97" on="0"/>
        <pt x="339" y="124" on="0"/>
        <pt x="349" y="134" on="1"/>
        <pt x="383" y="103" on="1"/>
        <pt x="369" y="84" on="0"/>
        <pt x="322" y="44" on="0"/>
        <pt x="261" y="11" on="0"/>
        <pt x="187" y="-10" on="0"/>
        <pt x="145" y="-10" on="1"/>
        <pt x="119" y="-10" on="0"/>
        <pt x="73" y="6" on="0"/>
        <pt x="38" y="35" on="0"/>
        <pt x="17" y="76" on="0"/>
      </contour>
    </TTGlyph>
    <TTGlyph name="afii10069" xMin="32" yMin="-10" xMax="530" yMax="750">
      <contour>
        <pt x="32" y="177" on="1"/>
        <pt x="32" y="246" on="0"/>
        <pt x="78" y="372" on="0"/>
        <pt x="162" y="468" on="0"/>
        <pt x="282" y="525" on="0"/>
        <pt x="356" y="525" on="1"/>
        <pt x="376" y="525" on="0"/>
        <pt x="415" y="516" on="0"/>
        <pt x="427" y="508" on="1"/>
        <pt x="427" y="541" on="0"/>
        <pt x="413" y="605" on="0"/>
        <pt x="380" y="655" on="0"/>
        <pt x="327" y="686" on="0"/>
        <pt x="289" y="686" on="1"/>
        <pt x="254" y="686" on="0"/>
        <pt x="195" y="663" on="0"/>
        <pt x="170" y="650" on="1"/>
        <pt x="151" y="687" on="1"/>
        <pt x="163" y="700" on="0"/>
        <pt x="203" y="723" on="0"/>
        <pt x="251" y="740" on="0"/>
        <pt x="304" y="750" on="0"/>
        <pt x="329" y="750" on="1"/>
        <pt x="372" y="750" on="0"/>
        <pt x="445" y="720" on="0"/>
        <pt x="499" y="656" on="0"/>
        <pt x="530" y="558" on="0"/>
        <pt x="530" y="490" on="1"/>
        <pt x="530" y="383" on="0"/>
        <pt x="481" y="200" on="0"/>
        <pt x="393" y="66" on="0"/>
        <pt x="273" y="-10" on="0"/>
        <pt x="203" y="-10" on="1"/>
        <pt x="125" y="-10" on="0"/>
        <pt x="32" y="87" on="0"/>
      </contour>
      <contour>
        <pt x="346" y="471" on="1"/>
        <pt x="287" y="471" on="0"/>
        <pt x="207" y="412" on="0"/>
        <pt x="157" y="323" on="0"/>
        <pt x="136" y="217" on="0"/>
        <pt x="136" y="170" on="1"/>
        <pt x="136" y="147" on="0"/>
        <pt x="145" y="102" on="0"/>
        <pt x="166" y="66" on="0"/>
        <pt x="201" y="44" on="0"/>
        <pt x="227" y="44" on="1"/>
        <pt x="261" y="44" on="0"/>
        <pt x="332" y="102" on="0"/>
        <pt x="389" y="209" on="0"/>
        <pt x="426" y="358" on="0"/>
        <pt x="426" y="449" on="1"/>
        <pt x="403" y="462" on="0"/>
        <pt x="366" y="471" on="0"/>
      </contour>
    </TTGlyph>
    <TTGlyph name="afii10070" xMin="44" yMin="-10" xMax="481" yMax="535">
      <component glyphName="e" x="0" y="0" flags="0x204"/>
    </TTGlyph>
    <TTGlyph name="afii10071" xMin="44" yMin="-10" xMax="535" yMax="752">
      <component glyphName="e" x="0" y="0" flags="0x204"/>
      <component glyphName="dieresis" x="-6" y="0" flags="0x4"/>
    </TTGlyph>
    <TTGlyph name="afii10072" xMin="-15" yMin="-6" xMax="925" yMax="531">
      <contour>
        <pt x="58" y="433" on="1"/>
        <pt x="88" y="481" on="0"/>
        <pt x="182" y="531" on="0"/>
        <pt x="224" y="531" on="1"/>
        <pt x="249" y="531" on="0"/>
        <pt x="289" y="509" on="0"/>
        <pt x="315" y="470" on="0"/>
        <pt x="329" y="419" on="0"/>
        <pt x="329" y="391" on="1"/>
        <pt x="329" y="366" on="0"/>
        <pt x="324" y="315" on="0"/>
        <pt x="319" y="290" on="1"/>
        <pt x="420" y="290" on="1"/>
        <pt x="469" y="525" on="1"/>
        <pt x="561" y="525" on="1"/>
        <pt x="510" y="290" on="1"/>
        <pt x="610" y="290" on="1"/>
        <pt x="640" y="404" on="0"/>
        <pt x="766" y="531" on="0"/>
        <pt x="847" y="531" on="1"/>
        <pt x="864" y="531" on="0"/>
        <pt x="912" y="526" on="0"/>
        <pt x="925" y="518" on="1"/>
        <pt x="899" y="406" on="1"/>
        <pt x="838" y="406" on="1"/>
        <pt x="856" y="476" on="1"/>
        <pt x="853" y="477" on="0"/>
        <pt x="846" y="477" on="0"/>
        <pt x="843" y="477" on="1"/>
        <pt x="811" y="477" on="0"/>
        <pt x="754" y="431" on="0"/>
        <pt x="712" y="350" on="0"/>
        <pt x="687" y="238" on="0"/>
        <pt x="687" y="172" on="1"/>
        <pt x="687" y="115" on="0"/>
        <pt x="722" y="61" on="0"/>
        <pt x="751" y="61" on="1"/>
        <pt x="769" y="61" on="0"/>
        <pt x="819" y="99" on="0"/>
        <pt x="834" y="125" on="1"/>
        <pt x="866" y="101" on="1"/>
        <pt x="857" y="80" on="0"/>
        <pt x="825" y="42" on="0"/>
        <pt x="783" y="12" on="0"/>
        <pt x="734" y="-6" on="0"/>
        <pt x="707" y="-6" on="1"/>
        <pt x="675" y="-6" on="0"/>
        <pt x="630" y="17" on="0"/>
        <pt x="602" y="56" on="0"/>
        <pt x="589" y="110" on="0"/>
        <pt x="589" y="141" on="1"/>
        <pt x="589" y="162" on="0"/>
        <pt x="593" y="216" on="0"/>
        <pt x="598" y="243" on="1"/>
        <pt x="501" y="243" on="1"/>
        <pt x="448" y="0" on="1"/>
        <pt x="357" y="0" on="1"/>
        <pt x="409" y="243" on="1"/>
        <pt x="308" y="243" on="1"/>
        <pt x="293" y="188" on="0"/>
        <pt x="246" y="97" on="0"/>
        <pt x="185" y="31" on="0"/>
        <pt x="110" y="-6" on="0"/>
        <pt x="68" y="-6" on="1"/>
        <pt x="59" y="-6" on="0"/>
        <pt x="35" y="-4" on="0"/>
        <pt x="12" y="1" on="0"/>
        <pt x="-9" y="8" on="0"/>
        <pt x="-15" y="13" on="1"/>
        <pt x="9" y="123" on="1"/>
        <pt x="69" y="123" on="1"/>
        <pt x="53" y="49" on="1"/>
        <pt x="58" y="48" on="0"/>
        <pt x="67" y="48" on="1"/>
        <pt x="101" y="48" on="0"/>
        <pt x="160" y="96" on="0"/>
        <pt x="205" y="181" on="0"/>
        <pt x="231" y="298" on="0"/>
        <pt x="231" y="368" on="1"/>
        <pt x="231" y="464" on="0"/>
        <pt x="176" y="464" on="1"/>
        <pt x="167" y="464" on="0"/>
        <pt x="143" y="453" on="0"/>
        <pt x="118" y="436" on="0"/>
        <pt x="94" y="414" on="0"/>
        <pt x="86" y="403" on="1"/>
      </contour>
    </TTGlyph>
    <TTGlyph name="afii10073" xMin="12" yMin="-10" xMax="441" yMax="535">
      <contour>
        <pt x="40" y="143" on="1"/>
        <pt x="104" y="143" on="1"/>
        <pt x="85" y="71" on="1"/>
        <pt x="93" y="60" on="0"/>
        <pt x="139" y="44" on="0"/>
        <pt x="172" y="44" on="1"/>
        <pt x="199" y="44" on="0"/>
        <pt x="252" y="59" on="0"/>
        <pt x="294" y="88" on="0"/>
        <pt x="320" y="131" on="0"/>
        <pt x="320" y="159" on="1"/>
        <pt x="320" y="202" on="0"/>
        <pt x="275" y="236" on="0"/>
        <pt x="234" y="241" on="1"/>
        <pt x="163" y="241" on="1"/>
        <pt x="163" y="295" on="1"/>
        <pt x="221" y="295" on="1"/>
        <pt x="251" y="304" on="0"/>
        <pt x="294" y="332" on="0"/>
        <pt x="323" y="366" on="0"/>
        <pt x="337" y="402" on="0"/>
        <pt x="337" y="418" on="1"/>
        <pt x="337" y="450" on="0"/>
        <pt x="294" y="481" on="0"/>
        <pt x="240" y="481" on="1"/>
        <pt x="219" y="481" on="0"/>
        <pt x="178" y="468" on="0"/>
        <pt x="159" y="460" on="1"/>
        <pt x="136" y="385" on="1"/>
        <pt x="72" y="385" on="1"/>
        <pt x="98" y="490" on="1"/>
        <pt x="129" y="510" on="0"/>
        <pt x="208" y="535" on="0"/>
        <pt x="274" y="535" on="1"/>
        <pt x="310" y="535" on="0"/>
        <pt x="371" y="523" on="0"/>
        <pt x="416" y="498" on="0"/>
        <pt x="441" y="461" on="0"/>
        <pt x="441" y="436" on="1"/>
        <pt x="441" y="337" on="0"/>
        <pt x="293" y="286" on="1"/>
        <pt x="327" y="286" on="0"/>
        <pt x="377" y="267" on="0"/>
        <pt x="409" y="237" on="0"/>
        <pt x="424" y="199" on="0"/>
        <pt x="424" y="180" on="1"/>
        <pt x="424" y="141" on="0"/>
        <pt x="390" y="72" on="0"/>
        <pt x="325" y="20" on="0"/>
        <pt x="234" y="-10" on="0"/>
        <pt x="177" y="-10" on="1"/>
        <pt x="131" y="-10" on="0"/>
        <pt x="39" y="15" on="0"/>
        <pt x="12" y="40" on="1"/>
      </contour>
    </TTGlyph>
    <TTGlyph name="afii10074" xMin="58" yMin="-10" xMax="550" yMax="525">
      <component glyphName="u" x="0" y="0" flags="0x204"/>
    </TTGlyph>
    <TTGlyph name="afii10075" xMin="58" yMin="-10" xMax="566" yMax="748">
      <component glyphName="u" x="0" y="0" flags="0x204"/>
      <component glyphName="uniF6D4" x="41" y="0" flags="0x4"/>
    </TTGlyph>
    <TTGlyph name="afii10076" xMin="46" yMin="0" xMax="549" yMax="525">
      <contour>
        <pt x="235" y="249" on="1"/>
        <pt x="195" y="249" on="1"/>
        <pt x="145" y="0" on="1"/>
        <pt x="46" y="0" on="1"/>
        <pt x="143" y="471" on="1"/>
        <pt x="65" y="471" on="1"/>
        <pt x="65" y="525" on="1"/>
        <pt x="254" y="525" on="1"/>
        <pt x="203" y="289" on="1"/>
        <pt x="236" y="289" on="1"/>
        <pt x="416" y="436" on="1"/>
        <pt x="416" y="525" on="1"/>
        <pt x="549" y="525" on="1"/>
        <pt x="549" y="471" on="1"/>
        <pt x="318" y="299" on="1"/>
        <pt x="465" y="54" on="1"/>
        <pt x="522" y="54" on="1"/>
        <pt x="522" y="0" on="1"/>
        <pt x="373" y="0" on="1"/>
      </contour>
    </TTGlyph>
    <TTGlyph name="afii10077" xMin="-25" yMin="0" xMax="519" yMax="525">
      <contour>
        <pt x="415" y="471" on="1"/>
        <pt x="282" y="471" on="1"/>
        <pt x="268" y="415" on="0"/>
        <pt x="231" y="281" on="0"/>
        <pt x="180" y="150" on="0"/>
        <pt x="116" y="36" on="0"/>
        <pt x="76" y="0" on="1"/>
        <pt x="-25" y="0" on="1"/>
        <pt x="-25" y="96" on="1"/>
        <pt x="79" y="96" on="1"/>
        <pt x="104" y="126" on="0"/>
        <pt x="147" y="214" on="0"/>
        <pt x="183" y="314" on="0"/>
        <pt x="212" y="421" on="0"/>
        <pt x="223" y="471" on="1"/>
        <pt x="145" y="471" on="1"/>
        <pt x="145" y="525" on="1"/>
        <pt x="519" y="525" on="1"/>
        <pt x="419" y="54" on="1"/>
        <pt x="504" y="54" on="1"/>
        <pt x="504" y="0" on="1"/>
        <pt x="407" y="0" on="1"/>
        <pt x="314" y="0" on="1"/>
      </contour>
    </TTGlyph>
    <TTGlyph name="afii10078" xMin="-22" yMin="0" xMax="733" yMax="525">
      <contour>
        <pt x="253" y="471" on="1"/>
        <pt x="243" y="417" on="0"/>
        <pt x="213" y="283" on="0"/>
        <pt x="171" y="151" on="0"/>
        <pt x="115" y="36" on="0"/>
        <pt x="81" y="0" on="1"/>
        <pt x="-22" y="0" on="1"/>
        <pt x="-22" y="96" on="1"/>
        <pt x="77" y="96" on="1"/>
        <pt x="95" y="118" on="0"/>
        <pt x="131" y="203" on="0"/>
        <pt x="163" y="308" on="0"/>
        <pt x="190" y="421" on="0"/>
        <pt x="199" y="471" on="1"/>
        <pt x="135" y="471" on="1"/>
        <pt x="135" y="525" on="1"/>
        <pt x="350" y="525" on="1"/>
        <pt x="375" y="135" on="1"/>
        <pt x="379" y="135" on="1"/>
        <pt x="595" y="525" on="1"/>
        <pt x="733" y="525" on="1"/>
        <pt x="634" y="54" on="1"/>
        <pt x="717" y="54" on="1"/>
        <pt x="717" y="0" on="1"/>
        <pt x="622" y="0" on="1"/>
        <pt x="530" y="0" on="1"/>
        <pt x="633" y="471" on="1"/>
        <pt x="626" y="471" on="1"/>
        <pt x="393" y="54" on="1"/>
        <pt x="289" y="54" on="1"/>
        <pt x="265" y="471" on="1"/>
      </contour>
    </TTGlyph>
    <TTGlyph name="afii10079" xMin="47" yMin="0" xMax="560" yMax="525">
      <contour>
        <pt x="560" y="525" on="1"/>
        <pt x="462" y="54" on="1"/>
        <pt x="544" y="54" on="1"/>
        <pt x="544" y="0" on="1"/>
        <pt x="358" y="0" on="1"/>
        <pt x="406" y="239" on="1"/>
        <pt x="196" y="239" on="1"/>
        <pt x="143" y="0" on="1"/>
        <pt x="47" y="0" on="1"/>
        <pt x="146" y="471" on="1"/>
        <pt x="76" y="471" on="1"/>
        <pt x="76" y="525" on="1"/>
        <pt x="257" y="525" on="1"/>
        <pt x="206" y="293" on="1"/>
        <pt x="417" y="293" on="1"/>
        <pt x="465" y="525" on="1"/>
      </contour>
    </TTGlyph>
    <TTGlyph name="afii10080" xMin="44" yMin="-10" xMax="520" yMax="535">
      <component glyphName="o" x="0" y="0" flags="0x204"/>
    </TTGlyph>
    <TTGlyph name="afii10081" xMin="46" yMin="0" xMax="543" yMax="535">
      <component glyphName="n" x="0" y="0" flags="0x204"/>
    </TTGlyph>
    <TTGlyph name="afii10082" xMin="0" yMin="-200" xMax="561" yMax="535">
      <component glyphName="p" x="0" y="0" flags="0x204"/>
    </TTGlyph>
    <TTGlyph name="afii10083" xMin="44" yMin="-10" xMax="486" yMax="535">
      <component glyphName="c" x="0" y="0" flags="0x204"/>
    </TTGlyph>
    <TTGlyph name="afii10084" xMin="46" yMin="0" xMax="816" yMax="535">
      <component glyphName="m" x="0" y="0" flags="0x204"/>
    </TTGlyph>
    <TTGlyph name="afii10085" xMin="35" yMin="-200" xMax="520" yMax="525">
      <component glyphName="y" x="0" y="0" flags="0x204"/>
    </TTGlyph>
    <TTGlyph name="afii10086" xMin="44" yMin="-200" xMax="732" yMax="750">
      <contour>
        <pt x="346" y="-150" on="1"/>
        <pt x="422" y="-150" on="1"/>
        <pt x="422" y="-200" on="1"/>
        <pt x="243" y="-200" on="1"/>
        <pt x="303" y="61" on="1"/>
        <pt x="276" y="29" on="0"/>
        <pt x="211" y="-11" on="0"/>
        <pt x="160" y="-11" on="1"/>
        <pt x="136" y="-11" on="0"/>
        <pt x="94" y="3" on="0"/>
        <pt x="62" y="37" on="0"/>
        <pt x="44" y="92" on="0"/>
        <pt x="44" y="133" on="1"/>
        <pt x="44" y="224" on="0"/>
        <pt x="89" y="373" on="0"/>
        <pt x="163" y="478" on="0"/>
        <pt x="260" y="535" on="0"/>
        <pt x="313" y="535" on="1"/>
        <pt x="338" y="535" on="0"/>
        <pt x="378" y="521" on="0"/>
        <pt x="392" y="510" on="1"/>
        <pt x="426" y="696" on="1"/>
        <pt x="353" y="696" on="1"/>
        <pt x="353" y="750" on="1"/>
        <pt x="527" y="750" on="1"/>
        <pt x="473" y="471" on="1"/>
        <pt x="491" y="495" on="0"/>
        <pt x="566" y="535" on="0"/>
        <pt x="617" y="535" on="1"/>
        <pt x="641" y="535" on="0"/>
        <pt x="683" y="520" on="0"/>
        <pt x="714" y="485" on="0"/>
        <pt x="732" y="429" on="0"/>
        <pt x="732" y="388" on="1"/>
        <pt x="732" y="297" on="0"/>
        <pt x="687" y="150" on="0"/>
        <pt x="612" y="46" on="0"/>
        <pt x="514" y="-11" on="0"/>
        <pt x="462" y="-11" on="1"/>
        <pt x="430" y="-11" on="0"/>
        <pt x="392" y="12" on="0"/>
        <pt x="384" y="26" on="1"/>
      </contour>
      <contour>
        <pt x="573" y="481" on="1"/>
        <pt x="535" y="481" on="0"/>
        <pt x="480" y="446" on="0"/>
        <pt x="463" y="423" on="1"/>
        <pt x="391" y="57" on="1"/>
        <pt x="408" y="36" on="0"/>
        <pt x="458" y="36" on="1"/>
        <pt x="495" y="36" on="0"/>
        <pt x="560" y="97" on="0"/>
        <pt x="607" y="196" on="0"/>
        <pt x="634" y="322" on="0"/>
        <pt x="634" y="387" on="1"/>
        <pt x="634" y="438" on="0"/>
        <pt x="600" y="481" on="0"/>
      </contour>
      <contour>
        <pt x="203" y="43" on="1"/>
        <pt x="216" y="43" on="0"/>
        <pt x="246" y="53" on="0"/>
        <pt x="276" y="71" on="0"/>
        <pt x="302" y="94" on="0"/>
        <pt x="311" y="108" on="1"/>
        <pt x="382" y="472" on="1"/>
        <pt x="370" y="480" on="0"/>
        <pt x="341" y="488" on="0"/>
        <pt x="316" y="488" on="1"/>
        <pt x="279" y="488" on="0"/>
        <pt x="215" y="427" on="0"/>
        <pt x="169" y="328" on="0"/>
        <pt x="142" y="201" on="0"/>
        <pt x="142" y="136" on="1"/>
        <pt x="142" y="85" on="0"/>
        <pt x="175" y="43" on="0"/>
      </contour>
    </TTGlyph>
    <TTGlyph name="afii10087" xMin="-5" yMin="0" xMax="499" yMax="525">
      <component glyphName="x" x="0" y="0" flags="0x204"/>
    </TTGlyph>
    <TTGlyph name="afii10088" xMin="58" yMin="-211" xMax="550" yMax="525">
      <contour>
        <pt x="542" y="54" on="1"/>
        <pt x="542" y="0" on="1"/>
        <pt x="529" y="-8" on="0"/>
        <pt x="510" y="-26" on="0"/>
        <pt x="503" y="-38" on="1"/>
        <pt x="503" y="-150" on="1"/>
        <pt x="454" y="-195" on="0"/>
        <pt x="374" y="-211" on="1"/>
        <pt x="356" y="-173" on="1"/>
        <pt x="375" y="-165" on="0"/>
        <pt x="405" y="-149" on="0"/>
        <pt x="422" y="-136" on="1"/>
        <pt x="422" y="-60" on="1"/>
        <pt x="432" y="-42" on="0"/>
        <pt x="470" y="-14" on="0"/>
        <pt x="485" y="-5" on="1"/>
        <pt x="485" y="0" on="1"/>
        <pt x="356" y="0" on="1"/>
        <pt x="377" y="118" on="1"/>
        <pt x="373" y="118" on="1"/>
        <pt x="358" y="97" on="0"/>
        <pt x="314" y="52" on="0"/>
        <pt x="259" y="15" on="0"/>
        <pt x="194" y="-10" on="0"/>
        <pt x="158" y="-10" on="1"/>
        <pt x="112" y="-10" on="0"/>
        <pt x="58" y="39" on="0"/>
        <pt x="58" y="86" on="1"/>
        <pt x="58" y="100" on="0"/>
        <pt x="63" y="145" on="0"/>
        <pt x="69" y="174" on="1"/>
        <pt x="132" y="471" on="1"/>
        <pt x="63" y="471" on="1"/>
        <pt x="63" y="525" on="1"/>
        <pt x="243" y="525" on="1"/>
        <pt x="173" y="226" on="1"/>
        <pt x="167" y="200" on="0"/>
        <pt x="156" y="141" on="0"/>
        <pt x="156" y="113" on="1"/>
        <pt x="156" y="83" on="0"/>
        <pt x="182" y="54" on="0"/>
        <pt x="203" y="54" on="1"/>
        <pt x="237" y="54" on="0"/>
        <pt x="298" y="86" on="0"/>
        <pt x="347" y="129" on="0"/>
        <pt x="380" y="175" on="0"/>
        <pt x="388" y="190" on="1"/>
        <pt x="455" y="525" on="1"/>
        <pt x="550" y="525" on="1"/>
        <pt x="459" y="54" on="1"/>
      </contour>
    </TTGlyph>
    <TTGlyph name="afii10089" xMin="32" yMin="0" xMax="499" yMax="525">
      <contour>
        <pt x="476" y="54" on="1"/>
        <pt x="476" y="0" on="1"/>
        <pt x="290" y="0" on="1"/>
        <pt x="345" y="248" on="1"/>
        <pt x="340" y="248" on="1"/>
        <pt x="293" y="205" on="0"/>
        <pt x="205" y="159" on="0"/>
        <pt x="148" y="159" on="1"/>
        <pt x="110" y="159" on="0"/>
        <pt x="58" y="203" on="0"/>
        <pt x="58" y="249" on="1"/>
        <pt x="58" y="268" on="0"/>
        <pt x="63" y="309" on="0"/>
        <pt x="74" y="361" on="0"/>
        <pt x="89" y="427" on="0"/>
        <pt x="100" y="471" on="1"/>
        <pt x="32" y="471" on="1"/>
        <pt x="32" y="525" on="1"/>
        <pt x="212" y="525" on="1"/>
        <pt x="189" y="435" on="0"/>
        <pt x="156" y="316" on="0"/>
        <pt x="156" y="274" on="1"/>
        <pt x="156" y="252" on="0"/>
        <pt x="182" y="226" on="0"/>
        <pt x="208" y="226" on="1"/>
        <pt x="226" y="226" on="0"/>
        <pt x="267" y="239" on="0"/>
        <pt x="307" y="261" on="0"/>
        <pt x="343" y="292" on="0"/>
        <pt x="356" y="310" on="1"/>
        <pt x="405" y="525" on="1"/>
        <pt x="499" y="525" on="1"/>
        <pt x="396" y="54" on="1"/>
      </contour>
    </TTGlyph>
    <TTGlyph name="afii10090" xMin="57" yMin="-10" xMax="815" yMax="525">
      <contour>
        <pt x="174" y="210" on="1"/>
        <pt x="168" y="184" on="0"/>
        <pt x="157" y="129" on="0"/>
        <pt x="157" y="112" on="1"/>
        <pt x="157" y="86" on="0"/>
        <pt x="183" y="54" on="0"/>
        <pt x="215" y="54" on="1"/>
        <pt x="232" y="54" on="0"/>
        <pt x="271" y="72" on="0"/>
        <pt x="309" y="99" on="0"/>
        <pt x="341" y="133" on="0"/>
        <pt x="350" y="149" on="1"/>
        <pt x="434" y="525" on="1"/>
        <pt x="526" y="525" on="1"/>
        <pt x="463" y="230" on="1"/>
        <pt x="456" y="198" on="0"/>
        <pt x="446" y="137" on="0"/>
        <pt x="446" y="105" on="1"/>
        <pt x="446" y="82" on="0"/>
        <pt x="468" y="54" on="0"/>
        <pt x="488" y="54" on="1"/>
        <pt x="510" y="54" on="0"/>
        <pt x="552" y="71" on="0"/>
        <pt x="591" y="98" on="0"/>
        <pt x="625" y="133" on="0"/>
        <pt x="638" y="152" on="1"/>
        <pt x="716" y="525" on="1"/>
        <pt x="815" y="525" on="1"/>
        <pt x="722" y="54" on="1"/>
        <pt x="790" y="54" on="1"/>
        <pt x="790" y="0" on="1"/>
        <pt x="633" y="0" on="1"/>
        <pt x="633" y="96" on="1"/>
        <pt x="629" y="96" on="1"/>
        <pt x="616" y="78" on="0"/>
        <pt x="580" y="40" on="0"/>
        <pt x="533" y="10" on="0"/>
        <pt x="476" y="-10" on="0"/>
        <pt x="443" y="-10" on="1"/>
        <pt x="403" y="-10" on="0"/>
        <pt x="351" y="35" on="0"/>
        <pt x="351" y="91" on="1"/>
        <pt x="303" y="45" on="0"/>
        <pt x="214" y="-10" on="0"/>
        <pt x="157" y="-10" on="1"/>
        <pt x="57" y="-10" on="0"/>
        <pt x="57" y="91" on="1"/>
        <pt x="57" y="118" on="0"/>
        <pt x="68" y="176" on="0"/>
        <pt x="76" y="210" on="1"/>
        <pt x="140" y="471" on="1"/>
        <pt x="57" y="471" on="1"/>
        <pt x="57" y="525" on="1"/>
        <pt x="247" y="525" on="1"/>
      </contour>
    </TTGlyph>
    <TTGlyph name="afii10091" xMin="57" yMin="-211" xMax="815" yMax="525">
      <contour>
        <pt x="174" y="210" on="1"/>
        <pt x="168" y="184" on="0"/>
        <pt x="157" y="129" on="0"/>
        <pt x="157" y="112" on="1"/>
        <pt x="157" y="86" on="0"/>
        <pt x="183" y="54" on="0"/>
        <pt x="215" y="54" on="1"/>
        <pt x="232" y="54" on="0"/>
        <pt x="271" y="72" on="0"/>
        <pt x="309" y="99" on="0"/>
        <pt x="341" y="133" on="0"/>
        <pt x="350" y="149" on="1"/>
        <pt x="434" y="525" on="1"/>
        <pt x="526" y="525" on="1"/>
        <pt x="463" y="230" on="1"/>
        <pt x="456" y="198" on="0"/>
        <pt x="446" y="137" on="0"/>
        <pt x="446" y="105" on="1"/>
        <pt x="446" y="82" on="0"/>
        <pt x="468" y="54" on="0"/>
        <pt x="488" y="54" on="1"/>
        <pt x="510" y="54" on="0"/>
        <pt x="552" y="71" on="0"/>
        <pt x="591" y="98" on="0"/>
        <pt x="625" y="133" on="0"/>
        <pt x="638" y="152" on="1"/>
        <pt x="716" y="525" on="1"/>
        <pt x="815" y="525" on="1"/>
        <pt x="722" y="54" on="1"/>
        <pt x="805" y="54" on="1"/>
        <pt x="805" y="0" on="1"/>
        <pt x="792" y="-8" on="0"/>
        <pt x="773" y="-26" on="0"/>
        <pt x="766" y="-38" on="1"/>
        <pt x="766" y="-150" on="1"/>
        <pt x="717" y="-195" on="0"/>
        <pt x="637" y="-211" on="1"/>
        <pt x="619" y="-173" on="1"/>
        <pt x="638" y="-165" on="0"/>
        <pt x="668" y="-149" on="0"/>
        <pt x="685" y="-136" on="1"/>
        <pt x="685" y="-60" on="1"/>
        <pt x="695" y="-42" on="0"/>
        <pt x="733" y="-14" on="0"/>
        <pt x="748" y="-5" on="1"/>
        <pt x="748" y="0" on="1"/>
        <pt x="633" y="0" on="1"/>
        <pt x="633" y="96" on="1"/>
        <pt x="629" y="96" on="1"/>
        <pt x="616" y="78" on="0"/>
        <pt x="580" y="40" on="0"/>
        <pt x="533" y="10" on="0"/>
        <pt x="476" y="-10" on="0"/>
        <pt x="443" y="-10" on="1"/>
        <pt x="403" y="-10" on="0"/>
        <pt x="351" y="35" on="0"/>
        <pt x="351" y="91" on="1"/>
        <pt x="303" y="45" on="0"/>
        <pt x="214" y="-10" on="0"/>
        <pt x="157" y="-10" on="1"/>
        <pt x="57" y="-10" on="0"/>
        <pt x="57" y="91" on="1"/>
        <pt x="57" y="118" on="0"/>
        <pt x="68" y="176" on="0"/>
        <pt x="76" y="210" on="1"/>
        <pt x="140" y="471" on="1"/>
        <pt x="57" y="471" on="1"/>
        <pt x="57" y="525" on="1"/>
        <pt x="247" y="525" on="1"/>
      </contour>
    </TTGlyph>
    <TTGlyph name="afii10092" xMin="23" yMin="-10" xMax="481" yMax="525">
      <contour>
        <pt x="212" y="277" on="1"/>
        <pt x="245" y="302" on="0"/>
        <pt x="325" y="334" on="0"/>
        <pt x="377" y="334" on="1"/>
        <pt x="394" y="334" on="0"/>
        <pt x="431" y="322" on="0"/>
        <pt x="461" y="297" on="0"/>
        <pt x="481" y="258" on="0"/>
        <pt x="481" y="230" on="1"/>
        <pt x="481" y="182" on="0"/>
        <pt x="435" y="95" on="0"/>
        <pt x="360" y="29" on="0"/>
        <pt x="264" y="-10" on="0"/>
        <pt x="214" y="-10" on="1"/>
        <pt x="188" y="-10" on="0"/>
        <pt x="137" y="4" on="0"/>
        <pt x="95" y="37" on="0"/>
        <pt x="69" y="91" on="0"/>
        <pt x="69" y="131" on="1"/>
        <pt x="69" y="172" on="0"/>
        <pt x="106" y="262" on="0"/>
        <pt x="163" y="348" on="0"/>
        <pt x="234" y="425" on="0"/>
        <pt x="267" y="453" on="1"/>
        <pt x="106" y="453" on="1"/>
        <pt x="80" y="373" on="1"/>
        <pt x="23" y="373" on="1"/>
        <pt x="46" y="525" on="1"/>
        <pt x="363" y="525" on="1"/>
        <pt x="363" y="471" on="1"/>
        <pt x="323" y="443" on="0"/>
        <pt x="245" y="354" on="0"/>
        <pt x="208" y="277" on="1"/>
      </contour>
      <contour>
        <pt x="185" y="216" on="1"/>
        <pt x="174" y="187" on="0"/>
        <pt x="167" y="146" on="0"/>
        <pt x="167" y="126" on="1"/>
        <pt x="167" y="88" on="0"/>
        <pt x="203" y="37" on="0"/>
        <pt x="237" y="37" on="1"/>
        <pt x="267" y="37" on="0"/>
        <pt x="321" y="65" on="0"/>
        <pt x="360" y="112" on="0"/>
        <pt x="383" y="171" on="0"/>
        <pt x="383" y="202" on="1"/>
        <pt x="383" y="220" on="0"/>
        <pt x="369" y="245" on="0"/>
        <pt x="348" y="260" on="0"/>
        <pt x="324" y="267" on="0"/>
        <pt x="314" y="267" on="1"/>
        <pt x="276" y="267" on="0"/>
        <pt x="202" y="239" on="0"/>
      </contour>
    </TTGlyph>
    <TTGlyph name="afii10093" xMin="57" yMin="-10" xMax="694" yMax="525">
      <contour>
        <pt x="179" y="229" on="1"/>
        <pt x="169" y="200" on="0"/>
        <pt x="155" y="138" on="0"/>
        <pt x="155" y="110" on="1"/>
        <pt x="155" y="74" on="0"/>
        <pt x="181" y="37" on="0"/>
        <pt x="214" y="37" on="1"/>
        <pt x="244" y="37" on="0"/>
        <pt x="293" y="69" on="0"/>
        <pt x="329" y="119" on="0"/>
        <pt x="348" y="182" on="0"/>
        <pt x="348" y="213" on="1"/>
        <pt x="348" y="231" on="0"/>
        <pt x="335" y="255" on="0"/>
        <pt x="315" y="270" on="0"/>
        <pt x="292" y="277" on="0"/>
        <pt x="283" y="277" on="1"/>
        <pt x="245" y="277" on="0"/>
        <pt x="196" y="249" on="0"/>
      </contour>
      <contour>
        <pt x="194" y="282" on="1"/>
        <pt x="220" y="307" on="0"/>
        <pt x="291" y="344" on="0"/>
        <pt x="344" y="344" on="1"/>
        <pt x="361" y="344" on="0"/>
        <pt x="397" y="333" on="0"/>
        <pt x="427" y="308" on="0"/>
        <pt x="446" y="269" on="0"/>
        <pt x="446" y="241" on="1"/>
        <pt x="446" y="194" on="0"/>
        <pt x="404" y="104" on="0"/>
        <pt x="331" y="34" on="0"/>
        <pt x="233" y="-10" on="0"/>
        <pt x="178" y="-10" on="1"/>
        <pt x="153" y="-10" on="0"/>
        <pt x="109" y="3" on="0"/>
        <pt x="76" y="31" on="0"/>
        <pt x="57" y="74" on="0"/>
        <pt x="57" y="104" on="1"/>
        <pt x="57" y="138" on="0"/>
        <pt x="77" y="227" on="0"/>
        <pt x="108" y="324" on="0"/>
        <pt x="144" y="425" on="0"/>
        <pt x="160" y="471" on="1"/>
        <pt x="91" y="471" on="1"/>
        <pt x="91" y="525" on="1"/>
        <pt x="283" y="525" on="1"/>
        <pt x="269" y="492" on="0"/>
        <pt x="246" y="436" on="0"/>
        <pt x="224" y="381" on="0"/>
        <pt x="201" y="320" on="0"/>
        <pt x="189" y="282" on="1"/>
      </contour>
      <contour>
        <pt x="694" y="525" on="1"/>
        <pt x="587" y="54" on="1"/>
        <pt x="670" y="54" on="1"/>
        <pt x="670" y="0" on="1"/>
        <pt x="477" y="0" on="1"/>
        <pt x="596" y="525" on="1"/>
      </contour>
    </TTGlyph>
    <TTGlyph name="afii10094" xMin="57" yMin="-10" xMax="468" yMax="525">
      <contour>
        <pt x="179" y="229" on="1"/>
        <pt x="169" y="200" on="0"/>
        <pt x="155" y="138" on="0"/>
        <pt x="155" y="110" on="1"/>
        <pt x="155" y="75" on="0"/>
        <pt x="193" y="37" on="0"/>
        <pt x="226" y="37" on="1"/>
        <pt x="256" y="37" on="0"/>
        <pt x="308" y="69" on="0"/>
        <pt x="347" y="119" on="0"/>
        <pt x="370" y="182" on="0"/>
        <pt x="370" y="213" on="1"/>
        <pt x="370" y="231" on="0"/>
        <pt x="356" y="255" on="0"/>
        <pt x="336" y="270" on="0"/>
        <pt x="313" y="277" on="0"/>
        <pt x="303" y="277" on="1"/>
        <pt x="265" y="277" on="0"/>
        <pt x="197" y="246" on="0"/>
      </contour>
      <contour>
        <pt x="195" y="282" on="1"/>
        <pt x="225" y="307" on="0"/>
        <pt x="312" y="344" on="0"/>
        <pt x="365" y="344" on="1"/>
        <pt x="382" y="344" on="0"/>
        <pt x="418" y="333" on="0"/>
        <pt x="448" y="308" on="0"/>
        <pt x="468" y="269" on="0"/>
        <pt x="468" y="241" on="1"/>
        <pt x="468" y="194" on="0"/>
        <pt x="422" y="103" on="0"/>
        <pt x="345" y="33" on="0"/>
        <pt x="244" y="-10" on="0"/>
        <pt x="189" y="-10" on="1"/>
        <pt x="129" y="-10" on="0"/>
        <pt x="57" y="44" on="0"/>
        <pt x="57" y="104" on="1"/>
        <pt x="57" y="138" on="0"/>
        <pt x="78" y="227" on="0"/>
        <pt x="109" y="324" on="0"/>
        <pt x="145" y="425" on="0"/>
        <pt x="161" y="471" on="1"/>
        <pt x="91" y="471" on="1"/>
        <pt x="91" y="525" on="1"/>
        <pt x="283" y="525" on="1"/>
        <pt x="270" y="492" on="0"/>
        <pt x="247" y="436" on="0"/>
        <pt x="225" y="381" on="0"/>
        <pt x="203" y="320" on="0"/>
        <pt x="191" y="282" on="1"/>
      </contour>
    </TTGlyph>
    <TTGlyph name="afii10095" xMin="5" yMin="-10" xMax="475" yMax="535">
      <contour>
        <pt x="268" y="535" on="1"/>
        <pt x="365" y="535" on="0"/>
        <pt x="475" y="436" on="0"/>
        <pt x="475" y="342" on="1"/>
        <pt x="475" y="265" on="0"/>
        <pt x="427" y="136" on="0"/>
        <pt x="345" y="43" on="0"/>
        <pt x="234" y="-10" on="0"/>
        <pt x="170" y="-10" on="1"/>
        <pt x="124" y="-10" on="0"/>
        <pt x="32" y="15" on="0"/>
        <pt x="5" y="40" on="1"/>
        <pt x="34" y="143" on="1"/>
        <pt x="98" y="143" on="1"/>
        <pt x="78" y="71" on="1"/>
        <pt x="86" y="60" on="0"/>
        <pt x="133" y="44" on="0"/>
        <pt x="166" y="44" on="1"/>
        <pt x="197" y="44" on="0"/>
        <pt x="258" y="66" on="0"/>
        <pt x="310" y="112" on="0"/>
        <pt x="349" y="185" on="0"/>
        <pt x="358" y="236" on="1"/>
        <pt x="155" y="236" on="1"/>
        <pt x="155" y="300" on="1"/>
        <pt x="366" y="300" on="1"/>
        <pt x="367" y="305" on="0"/>
        <pt x="367" y="316" on="0"/>
        <pt x="367" y="321" on="1"/>
        <pt x="367" y="348" on="0"/>
        <pt x="354" y="405" on="0"/>
        <pt x="324" y="451" on="0"/>
        <pt x="276" y="481" on="0"/>
        <pt x="242" y="481" on="1"/>
        <pt x="215" y="481" on="0"/>
        <pt x="171" y="471" on="0"/>
        <pt x="152" y="460" on="1"/>
        <pt x="132" y="385" on="1"/>
        <pt x="68" y="385" on="1"/>
        <pt x="92" y="490" on="1"/>
        <pt x="123" y="510" on="0"/>
        <pt x="202" y="535" on="0"/>
      </contour>
    </TTGlyph>
    <TTGlyph name="afii10096" xMin="46" yMin="-10" xMax="749" yMax="535">
      <contour>
        <pt x="290" y="195" on="1"/>
        <pt x="290" y="206" on="0"/>
        <pt x="290" y="227" on="0"/>
        <pt x="292" y="239" on="1"/>
        <pt x="195" y="239" on="1"/>
        <pt x="143" y="0" on="1"/>
        <pt x="46" y="0" on="1"/>
        <pt x="144" y="471" on="1"/>
        <pt x="76" y="471" on="1"/>
        <pt x="76" y="525" on="1"/>
        <pt x="256" y="525" on="1"/>
        <pt x="205" y="293" on="1"/>
        <pt x="302" y="293" on="1"/>
        <pt x="314" y="340" on="0"/>
        <pt x="360" y="427" on="0"/>
        <pt x="428" y="495" on="0"/>
        <pt x="518" y="535" on="0"/>
        <pt x="574" y="535" on="1"/>
        <pt x="749" y="535" on="0"/>
        <pt x="749" y="338" on="1"/>
        <pt x="749" y="269" on="0"/>
        <pt x="706" y="143" on="0"/>
        <pt x="629" y="47" on="0"/>
        <pt x="521" y="-10" on="0"/>
        <pt x="457" y="-10" on="1"/>
        <pt x="380" y="-10" on="0"/>
        <pt x="290" y="92" on="0"/>
      </contour>
      <contour>
        <pt x="553" y="488" on="1"/>
        <pt x="522" y="488" on="0"/>
        <pt x="473" y="458" on="0"/>
        <pt x="436" y="408" on="0"/>
        <pt x="411" y="344" on="0"/>
        <pt x="395" y="273" on="0"/>
        <pt x="388" y="202" on="0"/>
        <pt x="388" y="171" on="1"/>
        <pt x="388" y="110" on="0"/>
        <pt x="436" y="37" on="0"/>
        <pt x="476" y="37" on="1"/>
        <pt x="514" y="37" on="0"/>
        <pt x="576" y="92" on="0"/>
        <pt x="621" y="181" on="0"/>
        <pt x="645" y="295" on="0"/>
        <pt x="645" y="354" on="1"/>
        <pt x="645" y="416" on="0"/>
        <pt x="601" y="488" on="0"/>
      </contour>
    </TTGlyph>
    <TTGlyph name="afii10097" xMin="-22" yMin="0" xMax="509" yMax="535">
      <contour>
        <pt x="409" y="477" on="1"/>
        <pt x="395" y="482" on="0"/>
        <pt x="356" y="488" on="0"/>
        <pt x="333" y="488" on="1"/>
        <pt x="301" y="488" on="0"/>
        <pt x="246" y="466" on="0"/>
        <pt x="205" y="428" on="0"/>
        <pt x="181" y="376" on="0"/>
        <pt x="181" y="345" on="1"/>
        <pt x="181" y="306" on="0"/>
        <pt x="264" y="256" on="0"/>
        <pt x="332" y="256" on="1"/>
        <pt x="358" y="256" on="1"/>
      </contour>
      <contour>
        <pt x="199" y="231" on="1"/>
        <pt x="179" y="235" on="0"/>
        <pt x="136" y="256" on="0"/>
        <pt x="100" y="288" on="0"/>
        <pt x="77" y="330" on="0"/>
        <pt x="77" y="356" on="1"/>
        <pt x="77" y="395" on="0"/>
        <pt x="115" y="460" on="0"/>
        <pt x="186" y="508" on="0"/>
        <pt x="290" y="535" on="0"/>
        <pt x="356" y="535" on="1"/>
        <pt x="398" y="535" on="0"/>
        <pt x="478" y="523" on="0"/>
        <pt x="509" y="514" on="1"/>
        <pt x="412" y="54" on="1"/>
        <pt x="496" y="54" on="1"/>
        <pt x="496" y="0" on="1"/>
        <pt x="306" y="0" on="1"/>
        <pt x="351" y="216" on="1"/>
        <pt x="288" y="216" on="1"/>
        <pt x="111" y="0" on="1"/>
        <pt x="-22" y="0" on="1"/>
        <pt x="-22" y="54" on="1"/>
        <pt x="32" y="54" on="1"/>
      </contour>
    </TTGlyph>
    <TTGlyph name="afii10098" xMin="47" yMin="0" xMax="510" yMax="647">
      <contour>
        <pt x="402" y="525" on="1"/>
        <pt x="461" y="647" on="1"/>
        <pt x="510" y="647" on="1"/>
        <pt x="482" y="471" on="1"/>
        <pt x="256" y="471" on="1"/>
        <pt x="150" y="0" on="1"/>
        <pt x="47" y="0" on="1"/>
        <pt x="153" y="471" on="1"/>
        <pt x="87" y="471" on="1"/>
        <pt x="87" y="525" on="1"/>
      </contour>
    </TTGlyph>
    <TTGlyph name="afii10099" xMin="37" yMin="-209" xMax="518" yMax="750">
      <contour>
        <pt x="81" y="593" on="1"/>
        <pt x="163" y="593" on="1"/>
        <pt x="185" y="696" on="1"/>
        <pt x="113" y="696" on="1"/>
        <pt x="113" y="750" on="1"/>
        <pt x="294" y="750" on="1"/>
        <pt x="258" y="593" on="1"/>
        <pt x="451" y="593" on="1"/>
        <pt x="438" y="542" on="1"/>
        <pt x="247" y="542" on="1"/>
        <pt x="212" y="388" on="1"/>
        <pt x="218" y="388" on="1"/>
        <pt x="256" y="427" on="0"/>
        <pt x="350" y="482" on="0"/>
        <pt x="416" y="482" on="1"/>
        <pt x="518" y="482" on="0"/>
        <pt x="518" y="362" on="1"/>
        <pt x="518" y="333" on="0"/>
        <pt x="507" y="268" on="0"/>
        <pt x="499" y="238" on="1"/>
        <pt x="444" y="10" on="1"/>
        <pt x="430" y="-49" on="0"/>
        <pt x="372" y="-129" on="0"/>
        <pt x="308" y="-180" on="0"/>
        <pt x="246" y="-206" on="0"/>
        <pt x="227" y="-209" on="1"/>
        <pt x="211" y="-168" on="1"/>
        <pt x="224" y="-162" on="0"/>
        <pt x="262" y="-142" on="0"/>
        <pt x="301" y="-103" on="0"/>
        <pt x="338" y="-40" on="0"/>
        <pt x="349" y="7" on="1"/>
        <pt x="400" y="220" on="1"/>
        <pt x="408" y="252" on="0"/>
        <pt x="420" y="310" on="0"/>
        <pt x="420" y="336" on="1"/>
        <pt x="420" y="373" on="0"/>
        <pt x="389" y="415" on="0"/>
        <pt x="357" y="415" on="1"/>
        <pt x="334" y="415" on="0"/>
        <pt x="290" y="402" on="0"/>
        <pt x="250" y="382" on="0"/>
        <pt x="216" y="356" on="0"/>
        <pt x="204" y="343" on="1"/>
        <pt x="133" y="0" on="1"/>
        <pt x="37" y="0" on="1"/>
        <pt x="152" y="542" on="1"/>
        <pt x="66" y="542" on="1"/>
      </contour>
    </TTGlyph>
    <TTGlyph name="afii10100" xMin="17" yMin="-10" xMax="474" yMax="750">
      <component glyphName="afii10068" x="0" y="0" flags="0x204"/>
      <component glyphName="acute" x="-13" y="0" flags="0x4"/>
    </TTGlyph>
    <TTGlyph name="afii10101" xMin="44" yMin="-10" xMax="486" yMax="535">
      <contour>
        <pt x="436" y="99" on="1"/>
        <pt x="408" y="47" on="0"/>
        <pt x="304" y="-10" on="0"/>
        <pt x="228" y="-10" on="1"/>
        <pt x="185" y="-10" on="0"/>
        <pt x="117" y="21" on="0"/>
        <pt x="69" y="73" on="0"/>
        <pt x="44" y="144" on="0"/>
        <pt x="44" y="183" on="1"/>
        <pt x="44" y="261" on="0"/>
        <pt x="86" y="391" on="0"/>
        <pt x="167" y="484" on="0"/>
        <pt x="283" y="535" on="0"/>
        <pt x="357" y="535" on="1"/>
        <pt x="399" y="535" on="0"/>
        <pt x="465" y="518" on="0"/>
        <pt x="486" y="497" on="1"/>
        <pt x="456" y="378" on="1"/>
        <pt x="386" y="378" on="1"/>
        <pt x="407" y="468" on="1"/>
        <pt x="396" y="475" on="0"/>
        <pt x="362" y="481" on="0"/>
        <pt x="347" y="481" on="1"/>
        <pt x="272" y="481" on="0"/>
        <pt x="170" y="378" on="0"/>
        <pt x="154" y="289" on="1"/>
        <pt x="362" y="289" on="1"/>
        <pt x="362" y="235" on="1"/>
        <pt x="148" y="235" on="1"/>
        <pt x="148" y="212" on="1"/>
        <pt x="148" y="140" on="0"/>
        <pt x="214" y="57" on="0"/>
        <pt x="268" y="57" on="1"/>
        <pt x="313" y="57" on="0"/>
        <pt x="382" y="96" on="0"/>
        <pt x="403" y="125" on="1"/>
      </contour>
    </TTGlyph>
    <TTGlyph name="afii10102" xMin="6" yMin="-10" xMax="435" yMax="535">
      <component glyphName="s" x="0" y="0" flags="0x204"/>
    </TTGlyph>
    <TTGlyph name="afii10103" xMin="42" yMin="0" xMax="289" yMax="750">
      <component glyphName="i" x="0" y="0" flags="0x204"/>
    </TTGlyph>
    <TTGlyph name="afii10103.alt" xMin="42" yMin="0" xMax="257" yMax="525">
      <component glyphName="dotlessi" x="0" y="0" flags="0x204"/>
    </TTGlyph>
    <TTGlyph name="afii10104" xMin="61" yMin="0" xMax="378" yMax="751">
      <contour>
        <pt x="77" y="686" on="1"/>
        <pt x="77" y="716" on="0"/>
        <pt x="110" y="751" on="0"/>
        <pt x="136" y="751" on="1"/>
        <pt x="164" y="751" on="0"/>
        <pt x="198" y="716" on="0"/>
        <pt x="198" y="686" on="1"/>
        <pt x="198" y="658" on="0"/>
        <pt x="164" y="624" on="0"/>
        <pt x="136" y="624" on="1"/>
        <pt x="109" y="624" on="0"/>
        <pt x="77" y="658" on="0"/>
      </contour>
      <contour>
        <pt x="257" y="686" on="1"/>
        <pt x="257" y="716" on="0"/>
        <pt x="290" y="751" on="0"/>
        <pt x="317" y="751" on="1"/>
        <pt x="345" y="751" on="0"/>
        <pt x="378" y="716" on="0"/>
        <pt x="378" y="686" on="1"/>
        <pt x="378" y="658" on="0"/>
        <pt x="345" y="624" on="0"/>
        <pt x="317" y="624" on="1"/>
        <pt x="289" y="624" on="0"/>
        <pt x="257" y="658" on="0"/>
      </contour>
      <contour>
        <pt x="95" y="471" on="1"/>
        <pt x="95" y="525" on="1"/>
        <pt x="276" y="525" on="1"/>
        <pt x="172" y="54" on="1"/>
        <pt x="254" y="54" on="1"/>
        <pt x="254" y="0" on="1"/>
        <pt x="61" y="0" on="1"/>
        <pt x="168" y="471" on="1"/>
      </contour>
    </TTGlyph>
    <TTGlyph name="afii10105" xMin="-93" yMin="-209" xMax="284" yMax="750">
      <component glyphName="j" x="0" y="0" flags="0x204"/>
    </TTGlyph>
    <TTGlyph name="afii10106" xMin="-25" yMin="-10" xMax="750" yMax="525">
      <contour>
        <pt x="540" y="525" on="1"/>
        <pt x="530" y="494" on="0"/>
        <pt x="512" y="437" on="0"/>
        <pt x="495" y="379" on="0"/>
        <pt x="480" y="318" on="0"/>
        <pt x="473" y="282" on="1"/>
        <pt x="477" y="282" on="1"/>
        <pt x="507" y="307" on="0"/>
        <pt x="594" y="344" on="0"/>
        <pt x="647" y="344" on="1"/>
        <pt x="664" y="344" on="0"/>
        <pt x="700" y="333" on="0"/>
        <pt x="730" y="308" on="0"/>
        <pt x="750" y="269" on="0"/>
        <pt x="750" y="241" on="1"/>
        <pt x="750" y="194" on="0"/>
        <pt x="704" y="103" on="0"/>
        <pt x="627" y="33" on="0"/>
        <pt x="526" y="-10" on="0"/>
        <pt x="471" y="-10" on="1"/>
        <pt x="411" y="-10" on="0"/>
        <pt x="339" y="44" on="0"/>
        <pt x="339" y="104" on="1"/>
        <pt x="339" y="138" on="0"/>
        <pt x="356" y="229" on="0"/>
        <pt x="381" y="328" on="0"/>
        <pt x="408" y="428" on="0"/>
        <pt x="419" y="471" on="1"/>
        <pt x="282" y="471" on="1"/>
        <pt x="268" y="415" on="0"/>
        <pt x="231" y="281" on="0"/>
        <pt x="180" y="150" on="0"/>
        <pt x="116" y="36" on="0"/>
        <pt x="76" y="0" on="1"/>
        <pt x="-25" y="0" on="1"/>
        <pt x="-25" y="96" on="1"/>
        <pt x="79" y="96" on="1"/>
        <pt x="104" y="126" on="0"/>
        <pt x="147" y="214" on="0"/>
        <pt x="183" y="314" on="0"/>
        <pt x="212" y="421" on="0"/>
        <pt x="223" y="471" on="1"/>
        <pt x="145" y="471" on="1"/>
        <pt x="145" y="525" on="1"/>
      </contour>
      <contour>
        <pt x="461" y="229" on="1"/>
        <pt x="451" y="200" on="0"/>
        <pt x="437" y="138" on="0"/>
        <pt x="437" y="110" on="1"/>
        <pt x="437" y="75" on="0"/>
        <pt x="475" y="37" on="0"/>
        <pt x="508" y="37" on="1"/>
        <pt x="538" y="37" on="0"/>
        <pt x="590" y="69" on="0"/>
        <pt x="629" y="119" on="0"/>
        <pt x="652" y="182" on="0"/>
        <pt x="652" y="213" on="1"/>
        <pt x="652" y="231" on="0"/>
        <pt x="638" y="255" on="0"/>
        <pt x="618" y="270" on="0"/>
        <pt x="595" y="277" on="0"/>
        <pt x="585" y="277" on="1"/>
        <pt x="547" y="277" on="0"/>
        <pt x="479" y="246" on="0"/>
      </contour>
    </TTGlyph>
    <TTGlyph name="afii10107" xMin="47" yMin="-10" xMax="791" yMax="525">
      <contour>
        <pt x="196" y="239" on="1"/>
        <pt x="143" y="0" on="1"/>
        <pt x="47" y="0" on="1"/>
        <pt x="146" y="471" on="1"/>
        <pt x="76" y="471" on="1"/>
        <pt x="76" y="525" on="1"/>
        <pt x="257" y="525" on="1"/>
        <pt x="206" y="293" on="1"/>
        <pt x="415" y="293" on="1"/>
        <pt x="465" y="525" on="1"/>
        <pt x="569" y="525" on="1"/>
        <pt x="561" y="495" on="0"/>
        <pt x="547" y="438" on="0"/>
        <pt x="534" y="380" on="0"/>
        <pt x="521" y="318" on="0"/>
        <pt x="514" y="282" on="1"/>
        <pt x="518" y="282" on="1"/>
        <pt x="548" y="307" on="0"/>
        <pt x="635" y="344" on="0"/>
        <pt x="688" y="344" on="1"/>
        <pt x="705" y="344" on="0"/>
        <pt x="741" y="333" on="0"/>
        <pt x="771" y="308" on="0"/>
        <pt x="791" y="269" on="0"/>
        <pt x="791" y="241" on="1"/>
        <pt x="791" y="194" on="0"/>
        <pt x="747" y="103" on="0"/>
        <pt x="672" y="33" on="0"/>
        <pt x="572" y="-10" on="0"/>
        <pt x="517" y="-10" on="1"/>
        <pt x="457" y="-10" on="0"/>
        <pt x="385" y="44" on="0"/>
        <pt x="385" y="104" on="1"/>
        <pt x="385" y="128" on="0"/>
        <pt x="398" y="205" on="0"/>
        <pt x="406" y="239" on="1"/>
      </contour>
      <contour>
        <pt x="502" y="229" on="1"/>
        <pt x="492" y="200" on="0"/>
        <pt x="483" y="138" on="0"/>
        <pt x="483" y="110" on="1"/>
        <pt x="483" y="75" on="0"/>
        <pt x="521" y="37" on="0"/>
        <pt x="554" y="37" on="1"/>
        <pt x="584" y="37" on="0"/>
        <pt x="635" y="69" on="0"/>
        <pt x="672" y="119" on="0"/>
        <pt x="693" y="182" on="0"/>
        <pt x="693" y="213" on="1"/>
        <pt x="693" y="231" on="0"/>
        <pt x="679" y="255" on="0"/>
        <pt x="659" y="270" on="0"/>
        <pt x="636" y="277" on="0"/>
        <pt x="626" y="277" on="1"/>
        <pt x="588" y="277" on="0"/>
        <pt x="520" y="246" on="0"/>
      </contour>
    </TTGlyph>
    <TTGlyph name="afii10108" xMin="37" yMin="0" xMax="534" yMax="750">
      <contour>
        <pt x="81" y="593" on="1"/>
        <pt x="163" y="593" on="1"/>
        <pt x="185" y="696" on="1"/>
        <pt x="113" y="696" on="1"/>
        <pt x="113" y="750" on="1"/>
        <pt x="294" y="750" on="1"/>
        <pt x="259" y="593" on="1"/>
        <pt x="451" y="593" on="1"/>
        <pt x="438" y="542" on="1"/>
        <pt x="248" y="542" on="1"/>
        <pt x="214" y="388" on="1"/>
        <pt x="220" y="388" on="1"/>
        <pt x="258" y="427" on="0"/>
        <pt x="352" y="482" on="0"/>
        <pt x="418" y="482" on="1"/>
        <pt x="520" y="482" on="0"/>
        <pt x="520" y="362" on="1"/>
        <pt x="520" y="333" on="0"/>
        <pt x="508" y="268" on="0"/>
        <pt x="500" y="238" on="1"/>
        <pt x="449" y="54" on="1"/>
        <pt x="534" y="54" on="1"/>
        <pt x="534" y="0" on="1"/>
        <pt x="347" y="0" on="1"/>
        <pt x="402" y="220" on="1"/>
        <pt x="410" y="252" on="0"/>
        <pt x="422" y="310" on="0"/>
        <pt x="422" y="336" on="1"/>
        <pt x="422" y="373" on="0"/>
        <pt x="391" y="415" on="0"/>
        <pt x="359" y="415" on="1"/>
        <pt x="336" y="415" on="0"/>
        <pt x="292" y="402" on="0"/>
        <pt x="252" y="382" on="0"/>
        <pt x="218" y="356" on="0"/>
        <pt x="206" y="343" on="1"/>
        <pt x="133" y="0" on="1"/>
        <pt x="37" y="0" on="1"/>
        <pt x="152" y="542" on="1"/>
        <pt x="66" y="542" on="1"/>
      </contour>
    </TTGlyph>
    <TTGlyph name="afii10109" xMin="46" yMin="0" xMax="549" yMax="750">
      <component glyphName="afii10076" x="0" y="0" flags="0x204"/>
      <component glyphName="acute" x="53" y="0" flags="0x4"/>
    </TTGlyph>
    <TTGlyph name="afii10110" xMin="35" yMin="-200" xMax="520" yMax="748">
      <component glyphName="y" x="0" y="0" flags="0x204"/>
      <component glyphName="uniF6D4" x="-8" y="0" flags="0x4"/>
    </TTGlyph>
    <TTGlyph name="afii10145" xMin="-21" yMin="-200" xMax="871" yMax="700">
      <contour>
        <pt x="532" y="56" on="1"/>
        <pt x="657" y="644" on="1"/>
        <pt x="574" y="644" on="1"/>
        <pt x="586" y="700" on="1"/>
        <pt x="871" y="700" on="1"/>
        <pt x="860" y="644" on="1"/>
        <pt x="769" y="644" on="1"/>
        <pt x="644" y="56" on="1"/>
        <pt x="735" y="56" on="1"/>
        <pt x="723" y="0" on="1"/>
        <pt x="400" y="0" on="1"/>
        <pt x="328" y="-200" on="1"/>
        <pt x="278" y="-200" on="1"/>
        <pt x="294" y="0" on="1"/>
        <pt x="-21" y="0" on="1"/>
        <pt x="-9" y="56" on="1"/>
        <pt x="82" y="56" on="1"/>
        <pt x="207" y="644" on="1"/>
        <pt x="116" y="644" on="1"/>
        <pt x="128" y="700" on="1"/>
        <pt x="414" y="700" on="1"/>
        <pt x="402" y="644" on="1"/>
        <pt x="319" y="644" on="1"/>
        <pt x="194" y="56" on="1"/>
      </contour>
    </TTGlyph>
    <TTGlyph name="afii10146" xMin="60" yMin="-3" xMax="761" yMax="721">
      <contour>
        <pt x="174" y="561" on="1"/>
        <pt x="149" y="539" on="1"/>
        <pt x="124" y="421" on="1"/>
        <pt x="60" y="421" on="1"/>
        <pt x="101" y="617" on="1"/>
        <pt x="341" y="617" on="1"/>
        <pt x="352" y="665" on="1"/>
        <pt x="261" y="665" on="1"/>
        <pt x="273" y="721" on="1"/>
        <pt x="576" y="721" on="1"/>
        <pt x="564" y="665" on="1"/>
        <pt x="464" y="665" on="1"/>
        <pt x="453" y="617" on="1"/>
        <pt x="735" y="617" on="1"/>
        <pt x="701" y="455" on="1"/>
        <pt x="637" y="455" on="1"/>
        <pt x="655" y="539" on="1"/>
        <pt x="640" y="561" on="1"/>
        <pt x="442" y="561" on="1"/>
        <pt x="407" y="396" on="1"/>
        <pt x="427" y="399" on="0"/>
        <pt x="487" y="403" on="0"/>
        <pt x="510" y="403" on="1"/>
        <pt x="566" y="403" on="0"/>
        <pt x="659" y="386" on="0"/>
        <pt x="725" y="347" on="0"/>
        <pt x="761" y="285" on="0"/>
        <pt x="761" y="240" on="1"/>
        <pt x="761" y="171" on="0"/>
        <pt x="697" y="77" on="0"/>
        <pt x="596" y="21" on="0"/>
        <pt x="469" y="-3" on="0"/>
        <pt x="406" y="-3" on="1"/>
        <pt x="401" y="-3" on="0"/>
        <pt x="377" y="-2" on="0"/>
        <pt x="345" y="-1" on="0"/>
        <pt x="308" y="0" on="0"/>
        <pt x="290" y="0" on="1"/>
        <pt x="119" y="0" on="1"/>
        <pt x="131" y="56" on="1"/>
        <pt x="222" y="56" on="1"/>
        <pt x="330" y="561" on="1"/>
      </contour>
      <contour>
        <pt x="473" y="347" on="1"/>
        <pt x="445" y="347" on="0"/>
        <pt x="412" y="344" on="0"/>
        <pt x="395" y="341" on="1"/>
        <pt x="335" y="58" on="1"/>
        <pt x="341" y="56" on="0"/>
        <pt x="363" y="55" on="0"/>
        <pt x="386" y="53" on="0"/>
        <pt x="407" y="53" on="0"/>
        <pt x="414" y="53" on="1"/>
        <pt x="463" y="53" on="0"/>
        <pt x="545" y="78" on="0"/>
        <pt x="604" y="126" on="0"/>
        <pt x="636" y="195" on="0"/>
        <pt x="636" y="239" on="1"/>
        <pt x="636" y="262" on="0"/>
        <pt x="621" y="301" on="0"/>
        <pt x="584" y="330" on="0"/>
        <pt x="521" y="347" on="0"/>
      </contour>
    </TTGlyph>
</ttFont>
